FrauncesItalic-LightOpMaxGoofyMax.ufo
<glyph name="exclam" format="2">
  <advance width="439"/>
  <unicode hex="0021"/>
  <outline>
    <contour>
      <point x="456" y="1342" type="curve" smooth="yes"/>
      <point x="419" y="1342"/>
      <point x="400" y="1313"/>
      <point x="390" y="1277" type="curve" smooth="yes"/>
      <point x="387" y="1267"/>
      <point x="381" y="1245"/>
      <point x="377" y="1226" type="curve" smooth="yes"/>
      <point x="213" y="467" type="line" smooth="yes"/>
      <point x="205" y="432"/>
      <point x="209" y="420"/>
      <point x="227" y="420" type="curve" smooth="yes"/>
      <point x="246" y="420"/>
      <point x="257" y="433"/>
      <point x="266" y="469" type="curve" smooth="yes"/>
      <point x="475" y="1226" type="line" smooth="yes"/>
      <point x="481" y="1245"/>
      <point x="486" y="1267"/>
      <point x="488" y="1277" type="curve" smooth="yes"/>
      <point x="498" y="1313"/>
      <point x="493" y="1342"/>
    </contour>
    <component base="period" xOffset="2"/>
  </outline>
</glyph>
<glyph name="parenleft" format="2">
  <advance width="550"/>
  <unicode hex="0028"/>
  <outline>
    <contour>
      <point x="200" y="619" type="curve" smooth="yes"/>
      <point x="106" y="239"/>
      <point x="187" y="-119"/>
      <point x="332" y="-230" type="curve" smooth="yes"/>
      <point x="345" y="-240"/>
      <point x="361" y="-236"/>
      <point x="372" y="-222" type="curve" smooth="yes"/>
      <point x="383" y="-208"/>
      <point x="379" y="-191"/>
      <point x="366" y="-178" type="curve" smooth="yes"/>
      <point x="244" y="-52"/>
      <point x="190" y="261"/>
      <point x="277" y="619" type="curve" smooth="yes"/>
      <point x="356" y="936"/>
      <point x="536" y="1170"/>
      <point x="732" y="1306" type="curve" smooth="yes"/>
      <point x="753" y="1319"/>
      <point x="765" y="1335"/>
      <point x="761" y="1350" type="curve" smooth="yes"/>
      <point x="757" y="1363"/>
      <point x="743" y="1368"/>
      <point x="725" y="1358" type="curve" smooth="yes"/>
      <point x="507" y="1236"/>
      <point x="283" y="957"/>
    </contour>
  </outline>
</glyph>
<glyph name="asterisk" format="2">
  <advance width="1032"/>
  <unicode hex="002A"/>
  <outline>
    <contour>
      <point x="646" y="947" type="line"/>
      <point x="681" y="1079"/>
      <point x="743" y="1260"/>
      <point x="766" y="1349" type="curve" smooth="yes"/>
      <point x="779" y="1395"/>
      <point x="770" y="1419"/>
      <point x="746" y="1419" type="curve" smooth="yes"/>
      <point x="718" y="1419"/>
      <point x="699" y="1395"/>
      <point x="686" y="1349" type="curve" smooth="yes"/>
      <point x="663" y="1260"/>
      <point x="636" y="1079"/>
      <point x="602" y="947" type="curve"/>
    </contour>
    <contour>
      <point x="622" y="969" type="curve"/>
      <point x="624" y="924" type="line"/>
      <point x="756" y="965"/>
      <point x="935" y="1008"/>
      <point x="1024" y="1036" type="curve" smooth="yes"/>
      <point x="1070" y="1049"/>
      <point x="1095" y="1070"/>
      <point x="1092" y="1092" type="curve" smooth="yes"/>
      <point x="1091" y="1117"/>
      <point x="1066" y="1122"/>
      <point x="1021" y="1108" type="curve" smooth="yes"/>
      <point x="930" y="1080"/>
      <point x="754" y="1009"/>
    </contour>
    <contour>
      <point x="636" y="971" type="line"/>
      <point x="526" y="1011"/>
      <point x="385" y="1080"/>
      <point x="311" y="1108" type="curve" smooth="yes"/>
      <point x="272" y="1122"/>
      <point x="243" y="1116"/>
      <point x="230" y="1094" type="curve" smooth="yes"/>
      <point x="214" y="1070"/>
      <point x="228" y="1049"/>
      <point x="266" y="1036" type="curve" smooth="yes"/>
      <point x="340" y="1008"/>
      <point x="501" y="967"/>
      <point x="611" y="926" type="curve"/>
    </contour>
    <contour>
      <point x="608" y="961" type="line"/>
      <point x="506" y="856"/>
      <point x="356" y="716"/>
      <point x="287" y="645" type="curve" smooth="yes"/>
      <point x="250" y="608"/>
      <point x="241" y="580"/>
      <point x="257" y="566" type="curve" smooth="yes"/>
      <point x="275" y="551"/>
      <point x="304" y="563"/>
      <point x="339" y="599" type="curve" smooth="yes"/>
      <point x="408" y="671"/>
      <point x="535" y="828"/>
      <point x="636" y="934" type="curve"/>
    </contour>
    <contour>
      <point x="601" y="934" type="line"/>
      <point x="649" y="827"/>
      <point x="695" y="671"/>
      <point x="727" y="599" type="curve" smooth="yes"/>
      <point x="743" y="563"/>
      <point x="767" y="552"/>
      <point x="790" y="565" type="curve" smooth="yes"/>
      <point x="817" y="581"/>
      <point x="822" y="608"/>
      <point x="806" y="645" type="curve" smooth="yes"/>
      <point x="773" y="716"/>
      <point x="692" y="855"/>
      <point x="644" y="960" type="curve"/>
    </contour>
  </outline>
</glyph>
<glyph name="comma" format="2">
  <advance width="352"/>
  <unicode hex="002C"/>
  <outline>
    <contour>
      <point x="142" y="1" type="curve" smooth="yes"/>
      <point x="160" y="1" type="line" smooth="yes"/>
      <point x="183" y="1"/>
      <point x="196" y="7"/>
      <point x="183" y="-42" type="curve" smooth="yes"/>
      <point x="168" y="-107"/>
      <point x="100" y="-190"/>
      <point x="37" y="-215" type="curve" smooth="yes"/>
      <point x="12" y="-224"/>
      <point x="5" y="-232"/>
      <point x="2" y="-246" type="curve" smooth="yes"/>
      <point x="-1" y="-256"/>
      <point x="7" y="-262"/>
      <point x="22" y="-262" type="curve" smooth="yes"/>
      <point x="60" y="-262"/>
      <point x="202" y="-190"/>
      <point x="249" y="-1" type="curve" smooth="yes"/>
      <point x="276" y="111"/>
      <point x="247" y="165"/>
      <point x="196" y="165" type="curve" smooth="yes"/>
      <point x="147" y="165"/>
      <point x="101" y="129"/>
      <point x="90" y="80" type="curve" smooth="yes"/>
      <point x="79" y="37"/>
      <point x="106" y="1"/>
    </contour>
  </outline>
</glyph>
<glyph name="hyphen" format="2">
  <advance width="721"/>
  <unicode hex="002D"/>
  <outline>
    <contour>
      <point x="603" y="497" type="curve" smooth="yes"/>
      <point x="188" y="497" type="line" smooth="yes"/>
      <point x="170" y="497"/>
      <point x="164" y="494"/>
      <point x="156" y="481" type="curve" smooth="yes"/>
      <point x="133" y="440" type="line" smooth="yes"/>
      <point x="126" y="430"/>
      <point x="130" y="420"/>
      <point x="149" y="420" type="curve" smooth="yes"/>
      <point x="564" y="420" type="line" smooth="yes"/>
      <point x="581" y="420"/>
      <point x="589" y="422"/>
      <point x="595" y="435" type="curve" smooth="yes"/>
      <point x="618" y="477" type="line" smooth="yes"/>
      <point x="625" y="487"/>
      <point x="623" y="497"/>
    </contour>
  </outline>
</glyph>
<glyph name="period" format="2">
  <advance width="328"/>
  <unicode hex="002E"/>
  <outline>
    <contour>
      <point x="127" y="-9" type="curve" smooth="yes"/>
      <point x="171" y="-9"/>
      <point x="215" y="29"/>
      <point x="225" y="73" type="curve" smooth="yes"/>
      <point x="237" y="121"/>
      <point x="212" y="155"/>
      <point x="168" y="155" type="curve" smooth="yes"/>
      <point x="124" y="155"/>
      <point x="80" y="121"/>
      <point x="68" y="73" type="curve" smooth="yes"/>
      <point x="58" y="29"/>
      <point x="84" y="-9"/>
    </contour>
  </outline>
</glyph>
<glyph name="slash" format="2">
  <advance width="660"/>
  <unicode hex="002F"/>
  <outline>
    <contour>
      <point x="393" y="563" type="curve" smooth="yes"/>
      <point x="496" y="779"/>
      <point x="733" y="1269"/>
      <point x="830" y="1476" type="curve" smooth="yes"/>
      <point x="840" y="1497"/>
      <point x="838" y="1531"/>
      <point x="830" y="1533" type="curve" smooth="yes"/>
      <point x="812" y="1537"/>
      <point x="792" y="1523"/>
      <point x="780" y="1497" type="curve" smooth="yes"/>
      <point x="663" y="1248"/>
      <point x="443" y="777"/>
      <point x="351" y="579" type="curve" smooth="yes"/>
      <point x="256" y="380"/>
      <point x="29" y="-86"/>
      <point x="-89" y="-334" type="curve" smooth="yes"/>
      <point x="-102" y="-360"/>
      <point x="-98" y="-381"/>
      <point x="-81" y="-386" type="curve" smooth="yes"/>
      <point x="-60" y="-392"/>
      <point x="-41" y="-379"/>
      <point x="-27" y="-352" type="curve" smooth="yes"/>
      <point x="70" y="-143"/>
      <point x="296" y="351"/>
    </contour>
  </outline>
</glyph>
<glyph name="zero" format="2">
  <advance width="1015"/>
  <unicode hex="0030"/>
  <outline>
    <contour>
      <point x="761" y="1418" type="curve" smooth="yes"/>
      <point x="478" y="1418"/>
      <point x="229" y="1150"/>
      <point x="117" y="703" type="curve" smooth="yes"/>
      <point x="5" y="256"/>
      <point x="104" y="-20"/>
      <point x="392" y="-20" type="curve" smooth="yes"/>
      <point x="666" y="-20"/>
      <point x="913" y="250"/>
      <point x="1025" y="695" type="curve" smooth="yes"/>
      <point x="1136" y="1141"/>
      <point x="1044" y="1418"/>
    </contour>
    <contour>
      <point x="958" y="672" type="curve" smooth="yes"/>
      <point x="860" y="282"/>
      <point x="633" y="38"/>
      <point x="412" y="38" type="curve" smooth="yes"/>
      <point x="166" y="38"/>
      <point x="69" y="264"/>
      <point x="183" y="721" type="curve" smooth="yes"/>
      <point x="281" y="1110"/>
      <point x="507" y="1359"/>
      <point x="742" y="1359" type="curve" smooth="yes"/>
      <point x="977" y="1359"/>
      <point x="1072" y="1128"/>
    </contour>
  </outline>
</glyph>
<glyph name="seven" format="2">
  <advance width="883"/>
  <unicode hex="0037"/>
  <outline>
    <contour>
      <point x="1055" y="1358" type="line"/>
      <point x="689" y="883" type="line" smooth="yes"/>
      <point x="455" y="580"/>
      <point x="308" y="389"/>
      <point x="254" y="173" type="curve" smooth="yes"/>
      <point x="224" y="46"/>
      <point x="239" y="-18"/>
      <point x="291" y="-18" type="curve" smooth="yes"/>
      <point x="329" y="-18"/>
      <point x="356" y="2"/>
      <point x="367" y="47" type="curve" smooth="yes"/>
      <point x="381" y="100"/>
      <point x="325" y="167"/>
      <point x="348" y="256" type="curve" smooth="yes"/>
      <point x="386" y="410"/>
      <point x="523" y="591"/>
      <point x="734" y="863" type="curve" smooth="yes"/>
      <point x="1071" y="1302" type="line" smooth="yes"/>
      <point x="1092" y="1326"/>
      <point x="1100" y="1342"/>
      <point x="1105" y="1363" type="curve" smooth="yes"/>
      <point x="1112" y="1386"/>
      <point x="1103" y="1400"/>
      <point x="1068" y="1400" type="curve" smooth="yes"/>
      <point x="410" y="1400" type="line" smooth="yes"/>
      <point x="370" y="1400"/>
      <point x="350" y="1381"/>
      <point x="335" y="1344" type="curve" smooth="yes"/>
      <point x="266" y="1159" type="line" smooth="yes"/>
      <point x="253" y="1126"/>
      <point x="260" y="1115"/>
      <point x="274" y="1114" type="curve" smooth="yes"/>
      <point x="287" y="1113"/>
      <point x="298" y="1124"/>
      <point x="307" y="1143" type="curve" smooth="yes"/>
      <point x="367" y="1265" type="line" smooth="yes"/>
      <point x="391" y="1311"/>
      <point x="410" y="1332"/>
      <point x="450" y="1332" type="curve" smooth="yes"/>
      <point x="1056" y="1332" type="line"/>
    </contour>
  </outline>
</glyph>
<glyph name="nine" format="2">
  <advance width="972"/>
  <unicode hex="0039"/>
  <outline>
    <contour>
      <point x="323" y="-18" type="curve" smooth="yes"/>
      <point x="603" y="-18"/>
      <point x="833" y="223"/>
      <point x="975" y="747" type="curve" smooth="yes"/>
      <point x="1094" y="1183"/>
      <point x="990" y="1418"/>
      <point x="713" y="1418" type="curve" smooth="yes"/>
      <point x="482" y="1418"/>
      <point x="273" y="1255"/>
      <point x="205" y="982" type="curve" smooth="yes"/>
      <point x="144" y="738"/>
      <point x="240" y="563"/>
      <point x="480" y="563" type="curve" smooth="yes"/>
      <point x="703" y="563"/>
      <point x="934" y="765"/>
      <point x="992" y="998" type="curve"/>
      <point x="959" y="1015" type="line"/>
      <point x="910" y="816"/>
      <point x="704" y="628"/>
      <point x="512" y="628" type="curve" smooth="yes"/>
      <point x="315" y="628"/>
      <point x="220" y="753"/>
      <point x="279" y="990" type="curve" smooth="yes"/>
      <point x="335" y="1216"/>
      <point x="503" y="1361"/>
      <point x="690" y="1361" type="curve" smooth="yes"/>
      <point x="913" y="1361"/>
      <point x="1024" y="1188"/>
      <point x="901" y="725" type="curve" smooth="yes"/>
      <point x="767" y="223"/>
      <point x="545" y="41"/>
      <point x="346" y="41" type="curve" smooth="yes"/>
      <point x="201" y="41"/>
      <point x="125" y="113"/>
      <point x="153" y="225" type="curve" smooth="yes"/>
      <point x="168" y="281" type="line" smooth="yes"/>
      <point x="179" y="329"/>
      <point x="170" y="353"/>
      <point x="137" y="353" type="curve" smooth="yes"/>
      <point x="102" y="353"/>
      <point x="76" y="320"/>
      <point x="59" y="259" type="curve" smooth="yes"/>
      <point x="22" y="110"/>
      <point x="136" y="-18"/>
    </contour>
  </outline>
</glyph>
<glyph name="less" format="2">
  <advance width="852"/>
  <unicode hex="003C"/>
  <outline>
    <contour>
      <point x="190" y="688" type="line"/>
      <point x="739" y="328" type="line" smooth="yes"/>
      <point x="757" y="316"/>
      <point x="763" y="301"/>
      <point x="762" y="288" type="curve" smooth="yes"/>
      <point x="759" y="277"/>
      <point x="749" y="271"/>
      <point x="735" y="271" type="curve" smooth="yes"/>
      <point x="722" y="271"/>
      <point x="712" y="278"/>
      <point x="698" y="287" type="curve" smooth="yes"/>
      <point x="172" y="621" type="line" smooth="yes"/>
      <point x="147" y="637"/>
      <point x="136" y="660"/>
      <point x="141" y="690" type="curve" smooth="yes"/>
      <point x="147" y="718"/>
      <point x="169" y="738"/>
      <point x="206" y="756" type="curve" smooth="yes"/>
      <point x="898" y="1090" type="line" smooth="yes"/>
      <point x="916" y="1099"/>
      <point x="932" y="1103"/>
      <point x="944" y="1103" type="curve" smooth="yes"/>
      <point x="958" y="1103"/>
      <point x="961" y="1095"/>
      <point x="959" y="1082" type="curve" smooth="yes"/>
      <point x="956" y="1070"/>
      <point x="941" y="1054"/>
      <point x="917" y="1042" type="curve" smooth="yes"/>
      <point x="189" y="682" type="line"/>
    </contour>
  </outline>
</glyph>
<glyph name="at" format="2">
  <advance width="1376"/>
  <unicode hex="0040"/>
  <outline>
    <contour>
      <point x="426" y="328" type="curve" smooth="yes"/>
      <point x="425" y="609"/>
      <point x="684" y="895"/>
      <point x="900" y="895" type="curve" smooth="yes"/>
      <point x="951" y="895"/>
      <point x="981" y="878"/>
      <point x="982" y="836" type="curve" smooth="yes"/>
      <point x="982" y="634"/>
      <point x="710" y="179"/>
      <point x="532" y="179" type="curve" smooth="yes"/>
      <point x="463" y="179"/>
      <point x="426" y="213"/>
    </contour>
    <contour>
      <point x="942" y="137" type="curve" smooth="yes"/>
      <point x="1094" y="137"/>
      <point x="1257" y="287"/>
      <point x="1323" y="541" type="curve" smooth="yes"/>
      <point x="1437" y="984"/>
      <point x="1237" y="1246"/>
      <point x="919" y="1246" type="curve" smooth="yes"/>
      <point x="506" y="1246"/>
      <point x="197" y="944"/>
      <point x="92" y="531" type="curve" smooth="yes"/>
      <point x="-26" y="78"/>
      <point x="192" y="-205"/>
      <point x="562" y="-205" type="curve" smooth="yes"/>
      <point x="795" y="-205"/>
      <point x="1034" y="-113"/>
      <point x="1211" y="65" type="curve" smooth="yes"/>
      <point x="1231" y="83"/>
      <point x="1241" y="97"/>
      <point x="1231" y="110" type="curve" smooth="yes"/>
      <point x="1222" y="122"/>
      <point x="1203" y="116"/>
      <point x="1186" y="99" type="curve" smooth="yes"/>
      <point x="1026" y="-55"/>
      <point x="817" y="-153"/>
      <point x="579" y="-153" type="curve" smooth="yes"/>
      <point x="233" y="-153"/>
      <point x="46" y="122"/>
      <point x="152" y="531" type="curve" smooth="yes"/>
      <point x="250" y="917"/>
      <point x="542" y="1192"/>
      <point x="904" y="1192" type="curve" smooth="yes"/>
      <point x="1190" y="1192"/>
      <point x="1361" y="937"/>
      <point x="1259" y="540" type="curve" smooth="yes"/>
      <point x="1197" y="290"/>
      <point x="1062" y="189"/>
      <point x="955" y="189" type="curve" smooth="yes"/>
      <point x="909" y="189"/>
      <point x="884" y="226"/>
      <point x="901" y="294" type="curve" smooth="yes"/>
      <point x="1022" y="802" type="line" smooth="yes"/>
      <point x="1029" y="828"/>
      <point x="1055" y="850"/>
      <point x="1054" y="876" type="curve" smooth="yes"/>
      <point x="1054" y="915"/>
      <point x="999" y="937"/>
      <point x="922" y="937" type="curve" smooth="yes"/>
      <point x="660" y="937"/>
      <point x="372" y="629"/>
      <point x="373" y="304" type="curve" smooth="yes"/>
      <point x="373" y="181"/>
      <point x="429" y="138"/>
      <point x="510" y="138" type="curve" smooth="yes"/>
      <point x="656" y="138"/>
      <point x="825" y="294"/>
      <point x="945" y="605" type="curve"/>
      <point x="936" y="604" type="line"/>
      <point x="861" y="351"/>
      <point x="854" y="316"/>
      <point x="842" y="276" type="curve" smooth="yes"/>
      <point x="821" y="194"/>
      <point x="865" y="137"/>
    </contour>
  </outline>
</glyph>
<glyph name="A" format="2">
  <advance width="1089"/>
  <unicode hex="0041"/>
  <outline>
    <contour>
      <point x="156" y="156" type="curve" smooth="yes"/>
      <point x="679" y="1041" type="line" smooth="yes"/>
      <point x="757" y="1169"/>
      <point x="821" y="1258"/>
      <point x="848" y="1288" type="curve"/>
      <point x="833" y="1305" type="line"/>
      <point x="831" y="1013"/>
      <point x="825" y="381"/>
      <point x="820" y="135" type="curve" smooth="yes"/>
      <point x="818" y="91"/>
      <point x="795" y="70"/>
      <point x="757" y="62" type="curve" smooth="yes"/>
      <point x="683" y="43" type="line" smooth="yes"/>
      <point x="670" y="40"/>
      <point x="660" y="31"/>
      <point x="660" y="21" type="curve" smooth="yes"/>
      <point x="660" y="7"/>
      <point x="673" y="0"/>
      <point x="684" y="0" type="curve" smooth="yes"/>
      <point x="981" y="0" type="line" smooth="yes"/>
      <point x="1004" y="0"/>
      <point x="1012" y="9"/>
      <point x="1012" y="23" type="curve" smooth="yes"/>
      <point x="1012" y="36"/>
      <point x="1003" y="45"/>
      <point x="985" y="46" type="curve" smooth="yes"/>
      <point x="926" y="54"/>
      <point x="886" y="73"/>
      <point x="886" y="125" type="curve" smooth="yes"/>
      <point x="884" y="380"/>
      <point x="891" y="998"/>
      <point x="893" y="1282" type="curve" smooth="yes"/>
      <point x="893" y="1330"/>
      <point x="914" y="1357"/>
      <point x="954" y="1360" type="curve" smooth="yes"/>
      <point x="974" y="1360"/>
      <point x="987" y="1374"/>
      <point x="987" y="1389" type="curve" smooth="yes"/>
      <point x="987" y="1403"/>
      <point x="977" y="1409"/>
      <point x="958" y="1409" type="curve" smooth="yes"/>
      <point x="876" y="1409"/>
      <point x="784" y="1301"/>
      <point x="647" y="1076" type="curve" smooth="yes"/>
      <point x="85" y="142" type="line" smooth="yes"/>
      <point x="53" y="90"/>
      <point x="14" y="68"/>
      <point x="-27" y="61" type="curve" smooth="yes"/>
      <point x="-56" y="57"/>
      <point x="-73" y="48"/>
      <point x="-73" y="29" type="curve" smooth="yes"/>
      <point x="-73" y="9"/>
      <point x="-59" y="0"/>
      <point x="-27" y="0" type="curve" smooth="yes"/>
      <point x="236" y="0" type="line" smooth="yes"/>
      <point x="259" y="0"/>
      <point x="272" y="9"/>
      <point x="272" y="25" type="curve" smooth="yes"/>
      <point x="272" y="40"/>
      <point x="263" y="52"/>
      <point x="240" y="54" type="curve" smooth="yes"/>
      <point x="168" y="65" type="line" smooth="yes"/>
      <point x="128" y="70"/>
      <point x="124" y="106"/>
    </contour>
    <contour>
      <point x="311" y="501" type="line"/>
      <point x="860" y="501" type="line"/>
      <point x="863" y="546" type="line"/>
      <point x="341" y="546" type="line"/>
    </contour>
  </outline>
</glyph>
<glyph name="C" format="2">
  <advance width="1064"/>
  <unicode hex="0043"/>
  <outline>
    <contour>
      <point x="1019" y="370" type="curve" smooth="yes"/>
      <point x="1003" y="379"/>
      <point x="988" y="367"/>
      <point x="978" y="344" type="curve" smooth="yes"/>
      <point x="865" y="127"/>
      <point x="712" y="21"/>
      <point x="503" y="21" type="curve" smooth="yes"/>
      <point x="261" y="21"/>
      <point x="107" y="257"/>
      <point x="151" y="614" type="curve" smooth="yes"/>
      <point x="197" y="999"/>
      <point x="457" y="1381"/>
      <point x="809" y="1381" type="curve" smooth="yes"/>
      <point x="974" y="1381"/>
      <point x="1064" y="1312"/>
      <point x="1104" y="1182" type="curve" smooth="yes"/>
      <point x="1129" y="1100" type="line" smooth="yes"/>
      <point x="1133" y="1091"/>
      <point x="1140" y="1082"/>
      <point x="1152" y="1082" type="curve" smooth="yes"/>
      <point x="1167" y="1082"/>
      <point x="1180" y="1098"/>
      <point x="1176" y="1115" type="curve" smooth="yes"/>
      <point x="1125" y="1390" type="line" smooth="yes"/>
      <point x="1121" y="1415"/>
      <point x="1116" y="1430"/>
      <point x="1098" y="1430" type="curve" smooth="yes"/>
      <point x="1067" y="1430"/>
      <point x="1058" y="1386"/>
      <point x="1035" y="1386" type="curve" smooth="yes"/>
      <point x="1016" y="1386"/>
      <point x="957" y="1430"/>
      <point x="835" y="1430" type="curve" smooth="yes"/>
      <point x="435" y="1430"/>
      <point x="137" y="1029"/>
      <point x="92" y="623" type="curve" smooth="yes"/>
      <point x="47" y="225"/>
      <point x="207" y="-30"/>
      <point x="497" y="-30" type="curve" smooth="yes"/>
      <point x="737" y="-30"/>
      <point x="916" y="103"/>
      <point x="1016" y="311" type="curve" smooth="yes"/>
      <point x="1028" y="334"/>
      <point x="1032" y="362"/>
    </contour>
  </outline>
</glyph>
<glyph name="E" format="2">
  <advance width="1008"/>
  <unicode hex="0045"/>
  <outline>
    <contour>
      <point x="334" y="708" type="line"/>
      <point x="322" y="663" type="line"/>
      <point x="723" y="663" type="line" smooth="yes"/>
      <point x="775" y="663"/>
      <point x="797" y="647"/>
      <point x="820" y="556" type="curve" smooth="yes"/>
      <point x="828" y="532"/>
      <point x="838" y="523"/>
      <point x="854" y="523" type="curve" smooth="yes"/>
      <point x="865" y="523"/>
      <point x="877" y="536"/>
      <point x="871" y="562" type="curve" smooth="yes"/>
      <point x="810" y="844" type="line" smooth="yes"/>
      <point x="809" y="854"/>
      <point x="802" y="865"/>
      <point x="785" y="865" type="curve" smooth="yes"/>
      <point x="773" y="865"/>
      <point x="764" y="855"/>
      <point x="767" y="836" type="curve" smooth="yes"/>
      <point x="783" y="735"/>
      <point x="762" y="708"/>
      <point x="706" y="708" type="curve" smooth="yes"/>
    </contour>
    <contour>
      <point x="646" y="0" type="line" smooth="yes"/>
      <point x="678" y="0"/>
      <point x="692" y="-30"/>
      <point x="714" y="-30" type="curve" smooth="yes"/>
      <point x="812" y="-30"/>
      <point x="921" y="134"/>
      <point x="921" y="272" type="curve" smooth="yes"/>
      <point x="921" y="285"/>
      <point x="915" y="294"/>
      <point x="906" y="294" type="curve" smooth="yes"/>
      <point x="900" y="294"/>
      <point x="891" y="287"/>
      <point x="888" y="278" type="curve" smooth="yes"/>
      <point x="837" y="106"/>
      <point x="749" y="45"/>
      <point x="621" y="45" type="curve" smooth="yes"/>
      <point x="269" y="45" type="line" smooth="yes"/>
      <point x="228" y="45"/>
      <point x="204" y="78"/>
      <point x="218" y="134" type="curve" smooth="yes"/>
      <point x="237" y="208"/>
      <point x="449" y="1073"/>
      <point x="524" y="1360" type="curve"/>
      <point x="887" y="1360" type="line" smooth="yes"/>
      <point x="948" y="1360"/>
      <point x="995" y="1330"/>
      <point x="1052" y="1193" type="curve" smooth="yes"/>
      <point x="1062" y="1168"/>
      <point x="1072" y="1152"/>
      <point x="1089" y="1152" type="curve" smooth="yes"/>
      <point x="1104" y="1152"/>
      <point x="1116" y="1167"/>
      <point x="1108" y="1197" type="curve" smooth="yes"/>
      <point x="1056" y="1407" type="line" smooth="yes"/>
      <point x="1050" y="1433"/>
      <point x="1044" y="1442"/>
      <point x="1028" y="1442" type="curve" smooth="yes"/>
      <point x="1001" y="1442"/>
      <point x="974" y="1400"/>
      <point x="936" y="1400" type="curve" smooth="yes"/>
      <point x="363" y="1400" type="line" smooth="yes"/>
      <point x="346" y="1400"/>
      <point x="334" y="1394"/>
      <point x="334" y="1378" type="curve" smooth="yes"/>
      <point x="334" y="1367"/>
      <point x="344" y="1356"/>
      <point x="364" y="1352" type="curve" smooth="yes"/>
      <point x="422" y="1342" type="line" smooth="yes"/>
      <point x="452" y="1338"/>
      <point x="459" y="1296"/>
      <point x="450" y="1253" type="curve" smooth="yes"/>
      <point x="415" y="1108"/>
      <point x="184" y="213"/>
      <point x="162" y="137" type="curve" smooth="yes"/>
      <point x="147" y="87"/>
      <point x="118" y="70"/>
      <point x="72" y="62" type="curve" smooth="yes"/>
      <point x="2" y="48" type="line" smooth="yes"/>
      <point x="-18" y="44"/>
      <point x="-30" y="38"/>
      <point x="-30" y="23" type="curve" smooth="yes"/>
      <point x="-30" y="11"/>
      <point x="-22" y="0"/>
      <point x="-5" y="0" type="curve" smooth="yes"/>
    </contour>
  </outline>
</glyph>
<glyph name="G" format="2">
  <advance width="1118"/>
  <unicode hex="0047"/>
  <outline>
    <contour>
      <point x="828" y="1428" type="curve" smooth="yes"/>
      <point x="480" y="1428"/>
      <point x="173" y="1095"/>
      <point x="94" y="671" type="curve" smooth="yes"/>
      <point x="14" y="240"/>
      <point x="189" y="-34"/>
      <point x="490" y="-34" type="curve" smooth="yes"/>
      <point x="694" y="-34"/>
      <point x="781" y="40"/>
      <point x="812" y="40" type="curve" smooth="yes"/>
      <point x="836" y="40"/>
      <point x="802" y="-34"/>
      <point x="834" y="-34" type="curve" smooth="yes"/>
      <point x="855" y="-34"/>
      <point x="868" y="-25"/>
      <point x="877" y="8" type="curve" smooth="yes"/>
      <point x="1007" y="479" type="line" smooth="yes"/>
      <point x="1014" y="502"/>
      <point x="1031" y="522"/>
      <point x="1071" y="528" type="curve" smooth="yes"/>
      <point x="1107" y="534" type="line" smooth="yes"/>
      <point x="1138" y="538"/>
      <point x="1150" y="550"/>
      <point x="1152" y="562" type="curve" smooth="yes"/>
      <point x="1154" y="583"/>
      <point x="1147" y="588"/>
      <point x="1125" y="588" type="curve" smooth="yes"/>
      <point x="835" y="588" type="line" smooth="yes"/>
      <point x="815" y="588"/>
      <point x="802" y="583"/>
      <point x="802" y="565" type="curve" smooth="yes"/>
      <point x="802" y="548"/>
      <point x="811" y="535"/>
      <point x="832" y="533" type="curve" smooth="yes"/>
      <point x="893" y="528" type="line" smooth="yes"/>
      <point x="941" y="523"/>
      <point x="955" y="494"/>
      <point x="938" y="433" type="curve" smooth="yes"/>
      <point x="881" y="217" type="line" smooth="yes"/>
      <point x="845" y="81"/>
      <point x="712" y="17"/>
      <point x="516" y="17" type="curve" smooth="yes"/>
      <point x="253" y="17"/>
      <point x="75" y="249"/>
      <point x="155" y="663" type="curve" smooth="yes"/>
      <point x="235" y="1085"/>
      <point x="504" y="1380"/>
      <point x="828" y="1380" type="curve" smooth="yes"/>
      <point x="964" y="1380"/>
      <point x="1068" y="1332"/>
      <point x="1133" y="1166" type="curve" smooth="yes"/>
      <point x="1155" y="1109" type="line" smooth="yes"/>
      <point x="1158" y="1101"/>
      <point x="1169" y="1083"/>
      <point x="1180" y="1083" type="curve" smooth="yes"/>
      <point x="1194" y="1083"/>
      <point x="1208" y="1092"/>
      <point x="1204" y="1114" type="curve" smooth="yes"/>
      <point x="1158" y="1379" type="line" smooth="yes"/>
      <point x="1152" y="1413"/>
      <point x="1141" y="1426"/>
      <point x="1121" y="1426" type="curve" smooth="yes"/>
      <point x="1100" y="1426"/>
      <point x="1087" y="1385"/>
      <point x="1057" y="1385" type="curve" smooth="yes"/>
      <point x="1034" y="1385"/>
      <point x="934" y="1428"/>
    </contour>
  </outline>
</glyph>
<glyph name="I" format="2">
  <advance width="553"/>
  <unicode hex="0049"/>
  <outline>
    <contour>
      <point x="254" y="155" type="curve" smooth="yes"/>
      <point x="268" y="232"/>
      <point x="486" y="1106"/>
      <point x="533" y="1269" type="curve" smooth="yes"/>
      <point x="545" y="1310"/>
      <point x="571" y="1333"/>
      <point x="622" y="1343" type="curve" smooth="yes"/>
      <point x="679" y="1354" type="line" smooth="yes"/>
      <point x="715" y="1362"/>
      <point x="726" y="1369"/>
      <point x="726" y="1385" type="curve" smooth="yes"/>
      <point x="726" y="1398"/>
      <point x="718" y="1400"/>
      <point x="695" y="1400" type="curve" smooth="yes"/>
      <point x="387" y="1400" type="line" smooth="yes"/>
      <point x="349" y="1400"/>
      <point x="330" y="1398"/>
      <point x="330" y="1384" type="curve" smooth="yes"/>
      <point x="330" y="1365"/>
      <point x="338" y="1357"/>
      <point x="368" y="1352" type="curve" smooth="yes"/>
      <point x="417" y="1342" type="line" smooth="yes"/>
      <point x="464" y="1333"/>
      <point x="469" y="1304"/>
      <point x="458" y="1245" type="curve" smooth="yes"/>
      <point x="432" y="1105"/>
      <point x="213" y="237"/>
      <point x="186" y="154" type="curve" smooth="yes"/>
      <point x="169" y="100"/>
      <point x="136" y="61"/>
      <point x="84" y="53" type="curve" smooth="yes"/>
      <point x="29" y="46" type="line" smooth="yes"/>
      <point x="0" y="42"/>
      <point x="-11" y="31"/>
      <point x="-9" y="19" type="curve" smooth="yes"/>
      <point x="-9" y="5"/>
      <point x="-1" y="0"/>
      <point x="23" y="0" type="curve" smooth="yes"/>
      <point x="338" y="0" type="line" smooth="yes"/>
      <point x="358" y="0"/>
      <point x="378" y="4"/>
      <point x="378" y="16" type="curve" smooth="yes"/>
      <point x="378" y="33"/>
      <point x="369" y="43"/>
      <point x="341" y="48" type="curve" smooth="yes"/>
      <point x="298" y="56" type="line" smooth="yes"/>
      <point x="251" y="63"/>
      <point x="243" y="92"/>
    </contour>
  </outline>
</glyph>
<glyph name="J" format="2">
  <advance width="501"/>
  <unicode hex="004A"/>
  <outline>
    <contour>
      <point x="490" y="1252" type="curve" smooth="yes"/>
      <point x="506" y="1306"/>
      <point x="529" y="1327"/>
      <point x="582" y="1341" type="curve" smooth="yes"/>
      <point x="635" y="1356" type="line" smooth="yes"/>
      <point x="656" y="1362"/>
      <point x="669" y="1369"/>
      <point x="669" y="1385" type="curve" smooth="yes"/>
      <point x="669" y="1396"/>
      <point x="662" y="1400"/>
      <point x="641" y="1400" type="curve" smooth="yes"/>
      <point x="325" y="1400" type="line" smooth="yes"/>
      <point x="292" y="1400"/>
      <point x="280" y="1395"/>
      <point x="280" y="1381" type="curve" smooth="yes"/>
      <point x="280" y="1365"/>
      <point x="290" y="1355"/>
      <point x="315" y="1352" type="curve" smooth="yes"/>
      <point x="380" y="1343" type="line" smooth="yes"/>
      <point x="430" y="1337"/>
      <point x="440" y="1317"/>
      <point x="431" y="1258" type="curve" smooth="yes"/>
      <point x="419" y="1165"/>
      <point x="152" y="148"/>
      <point x="150" y="138" type="curve" smooth="yes"/>
      <point x="124" y="41"/>
      <point x="106" y="-20"/>
      <point x="106" y="-74" type="curve" smooth="yes"/>
      <point x="106" y="-199"/>
      <point x="58" y="-239"/>
      <point x="11" y="-239" type="curve" smooth="yes"/>
      <point x="-25" y="-239"/>
      <point x="-54" y="-201"/>
      <point x="-98" y="-201" type="curve" smooth="yes"/>
      <point x="-137" y="-201"/>
      <point x="-156" y="-225"/>
      <point x="-156" y="-254" type="curve" smooth="yes"/>
      <point x="-156" y="-294"/>
      <point x="-125" y="-325"/>
      <point x="-55" y="-325" type="curve" smooth="yes"/>
      <point x="47" y="-325"/>
      <point x="121" y="-262"/>
      <point x="154" y="-107" type="curve" smooth="yes"/>
      <point x="218" y="181"/>
      <point x="470" y="1188"/>
    </contour>
  </outline>
</glyph>
<glyph name="L" format="2">
  <advance width="826"/>
  <unicode hex="004C"/>
  <outline>
    <contour>
      <point x="525" y="0" type="line" smooth="yes"/>
      <point x="562" y="0"/>
      <point x="582" y="-26"/>
      <point x="610" y="-26" type="curve" smooth="yes"/>
      <point x="696" y="-26"/>
      <point x="821" y="135"/>
      <point x="821" y="295" type="curve" smooth="yes"/>
      <point x="821" y="308"/>
      <point x="815" y="315"/>
      <point x="803" y="315" type="curve" smooth="yes"/>
      <point x="786" y="315"/>
      <point x="779" y="298"/>
      <point x="777" y="283" type="curve" smooth="yes"/>
      <point x="736" y="104"/>
      <point x="659" y="49"/>
      <point x="530" y="49" type="curve" smooth="yes"/>
      <point x="262" y="49" type="line" smooth="yes"/>
      <point x="227" y="49"/>
      <point x="205" y="68"/>
      <point x="216" y="120" type="curve" smooth="yes"/>
      <point x="247" y="276"/>
      <point x="470" y="1125"/>
      <point x="505" y="1248" type="curve" smooth="yes"/>
      <point x="521" y="1303"/>
      <point x="542" y="1336"/>
      <point x="586" y="1341" type="curve" smooth="yes"/>
      <point x="658" y="1351" type="line" smooth="yes"/>
      <point x="682" y="1354"/>
      <point x="700" y="1363"/>
      <point x="700" y="1379" type="curve" smooth="yes"/>
      <point x="700" y="1393"/>
      <point x="688" y="1400"/>
      <point x="669" y="1400" type="curve" smooth="yes"/>
      <point x="345" y="1400" type="line" smooth="yes"/>
      <point x="323" y="1400"/>
      <point x="310" y="1395"/>
      <point x="310" y="1384" type="curve" smooth="yes"/>
      <point x="310" y="1364"/>
      <point x="323" y="1359"/>
      <point x="347" y="1353" type="curve" smooth="yes"/>
      <point x="414" y="1337" type="line" smooth="yes"/>
      <point x="441" y="1331"/>
      <point x="452" y="1305"/>
      <point x="445" y="1274" type="curve" smooth="yes"/>
      <point x="414" y="1122"/>
      <point x="227" y="377"/>
      <point x="173" y="174" type="curve" smooth="yes"/>
      <point x="154" y="105"/>
      <point x="124" y="67"/>
      <point x="71" y="57" type="curve" smooth="yes"/>
      <point x="21" y="49" type="line" smooth="yes"/>
      <point x="-6" y="44"/>
      <point x="-23" y="39"/>
      <point x="-24" y="23" type="curve" smooth="yes"/>
      <point x="-30" y="9"/>
      <point x="-16" y="0"/>
      <point x="6" y="0" type="curve" smooth="yes"/>
    </contour>
  </outline>
</glyph>
<glyph name="M" format="2">
  <advance width="1404"/>
  <unicode hex="004D"/>
  <outline>
    <contour>
      <point x="710" y="284" type="line"/>
      <point x="643" y="618"/>
      <point x="597" y="958"/>
      <point x="538" y="1310" type="curve" smooth="yes"/>
      <point x="530" y="1369"/>
      <point x="507" y="1400"/>
      <point x="478" y="1400" type="curve" smooth="yes"/>
      <point x="371" y="1400" type="line" smooth="yes"/>
      <point x="351" y="1400"/>
      <point x="339" y="1395"/>
      <point x="335" y="1384" type="curve" smooth="yes"/>
      <point x="332" y="1365"/>
      <point x="343" y="1356"/>
      <point x="359" y="1352" type="curve" smooth="yes"/>
      <point x="430" y="1332" type="line" smooth="yes"/>
      <point x="467" y="1322"/>
      <point x="479" y="1269"/>
      <point x="465" y="1214" type="curve" smooth="yes"/>
      <point x="164" y="156" type="line" smooth="yes"/>
      <point x="152" y="119"/>
      <point x="131" y="88"/>
      <point x="79" y="76" type="curve" smooth="yes"/>
      <point x="18" y="62" type="line" smooth="yes"/>
      <point x="-15" y="55"/>
      <point x="-26" y="50"/>
      <point x="-29" y="29" type="curve" smooth="yes"/>
      <point x="-34" y="13"/>
      <point x="-21" y="0"/>
      <point x="4" y="0" type="curve" smooth="yes"/>
      <point x="295" y="0" type="line" smooth="yes"/>
      <point x="322" y="0"/>
      <point x="341" y="6"/>
      <point x="346" y="24" type="curve" smooth="yes"/>
      <point x="350" y="37"/>
      <point x="339" y="47"/>
      <point x="323" y="52" type="curve" smooth="yes"/>
      <point x="243" y="76" type="line" smooth="yes"/>
      <point x="210" y="86"/>
      <point x="205" y="114"/>
      <point x="217" y="156" type="curve" smooth="yes"/>
      <point x="534" y="1266" type="line"/>
      <point x="480" y="1256" type="line"/>
      <point x="540" y="967"/>
      <point x="585" y="629"/>
      <point x="652" y="230" type="curve" smooth="yes"/>
      <point x="656" y="218"/>
      <point x="663" y="199"/>
      <point x="678" y="199" type="curve" smooth="yes"/>
      <point x="696" y="199"/>
      <point x="708" y="213"/>
      <point x="733" y="254" type="curve" smooth="yes"/>
      <point x="1327" y="1256" type="line"/>
      <point x="1297" y="1275" type="line"/>
      <point x="1262" y="1016"/>
      <point x="1136" y="299"/>
      <point x="1107" y="140" type="curve" smooth="yes"/>
      <point x="1101" y="95"/>
      <point x="1066" y="73"/>
      <point x="1027" y="64" type="curve" smooth="yes"/>
      <point x="963" y="48" type="line" smooth="yes"/>
      <point x="947" y="44"/>
      <point x="932" y="44"/>
      <point x="929" y="27" type="curve" smooth="yes"/>
      <point x="927" y="13"/>
      <point x="934" y="0"/>
      <point x="957" y="0" type="curve" smooth="yes"/>
      <point x="1263" y="0" type="line" smooth="yes"/>
      <point x="1284" y="0"/>
      <point x="1295" y="2"/>
      <point x="1299" y="18" type="curve" smooth="yes"/>
      <point x="1302" y="37"/>
      <point x="1291" y="43"/>
      <point x="1273" y="48" type="curve" smooth="yes"/>
      <point x="1213" y="66" type="line" smooth="yes"/>
      <point x="1176" y="78"/>
      <point x="1164" y="97"/>
      <point x="1171" y="143" type="curve" smooth="yes"/>
      <point x="1195" y="304"/>
      <point x="1317" y="1007"/>
      <point x="1357" y="1259" type="curve" smooth="yes"/>
      <point x="1365" y="1307"/>
      <point x="1391" y="1338"/>
      <point x="1428" y="1343" type="curve" smooth="yes"/>
      <point x="1471" y="1348" type="line" smooth="yes"/>
      <point x="1493" y="1350"/>
      <point x="1510" y="1352"/>
      <point x="1514" y="1379" type="curve" smooth="yes"/>
      <point x="1515" y="1391"/>
      <point x="1510" y="1400"/>
      <point x="1487" y="1400" type="curve" smooth="yes"/>
      <point x="1404" y="1400" type="line" smooth="yes"/>
      <point x="1379" y="1400"/>
      <point x="1346" y="1381"/>
      <point x="1324" y="1343" type="curve" smooth="yes"/>
      <point x="706" y="290" type="line"/>
    </contour>
  </outline>
</glyph>
<glyph name="O" format="2">
  <advance width="1328"/>
  <unicode hex="004F"/>
  <outline>
    <contour>
      <point x="914" y="1426" type="curve" smooth="yes"/>
      <point x="610" y="1456"/>
      <point x="270" y="1188"/>
      <point x="153" y="796" type="curve" smooth="yes"/>
      <point x="20" y="342"/>
      <point x="207" y="1"/>
      <point x="507" y="-28" type="curve" smooth="yes"/>
      <point x="871" y="-63"/>
      <point x="1188" y="197"/>
      <point x="1298" y="652" type="curve" smooth="yes"/>
      <point x="1403" y="1084"/>
      <point x="1209" y="1397"/>
    </contour>
    <contour>
      <point x="537" y="25" type="curve" smooth="yes"/>
      <point x="267" y="50"/>
      <point x="90" y="301"/>
      <point x="208" y="781" type="curve" smooth="yes"/>
      <point x="298" y="1148"/>
      <point x="611" y="1399"/>
      <point x="889" y="1372" type="curve" smooth="yes"/>
      <point x="1150" y="1346"/>
      <point x="1352" y="1080"/>
      <point x="1243" y="666" type="curve" smooth="yes"/>
      <point x="1123" y="211"/>
      <point x="828" y="0"/>
    </contour>
  </outline>
</glyph>
<glyph name="P" format="2">
  <advance width="1083"/>
  <unicode hex="0050"/>
  <outline>
    <contour>
      <point x="1131" y="876" type="curve" smooth="yes"/>
      <point x="1180" y="1140"/>
      <point x="1009" y="1400"/>
      <point x="695" y="1400" type="curve" smooth="yes"/>
      <point x="374" y="1400" type="line" smooth="yes"/>
      <point x="349" y="1400"/>
      <point x="335" y="1396"/>
      <point x="335" y="1380" type="curve" smooth="yes"/>
      <point x="335" y="1363"/>
      <point x="346" y="1355"/>
      <point x="367" y="1352" type="curve" smooth="yes"/>
      <point x="425" y="1340" type="line" smooth="yes"/>
      <point x="456" y="1334"/>
      <point x="469" y="1303"/>
      <point x="463" y="1267" type="curve" smooth="yes"/>
      <point x="427" y="1081"/>
      <point x="236" y="321"/>
      <point x="185" y="150" type="curve" smooth="yes"/>
      <point x="165" y="83"/>
      <point x="136" y="57"/>
      <point x="79" y="51" type="curve" smooth="yes"/>
      <point x="41" y="48" type="line" smooth="yes"/>
      <point x="9" y="45"/>
      <point x="-6" y="36"/>
      <point x="-6" y="20" type="curve" smooth="yes"/>
      <point x="-6" y="5"/>
      <point x="5" y="0"/>
      <point x="22" y="0" type="curve" smooth="yes"/>
      <point x="349" y="0" type="line" smooth="yes"/>
      <point x="369" y="0"/>
      <point x="381" y="11"/>
      <point x="381" y="22" type="curve" smooth="yes"/>
      <point x="381" y="33"/>
      <point x="371" y="43"/>
      <point x="345" y="48" type="curve" smooth="yes"/>
      <point x="293" y="58" type="line" smooth="yes"/>
      <point x="262" y="64"/>
      <point x="246" y="94"/>
      <point x="259" y="160" type="curve" smooth="yes"/>
      <point x="289" y="308"/>
      <point x="517" y="1203"/>
      <point x="530" y="1253" type="curve" smooth="yes"/>
      <point x="550" y="1329"/>
      <point x="591" y="1357"/>
      <point x="678" y="1357" type="curve" smooth="yes"/>
      <point x="955" y="1357"/>
      <point x="1096" y="1155"/>
      <point x="1059" y="887" type="curve" smooth="yes"/>
      <point x="1024" y="635"/>
      <point x="866" y="518"/>
      <point x="631" y="518" type="curve" smooth="yes"/>
      <point x="531" y="518"/>
      <point x="422" y="555"/>
      <point x="355" y="605" type="curve"/>
      <point x="327" y="559" type="line"/>
      <point x="405" y="512"/>
      <point x="490" y="469"/>
      <point x="647" y="469" type="curve" smooth="yes"/>
      <point x="903" y="469"/>
      <point x="1087" y="626"/>
    </contour>
  </outline>
</glyph>
<glyph name="R" format="2">
  <advance width="1132"/>
  <unicode hex="0052"/>
  <outline>
    <contour>
      <point x="336" y="612" type="line"/>
      <point x="406" y="566"/>
      <point x="505" y="533"/>
      <point x="615" y="536" type="curve" smooth="yes"/>
      <point x="875" y="542"/>
      <point x="1061" y="680"/>
      <point x="1103" y="910" type="curve" smooth="yes"/>
      <point x="1158" y="1205"/>
      <point x="981" y="1400"/>
      <point x="726" y="1400" type="curve" smooth="yes"/>
      <point x="367" y="1400" type="line" smooth="yes"/>
      <point x="344" y="1400"/>
      <point x="332" y="1394"/>
      <point x="332" y="1380" type="curve" smooth="yes"/>
      <point x="332" y="1367"/>
      <point x="336" y="1357"/>
      <point x="364" y="1352" type="curve" smooth="yes"/>
      <point x="417" y="1342" type="line" smooth="yes"/>
      <point x="458" y="1335"/>
      <point x="467" y="1311"/>
      <point x="461" y="1264" type="curve" smooth="yes"/>
      <point x="440" y="1142"/>
      <point x="219" y="262"/>
      <point x="184" y="150" type="curve" smooth="yes"/>
      <point x="163" y="83"/>
      <point x="127" y="57"/>
      <point x="75" y="51" type="curve" smooth="yes"/>
      <point x="35" y="48" type="line" smooth="yes"/>
      <point x="1" y="44"/>
      <point x="-9" y="35"/>
      <point x="-9" y="19" type="curve" smooth="yes"/>
      <point x="-9" y="7"/>
      <point x="-1" y="0"/>
      <point x="15" y="0" type="curve" smooth="yes"/>
      <point x="341" y="0" type="line" smooth="yes"/>
      <point x="362" y="0"/>
      <point x="378" y="7"/>
      <point x="378" y="20" type="curve" smooth="yes"/>
      <point x="378" y="35"/>
      <point x="368" y="43"/>
      <point x="342" y="48" type="curve" smooth="yes"/>
      <point x="289" y="57" type="line" smooth="yes"/>
      <point x="261" y="63"/>
      <point x="242" y="94"/>
      <point x="253" y="145" type="curve" smooth="yes"/>
      <point x="276" y="253"/>
      <point x="499" y="1131"/>
      <point x="528" y="1254" type="curve" smooth="yes"/>
      <point x="546" y="1326"/>
      <point x="579" y="1356"/>
      <point x="702" y="1356" type="curve" smooth="yes"/>
      <point x="934" y="1356"/>
      <point x="1093" y="1190"/>
      <point x="1035" y="911" type="curve" smooth="yes"/>
      <point x="992" y="703"/>
      <point x="837" y="587"/>
      <point x="597" y="587" type="curve" smooth="yes"/>
      <point x="496" y="587"/>
      <point x="412" y="626"/>
      <point x="363" y="658" type="curve"/>
    </contour>
    <contour>
      <point x="642" y="560" type="line"/>
      <point x="754" y="158" type="line" smooth="yes"/>
      <point x="793" y="15"/>
      <point x="845" y="-18"/>
      <point x="900" y="-18" type="curve" smooth="yes"/>
      <point x="957" y="-18"/>
      <point x="993" y="6"/>
      <point x="1012" y="44" type="curve" smooth="yes"/>
      <point x="1022" y="60"/>
      <point x="1017" y="81"/>
      <point x="1007" y="87" type="curve" smooth="yes"/>
      <point x="995" y="94"/>
      <point x="980" y="88"/>
      <point x="971" y="72" type="curve" smooth="yes"/>
      <point x="959" y="48"/>
      <point x="941" y="40"/>
      <point x="916" y="40" type="curve" smooth="yes"/>
      <point x="882" y="40"/>
      <point x="854" y="55"/>
      <point x="823" y="161" type="curve" smooth="yes"/>
      <point x="705" y="565" type="line"/>
    </contour>
  </outline>
</glyph>
<glyph name="T" format="2">
  <advance width="905"/>
  <unicode hex="0054"/>
  <outline>
    <contour>
      <point x="453" y="1415" type="curve" smooth="yes"/>
      <point x="278" y="1415"/>
      <point x="193" y="1330"/>
      <point x="193" y="1202" type="curve" smooth="yes"/>
      <point x="193" y="1157"/>
      <point x="214" y="1131"/>
      <point x="247" y="1131" type="curve" smooth="yes"/>
      <point x="278" y="1131"/>
      <point x="297" y="1156"/>
      <point x="297" y="1178" type="curve" smooth="yes"/>
      <point x="297" y="1214"/>
      <point x="268" y="1242"/>
      <point x="268" y="1266" type="curve" smooth="yes"/>
      <point x="268" y="1327"/>
      <point x="311" y="1367"/>
      <point x="458" y="1367" type="curve" smooth="yes"/>
      <point x="611" y="1367"/>
      <point x="892" y="1288"/>
      <point x="1016" y="1288" type="curve" smooth="yes"/>
      <point x="1122" y="1288"/>
      <point x="1187" y="1346"/>
      <point x="1187" y="1421" type="curve" smooth="yes"/>
      <point x="1187" y="1463"/>
      <point x="1169" y="1482"/>
      <point x="1144" y="1482" type="curve" smooth="yes"/>
      <point x="1116" y="1482"/>
      <point x="1101" y="1464"/>
      <point x="1095" y="1439" type="curve" smooth="yes"/>
      <point x="1092" y="1429"/>
      <point x="1091" y="1412"/>
      <point x="1080" y="1388" type="curve" smooth="yes"/>
      <point x="1069" y="1362"/>
      <point x="1042" y="1345"/>
      <point x="988" y="1345" type="curve" smooth="yes"/>
      <point x="896" y="1345"/>
      <point x="598" y="1415"/>
    </contour>
    <contour>
      <point x="413" y="104" type="curve" smooth="yes"/>
      <point x="443" y="237"/>
      <point x="683" y="1191"/>
      <point x="731" y="1369" type="curve"/>
      <point x="673" y="1381" type="line"/>
      <point x="624" y="1198"/>
      <point x="392" y="265"/>
      <point x="351" y="123" type="curve" smooth="yes"/>
      <point x="341" y="80"/>
      <point x="319" y="70"/>
      <point x="275" y="62" type="curve" smooth="yes"/>
      <point x="205" y="50" type="line" smooth="yes"/>
      <point x="175" y="45"/>
      <point x="159" y="40"/>
      <point x="158" y="23" type="curve" smooth="yes"/>
      <point x="156" y="11"/>
      <point x="166" y="0"/>
      <point x="187" y="0" type="curve" smooth="yes"/>
      <point x="513" y="0" type="line" smooth="yes"/>
      <point x="540" y="0"/>
      <point x="554" y="5"/>
      <point x="559" y="18" type="curve" smooth="yes"/>
      <point x="565" y="36"/>
      <point x="552" y="43"/>
      <point x="534" y="46" type="curve" smooth="yes"/>
      <point x="457" y="60" type="line" smooth="yes"/>
      <point x="423" y="65"/>
      <point x="408" y="77"/>
    </contour>
  </outline>
</glyph>
<glyph name="W" format="2">
  <advance width="1644"/>
  <unicode hex="0057"/>
  <outline>
    <contour>
      <point x="967" y="1070" type="line"/>
      <point x="377" y="108" type="line"/>
      <point x="401" y="114" type="line"/>
      <point x="398" y="300"/>
      <point x="381" y="1083"/>
      <point x="384" y="1256" type="curve" smooth="yes"/>
      <point x="385" y="1318"/>
      <point x="402" y="1333"/>
      <point x="447" y="1339" type="curve" smooth="yes"/>
      <point x="508" y="1349" type="line" smooth="yes"/>
      <point x="540" y="1353"/>
      <point x="554" y="1364"/>
      <point x="554" y="1380" type="curve" smooth="yes"/>
      <point x="554" y="1396"/>
      <point x="545" y="1400"/>
      <point x="529" y="1400" type="curve" smooth="yes"/>
      <point x="224" y="1400" type="line" smooth="yes"/>
      <point x="209" y="1400"/>
      <point x="197" y="1393"/>
      <point x="197" y="1376" type="curve" smooth="yes"/>
      <point x="197" y="1364"/>
      <point x="210" y="1353"/>
      <point x="242" y="1349" type="curve" smooth="yes"/>
      <point x="263" y="1346" type="line" smooth="yes"/>
      <point x="298" y="1342"/>
      <point x="314" y="1316"/>
      <point x="315" y="1264" type="curve" smooth="yes"/>
      <point x="317" y="1116"/>
      <point x="338" y="285"/>
      <point x="335" y="178" type="curve" smooth="yes"/>
      <point x="334" y="137"/>
      <point x="335" y="118"/>
      <point x="323" y="87" type="curve" smooth="yes"/>
      <point x="311" y="57" type="line" smooth="yes"/>
      <point x="297" y="22"/>
      <point x="307" y="0"/>
      <point x="336" y="0" type="curve" smooth="yes"/>
      <point x="361" y="0" type="line" smooth="yes"/>
      <point x="385" y="0"/>
      <point x="404" y="17"/>
      <point x="412" y="48" type="curve" smooth="yes"/>
      <point x="421" y="77" type="line" smooth="yes"/>
      <point x="429" y="105"/>
      <point x="444" y="124"/>
      <point x="471" y="168" type="curve" smooth="yes"/>
      <point x="963" y="980" type="line"/>
    </contour>
    <contour>
      <point x="1529" y="1380" type="curve" smooth="yes"/>
      <point x="1529" y="1364"/>
      <point x="1540" y="1354"/>
      <point x="1567" y="1349" type="curve" smooth="yes"/>
      <point x="1630" y="1334" type="line" smooth="yes"/>
      <point x="1665" y="1326"/>
      <point x="1682" y="1290"/>
      <point x="1652" y="1236" type="curve" smooth="yes"/>
      <point x="1039" y="103" type="line"/>
      <point x="1063" y="119" type="line"/>
      <point x="1057" y="316"/>
      <point x="1015" y="1087"/>
      <point x="1009" y="1253" type="curve" smooth="yes"/>
      <point x="1006" y="1312"/>
      <point x="1018" y="1332"/>
      <point x="1065" y="1339" type="curve" smooth="yes"/>
      <point x="1147" y="1353" type="line" smooth="yes"/>
      <point x="1160" y="1354"/>
      <point x="1176" y="1363"/>
      <point x="1176" y="1382" type="curve" smooth="yes"/>
      <point x="1176" y="1396"/>
      <point x="1169" y="1400"/>
      <point x="1150" y="1400" type="curve" smooth="yes"/>
      <point x="854" y="1400" type="line" smooth="yes"/>
      <point x="832" y="1400"/>
      <point x="820" y="1390"/>
      <point x="820" y="1379" type="curve" smooth="yes"/>
      <point x="820" y="1364"/>
      <point x="832" y="1353"/>
      <point x="848" y="1352" type="curve" smooth="yes"/>
      <point x="880" y="1347" type="line" smooth="yes"/>
      <point x="919" y="1342"/>
      <point x="935" y="1313"/>
      <point x="941" y="1246" type="curve" smooth="yes"/>
      <point x="955" y="1072"/>
      <point x="994" y="328"/>
      <point x="995" y="186" type="curve" smooth="yes"/>
      <point x="995" y="154"/>
      <point x="998" y="135"/>
      <point x="985" y="100" type="curve" smooth="yes"/>
      <point x="970" y="56" type="line" smooth="yes"/>
      <point x="957" y="19"/>
      <point x="969" y="0"/>
      <point x="994" y="0" type="curve" smooth="yes"/>
      <point x="1024" y="0" type="line" smooth="yes"/>
      <point x="1044" y="0"/>
      <point x="1061" y="14"/>
      <point x="1070" y="42" type="curve" smooth="yes"/>
      <point x="1082" y="82" type="line" smooth="yes"/>
      <point x="1090" y="108"/>
      <point x="1109" y="130"/>
      <point x="1123" y="155" type="curve" smooth="yes"/>
      <point x="1699" y="1217" type="line" smooth="yes"/>
      <point x="1747" y="1306"/>
      <point x="1779" y="1336"/>
      <point x="1818" y="1346" type="curve" smooth="yes"/>
      <point x="1847" y="1353" type="line" smooth="yes"/>
      <point x="1874" y="1361"/>
      <point x="1887" y="1371"/>
      <point x="1887" y="1383" type="curve" smooth="yes"/>
      <point x="1887" y="1395"/>
      <point x="1880" y="1400"/>
      <point x="1858" y="1400" type="curve" smooth="yes"/>
      <point x="1561" y="1400" type="line" smooth="yes"/>
      <point x="1543" y="1400"/>
      <point x="1529" y="1391"/>
    </contour>
  </outline>
</glyph>
<glyph name="X" format="2">
  <advance width="1021"/>
  <unicode hex="0058"/>
  <outline>
    <contour>
      <point x="553" y="714" type="line"/>
      <point x="191" y="218" type="line" smooth="yes"/>
      <point x="94" y="88"/>
      <point x="44" y="57"/>
      <point x="-49" y="37" type="curve" smooth="yes"/>
      <point x="-69" y="33"/>
      <point x="-75" y="27"/>
      <point x="-75" y="18" type="curve" smooth="yes"/>
      <point x="-75" y="8"/>
      <point x="-65" y="0"/>
      <point x="-51" y="0" type="curve" smooth="yes"/>
      <point x="237" y="0" type="line" smooth="yes"/>
      <point x="257" y="0"/>
      <point x="271" y="10"/>
      <point x="271" y="25" type="curve" smooth="yes"/>
      <point x="271" y="36"/>
      <point x="263" y="41"/>
      <point x="241" y="45" type="curve" smooth="yes"/>
      <point x="205" y="53" type="line" smooth="yes"/>
      <point x="169" y="62"/>
      <point x="166" y="109"/>
      <point x="211" y="171" type="curve" smooth="yes"/>
      <point x="566" y="660" type="line"/>
    </contour>
    <contour>
      <point x="424" y="1265" type="curve" smooth="yes"/>
      <point x="413" y="1304"/>
      <point x="425" y="1338"/>
      <point x="452" y="1343" type="curve" smooth="yes"/>
      <point x="510" y="1355" type="line" smooth="yes"/>
      <point x="534" y="1359"/>
      <point x="548" y="1367"/>
      <point x="548" y="1380" type="curve" smooth="yes"/>
      <point x="549" y="1393"/>
      <point x="538" y="1400"/>
      <point x="514" y="1400" type="curve" smooth="yes"/>
      <point x="281" y="1400" type="line" smooth="yes"/>
      <point x="262" y="1400"/>
      <point x="246" y="1393"/>
      <point x="245" y="1380" type="curve" smooth="yes"/>
      <point x="245" y="1366"/>
      <point x="254" y="1356"/>
      <point x="281" y="1353" type="curve" smooth="yes"/>
      <point x="324" y="1348"/>
      <point x="342" y="1324"/>
      <point x="363" y="1263" type="curve" smooth="yes"/>
      <point x="416" y="1115"/>
      <point x="682" y="285"/>
      <point x="735" y="123" type="curve" smooth="yes"/>
      <point x="749" y="80"/>
      <point x="732" y="55"/>
      <point x="701" y="51" type="curve" smooth="yes"/>
      <point x="660" y="44" type="line" smooth="yes"/>
      <point x="635" y="40"/>
      <point x="623" y="30"/>
      <point x="622" y="17" type="curve" smooth="yes"/>
      <point x="622" y="7"/>
      <point x="631" y="0"/>
      <point x="655" y="0" type="curve" smooth="yes"/>
      <point x="886" y="0" type="line" smooth="yes"/>
      <point x="908" y="0"/>
      <point x="925" y="11"/>
      <point x="926" y="23" type="curve" smooth="yes"/>
      <point x="926" y="34"/>
      <point x="919" y="40"/>
      <point x="893" y="44" type="curve" smooth="yes"/>
      <point x="841" y="53"/>
      <point x="805" y="75"/>
      <point x="789" y="121" type="curve" smooth="yes"/>
      <point x="723" y="313"/>
      <point x="459" y="1143"/>
    </contour>
    <contour>
      <point x="593" y="674" type="line"/>
      <point x="927" y="1157" type="line" smooth="yes"/>
      <point x="991" y="1251"/>
      <point x="1029" y="1297"/>
      <point x="1080" y="1318" type="curve" smooth="yes"/>
      <point x="1125" y="1337"/>
      <point x="1152" y="1336"/>
      <point x="1185" y="1336" type="curve" smooth="yes"/>
      <point x="1223" y="1336"/>
      <point x="1246" y="1350"/>
      <point x="1246" y="1376" type="curve" smooth="yes"/>
      <point x="1246" y="1400"/>
      <point x="1224" y="1423"/>
      <point x="1185" y="1423" type="curve" smooth="yes"/>
      <point x="1094" y="1423"/>
      <point x="1015" y="1369"/>
      <point x="883" y="1175" type="curve" smooth="yes"/>
      <point x="577" y="723" type="line"/>
    </contour>
  </outline>
</glyph>
<glyph name="Z" format="2">
  <advance width="983"/>
  <unicode hex="005A"/>
  <anchor x="847" y="1504" name="center"/>
  <outline>
    <contour>
      <point x="628" y="0" type="line" smooth="yes"/>
      <point x="653" y="0"/>
      <point x="679" y="-26"/>
      <point x="703" y="-26" type="curve" smooth="yes"/>
      <point x="787" y="-26"/>
      <point x="907" y="120"/>
      <point x="907" y="271" type="curve" smooth="yes"/>
      <point x="907" y="283"/>
      <point x="901" y="292"/>
      <point x="890" y="292" type="curve" smooth="yes"/>
      <point x="877" y="292"/>
      <point x="870" y="281"/>
      <point x="864" y="264" type="curve" smooth="yes"/>
      <point x="813" y="106"/>
      <point x="723" y="46"/>
      <point x="611" y="46" type="curve" smooth="yes"/>
      <point x="57" y="46" type="line"/>
      <point x="69" y="30" type="line"/>
      <point x="259" y="277"/>
      <point x="992" y="1189"/>
      <point x="1115" y="1339" type="curve" smooth="yes"/>
      <point x="1132" y="1359"/>
      <point x="1141" y="1370"/>
      <point x="1141" y="1378" type="curve" smooth="yes"/>
      <point x="1141" y="1390"/>
      <point x="1134" y="1399"/>
      <point x="1109" y="1399" type="curve" smooth="yes"/>
      <point x="594" y="1399" type="line" smooth="yes"/>
      <point x="536" y="1399"/>
      <point x="529" y="1429"/>
      <point x="486" y="1429" type="curve" smooth="yes"/>
      <point x="471" y="1429"/>
      <point x="454" y="1414"/>
      <point x="437" y="1390" type="curve" smooth="yes"/>
      <point x="320" y="1225" type="line" smooth="yes"/>
      <point x="296" y="1192"/>
      <point x="295" y="1174"/>
      <point x="311" y="1168" type="curve" smooth="yes"/>
      <point x="325" y="1162"/>
      <point x="347" y="1175"/>
      <point x="365" y="1196" type="curve" smooth="yes"/>
      <point x="458" y="1316"/>
      <point x="519" y="1354"/>
      <point x="571" y="1354" type="curve" smooth="yes"/>
      <point x="1075" y="1354" type="line"/>
      <point x="1058" y="1368" type="line"/>
      <point x="875" y="1128"/>
      <point x="191" y="277"/>
      <point x="5" y="64" type="curve" smooth="yes"/>
      <point x="-11" y="47"/>
      <point x="-17" y="38"/>
      <point x="-17" y="20" type="curve" smooth="yes"/>
      <point x="-17" y="7"/>
      <point x="-6" y="0"/>
      <point x="18" y="0" type="curve" smooth="yes"/>
    </contour>
  </outline>
</glyph>
<glyph name="bracketleft" format="2">
  <advance width="538"/>
  <unicode hex="005B"/>
  <outline>
    <contour>
      <point x="481" y="1278" type="line" smooth="yes"/>
      <point x="486" y="1295"/>
      <point x="496" y="1305"/>
      <point x="513" y="1305" type="curve" smooth="yes"/>
      <point x="728" y="1305" type="line" smooth="yes"/>
      <point x="745" y="1305"/>
      <point x="759" y="1314"/>
      <point x="764" y="1333" type="curve" smooth="yes"/>
      <point x="769" y="1352"/>
      <point x="760" y="1362"/>
      <point x="743" y="1362" type="curve" smooth="yes"/>
      <point x="474" y="1362" type="line" smooth="yes"/>
      <point x="446" y="1362"/>
      <point x="428" y="1347"/>
      <point x="421" y="1317" type="curve" smooth="yes"/>
      <point x="48" y="-191" type="line" smooth="yes"/>
      <point x="41" y="-221"/>
      <point x="50" y="-236"/>
      <point x="78" y="-236" type="curve" smooth="yes"/>
      <point x="347" y="-236" type="line" smooth="yes"/>
      <point x="364" y="-236"/>
      <point x="378" y="-226"/>
      <point x="384" y="-207" type="curve" smooth="yes"/>
      <point x="388" y="-188"/>
      <point x="379" y="-178"/>
      <point x="362" y="-178" type="curve" smooth="yes"/>
      <point x="147" y="-178" type="line" smooth="yes"/>
      <point x="130" y="-178"/>
      <point x="124" y="-169"/>
      <point x="130" y="-152" type="curve" smooth="yes"/>
    </contour>
  </outline>
</glyph>
<glyph name="asciicircum" format="2">
  <advance width="826"/>
  <unicode hex="005E"/>
  <outline>
    <contour>
      <point x="672" y="1366" type="line"/>
      <point x="236" y="807" type="line" smooth="yes"/>
      <point x="224" y="790"/>
      <point x="215" y="786"/>
      <point x="205" y="786" type="curve" smooth="yes"/>
      <point x="184" y="786"/>
      <point x="189" y="820"/>
      <point x="217" y="856" type="curve" smooth="yes"/>
      <point x="603" y="1376" type="line" smooth="yes"/>
      <point x="629" y="1411"/>
      <point x="639" y="1419"/>
      <point x="655" y="1419" type="curve" smooth="yes"/>
      <point x="670" y="1419"/>
      <point x="677" y="1411"/>
      <point x="686" y="1376" type="curve" smooth="yes"/>
      <point x="814" y="856" type="line" smooth="yes"/>
      <point x="821" y="820"/>
      <point x="812" y="786"/>
      <point x="790" y="786" type="curve" smooth="yes"/>
      <point x="781" y="786"/>
      <point x="773" y="790"/>
      <point x="767" y="807" type="curve" smooth="yes"/>
      <point x="611" y="1366" type="line"/>
    </contour>
  </outline>
</glyph>
<glyph name="underscore" format="2">
  <advance width="735"/>
  <unicode hex="005F"/>
  <outline>
    <contour>
      <point x="-93" y="-187" type="curve" smooth="yes"/>
      <point x="-96" y="-202"/>
      <point x="-92" y="-212"/>
      <point x="-77" y="-212" type="curve" smooth="yes"/>
      <point x="688" y="-212" type="line" smooth="yes"/>
      <point x="702" y="-212"/>
      <point x="711" y="-202"/>
      <point x="713" y="-187" type="curve" smooth="yes"/>
      <point x="717" y="-171"/>
      <point x="712" y="-161"/>
      <point x="697" y="-161" type="curve" smooth="yes"/>
      <point x="-68" y="-161" type="line" smooth="yes"/>
      <point x="-83" y="-161"/>
      <point x="-91" y="-171"/>
    </contour>
  </outline>
</glyph>
<glyph name="a" format="2">
  <advance width="798"/>
  <unicode hex="0061"/>
  <anchor x="554" y="1010.0" name="center"/>
  <outline>
    <contour>
      <point x="581" y="173" type="curve" smooth="yes"/>
      <point x="724" y="720" type="line"/>
      <point x="731" y="748"/>
      <point x="758" y="772"/>
      <point x="758" y="800" type="curve" smooth="yes"/>
      <point x="757" y="841"/>
      <point x="699" y="865"/>
      <point x="617" y="865" type="curve" smooth="yes"/>
      <point x="359.0" y="865.0"/>
      <point x="122.0" y="603.0"/>
      <point x="59" y="303" type="curve" smooth="yes"/>
      <point x="16.0" y="99.0"/>
      <point x="72.0" y="-15.0"/>
      <point x="190" y="-15" type="curve" smooth="yes"/>
      <point x="336.0" y="-15.0"/>
      <point x="482" y="147"/>
      <point x="655" y="492" type="curve"/>
      <point x="621" y="486" type="line"/>
      <point x="524.9947555844773" y="188.98377508947647"/>
      <point x="510.0" y="108.0"/>
      <point x="510" y="62" type="curve" smooth="yes"/>
      <point x="510" y="10"/>
      <point x="538" y="-15"/>
      <point x="590" y="-15" type="curve" smooth="yes"/>
      <point x="640" y="-15"/>
      <point x="686" y="13"/>
      <point x="712" y="41" type="curve" smooth="yes"/>
      <point x="724" y="54"/>
      <point x="731" y="70"/>
      <point x="722" y="78" type="curve" smooth="yes"/>
      <point x="713" y="86"/>
      <point x="701" y="82"/>
      <point x="677" y="62" type="curve" smooth="yes"/>
      <point x="645" y="36"/>
      <point x="622" y="28"/>
      <point x="603" y="28" type="curve" smooth="yes"/>
      <point x="555" y="28.0"/>
      <point x="555" y="73"/>
    </contour>
    <contour>
      <point x="116.0" y="28.0"/>
      <point x="74.70452129465863" y="135.62689307517834"/>
      <point x="109" y="295" type="curve" smooth="yes"/>
      <point x="174.25492638294259" y="599.1883491389478"/>
      <point x="398.0" y="822.0"/>
      <point x="587" y="822" type="curve" smooth="yes"/>
      <point x="640.0" y="822.0"/>
      <point x="670.0" y="803.4375"/>
      <point x="670" y="756" type="curve" smooth="yes"/>
      <point x="670.0" y="531.3829201101928"/>
      <point x="401.0" y="28.0"/>
      <point x="204" y="28" type="curve" smooth="yes"/>
    </contour>
  </outline>
</glyph>
<glyph name="d" format="2">
  <advance width="797"/>
  <unicode hex="0064"/>
  <guideline x="1382" y="340" angle="0" identifier="JqABTGjc2a"/>
  <outline>
    <contour>
      <point x="760" y="802" type="line"/>
      <point x="728" y="837"/>
      <point x="688" y="865"/>
      <point x="603" y="865" type="curve" smooth="yes"/>
      <point x="352.0" y="865.0"/>
      <point x="121" y="603"/>
      <point x="58" y="303" type="curve" smooth="yes"/>
      <point x="15" y="99"/>
      <point x="71" y="-15"/>
      <point x="189" y="-15" type="curve" smooth="yes"/>
      <point x="339" y="-15"/>
      <point x="497" y="144"/>
      <point x="667" y="526" type="curve"/>
      <point x="628" y="485" type="line"/>
      <point x="527" y="198"/>
      <point x="508" y="122"/>
      <point x="508" y="77" type="curve" smooth="yes"/>
      <point x="508" y="15"/>
      <point x="536" y="-15"/>
      <point x="589" y="-15" type="curve" smooth="yes"/>
      <point x="639" y="-15"/>
      <point x="685" y="13"/>
      <point x="711" y="41" type="curve" smooth="yes"/>
      <point x="723" y="54"/>
      <point x="730" y="70"/>
      <point x="721" y="78" type="curve" smooth="yes"/>
      <point x="712" y="86"/>
      <point x="700" y="82"/>
      <point x="676" y="62" type="curve" smooth="yes"/>
      <point x="644" y="36"/>
      <point x="621" y="28"/>
      <point x="602" y="28" type="curve" smooth="yes"/>
      <point x="554" y="28"/>
      <point x="557" y="93"/>
      <point x="586" y="193" type="curve" smooth="yes"/>
      <point x="852" y="1099" type="line" smooth="yes"/>
      <point x="880" y="1196"/>
      <point x="892" y="1255"/>
      <point x="931" y="1316" type="curve" smooth="yes"/>
      <point x="959" y="1360"/>
      <point x="989" y="1385"/>
      <point x="1029" y="1385" type="curve" smooth="yes"/>
      <point x="1079" y="1385"/>
      <point x="1096" y="1360"/>
      <point x="1138" y="1360" type="curve" smooth="yes"/>
      <point x="1169" y="1360"/>
      <point x="1182" y="1381"/>
      <point x="1182" y="1401" type="curve" smooth="yes"/>
      <point x="1182" y="1426"/>
      <point x="1153" y="1448"/>
      <point x="1094" y="1448" type="curve" smooth="yes"/>
      <point x="974" y="1448"/>
      <point x="886" y="1377"/>
      <point x="833" y="1197" type="curve" smooth="yes"/>
      <point x="689" y="711" type="line" smooth="yes"/>
      <point x="584" y="356"/>
      <point x="368" y="28"/>
      <point x="203" y="28" type="curve" smooth="yes"/>
      <point x="115" y="28"/>
      <point x="74" y="137"/>
      <point x="108" y="295" type="curve" smooth="yes"/>
      <point x="173" y="599"/>
      <point x="397.0" y="822.0"/>
      <point x="586" y="822" type="curve" smooth="yes"/>
      <point x="654.0" y="822.0"/>
      <point x="690" y="804"/>
      <point x="733" y="762" type="curve"/>
    </contour>
  </outline>
</glyph>
<glyph name="e" format="2">
  <advance width="650"/>
  <unicode hex="0065"/>
  <outline>
    <contour>
      <point x="78" y="409" type="curve"/>
      <point x="87" y="365" type="line"/>
      <point x="87" y="365"/>
      <point x="465" y="543"/>
      <point x="659" y="634" type="curve" smooth="yes"/>
      <point x="680" y="644"/>
      <point x="688" y="655"/>
      <point x="682" y="668" type="curve" smooth="yes"/>
      <point x="677" y="678"/>
      <point x="664" y="681"/>
      <point x="648" y="675" type="curve" smooth="yes"/>
      <point x="637" y="671"/>
      <point x="632" y="676"/>
      <point x="632" y="687" type="curve" smooth="yes"/>
      <point x="632" y="791"/>
      <point x="578" y="865"/>
      <point x="461" y="865.0" type="curve" smooth="yes"/>
      <point x="263" y="865"/>
      <point x="82" y="643"/>
      <point x="48" y="372" type="curve" smooth="yes"/>
      <point x="18.021009241064437" y="133.16737362048"/>
      <point x="91" y="-15.0"/>
      <point x="277" y="-15" type="curve" smooth="yes"/>
      <point x="433.0" y="-15.0"/>
      <point x="528" y="105"/>
      <point x="576" y="226" type="curve" smooth="yes"/>
      <point x="590" y="262"/>
      <point x="580" y="274"/>
      <point x="567" y="274" type="curve" smooth="yes"/>
      <point x="556" y="274"/>
      <point x="549" y="267"/>
      <point x="541" y="249" type="curve" smooth="yes"/>
      <point x="475.4929165642384" y="90.775198470545"/>
      <point x="370.0" y="28.0"/>
      <point x="286" y="28" type="curve" smooth="yes"/>
      <point x="140.0" y="28.0"/>
      <point x="71.82573786607585" y="155.7520582667368"/>
      <point x="103" y="379" type="curve" smooth="yes"/>
      <point x="142.1734645582407" y="658.2364909536132"/>
      <point x="317.0" y="822.0"/>
      <point x="453" y="822.0" type="curve" smooth="yes"/>
      <point x="537.0" y="822.0"/>
      <point x="579.0" y="768.2262773722628"/>
      <point x="579" y="683" type="curve" smooth="yes"/>
      <point x="579" y="653"/>
      <point x="577" y="636"/>
      <point x="571" y="613" type="curve"/>
      <point x="583" y="644" type="line"/>
      <point x="392.7065032440646" y="554.9917515173851"/>
      <point x="78.0" y="409.0"/>
    </contour>
  </outline>
</glyph>
<glyph name="g" format="2">
  <advance width="712"/>
  <unicode hex="0067"/>
  <anchor x="554" y="1010.0" name="center"/>
  <outline>
    <contour>
      <point x="502" y="-42" type="curve" smooth="yes"/>
      <point x="702" y="720" type="line" smooth="yes"/>
      <point x="709" y="748"/>
      <point x="736" y="772"/>
      <point x="736" y="800" type="curve" smooth="yes"/>
      <point x="735" y="841"/>
      <point x="677" y="865"/>
      <point x="595" y="865" type="curve" smooth="yes"/>
      <point x="337" y="865"/>
      <point x="100" y="603"/>
      <point x="37" y="303" type="curve" smooth="yes"/>
      <point x="-6" y="99"/>
      <point x="50" y="-15"/>
      <point x="168" y="-15" type="curve" smooth="yes"/>
      <point x="314" y="-15"/>
      <point x="460" y="147"/>
      <point x="633" y="492" type="curve"/>
      <point x="598" y="486" type="line"/>
      <point x="447" y="-55" type="line" smooth="yes"/>
      <point x="379.4759615485368" y="-296.923872862527"/>
      <point x="215.0" y="-437.0"/>
      <point x="33" y="-437" type="curve" smooth="yes"/>
      <point x="-41" y="-437"/>
      <point x="-79" y="-396"/>
      <point x="-125" y="-396.0" type="curve" smooth="yes"/>
      <point x="-155.0" y="-396.0"/>
      <point x="-174.0" y="-409.1707317073171"/>
      <point x="-174.0" y="-432" type="curve" smooth="yes"/>
      <point x="-174.0" y="-462.64150943396226"/>
      <point x="-133" y="-490"/>
      <point x="-29" y="-490" type="curve" smooth="yes"/>
      <point x="229" y="-490"/>
      <point x="427" y="-329"/>
    </contour>
    <contour>
      <point x="94.0" y="28.0"/>
      <point x="52.70452129465863" y="135.62689307517834"/>
      <point x="87" y="295" type="curve" smooth="yes"/>
      <point x="152.25492638294259" y="599.1883491389478"/>
      <point x="376.0" y="822.0"/>
      <point x="565" y="822" type="curve" smooth="yes"/>
      <point x="618.0" y="822.0"/>
      <point x="648.0" y="803.4375"/>
      <point x="648" y="756" type="curve" smooth="yes"/>
      <point x="648.0" y="531.3829201101928"/>
      <point x="379.0" y="28.0"/>
      <point x="182" y="28" type="curve" smooth="yes"/>
    </contour>
  </outline>
</glyph>
<glyph name="h" format="2">
  <advance width="828"/>
  <unicode hex="0068"/>
  <outline>
    <contour>
      <point x="172" y="270" type="curve" smooth="yes"/>
      <point x="135" y="156"/>
      <point x="129" y="127"/>
      <point x="129" y="106" type="curve" smooth="yes"/>
      <point x="129" y="74"/>
      <point x="137" y="55"/>
      <point x="137" y="29" type="curve" smooth="yes"/>
      <point x="137" y="1"/>
      <point x="109" y="-15"/>
      <point x="77" y="-15" type="curve" smooth="yes"/>
      <point x="40" y="-15"/>
      <point x="39" y="13"/>
      <point x="69" y="121" type="curve" smooth="yes"/>
      <point x="319" y="1014" type="line" smooth="yes"/>
      <point x="407" y="1327"/>
      <point x="594" y="1438"/>
      <point x="829" y="1438.0" type="curve" smooth="yes"/>
      <point x="910.0" y="1438.0"/>
      <point x="933" y="1413"/>
      <point x="933" y="1391" type="curve" smooth="yes"/>
      <point x="933" y="1364"/>
      <point x="914" y="1351"/>
      <point x="876" y="1351" type="curve" smooth="yes"/>
      <point x="837" y="1351"/>
      <point x="790" y="1376"/>
      <point x="723" y="1376" type="curve" smooth="yes"/>
      <point x="572" y="1376"/>
      <point x="440" y="1269"/>
      <point x="369" y="1018" type="curve" smooth="yes"/>
      <point x="188" y="377" type="line"/>
      <point x="175" y="377" type="line"/>
      <point x="317" y="731"/>
      <point x="523" y="865"/>
      <point x="646" y="865" type="curve" smooth="yes"/>
      <point x="760.0" y="865.0"/>
      <point x="780" y="780"/>
      <point x="726" y="617" type="curve" smooth="yes"/>
      <point x="579" y="170" type="line" smooth="yes"/>
      <point x="547" y="73"/>
      <point x="548" y="28"/>
      <point x="592" y="28" type="curve" smooth="yes"/>
      <point x="611" y="28"/>
      <point x="634" y="36"/>
      <point x="666" y="62" type="curve" smooth="yes"/>
      <point x="690" y="82"/>
      <point x="702" y="86"/>
      <point x="711" y="78" type="curve" smooth="yes"/>
      <point x="720" y="70"/>
      <point x="713" y="54"/>
      <point x="701" y="41" type="curve" smooth="yes"/>
      <point x="675" y="13"/>
      <point x="629" y="-15"/>
      <point x="579" y="-15" type="curve" smooth="yes"/>
      <point x="511" y="-15"/>
      <point x="488" y="40"/>
      <point x="523" y="148" type="curve" smooth="yes"/>
      <point x="679" y="630" type="line" smooth="yes"/>
      <point x="726.6798579837248" y="777.3185355650984"/>
      <point x="700.0" y="822.0"/>
      <point x="631" y="822" type="curve" smooth="yes"/>
      <point x="503.0" y="822.0"/>
      <point x="284.36830223441666" y="615.1312140057082"/>
    </contour>
  </outline>
</glyph>
<glyph name="j" format="2">
  <advance width="335"/>
  <unicode hex="006A"/>
  <outline>
    <contour>
      <point x="294" y="695" type="line" smooth="yes"/>
      <point x="326" y="807"/>
      <point x="304" y="865"/>
      <point x="236" y="865" type="curve" smooth="yes"/>
      <point x="186" y="865"/>
      <point x="140" y="837"/>
      <point x="114" y="809" type="curve" smooth="yes"/>
      <point x="102" y="796"/>
      <point x="95" y="780"/>
      <point x="104" y="772" type="curve" smooth="yes"/>
      <point x="113" y="764"/>
      <point x="125" y="768"/>
      <point x="149" y="788" type="curve" smooth="yes"/>
      <point x="181" y="814"/>
      <point x="204" y="822"/>
      <point x="223" y="822" type="curve" smooth="yes"/>
      <point x="267" y="822"/>
      <point x="267" y="775"/>
      <point x="243" y="691" type="curve" smooth="yes"/>
      <point x="37" y="-27" type="line" smooth="yes"/>
      <point x="-2.225457492074277" y="-164.28910122225997"/>
      <point x="-30" y="-271"/>
      <point x="-60" y="-329" type="curve" smooth="yes"/>
      <point x="-97" y="-401"/>
      <point x="-130" y="-419"/>
      <point x="-163" y="-419" type="curve" smooth="yes"/>
      <point x="-210" y="-419"/>
      <point x="-225" y="-399"/>
      <point x="-261" y="-399" type="curve" smooth="yes"/>
      <point x="-298" y="-399"/>
      <point x="-313" y="-420"/>
      <point x="-313" y="-441" type="curve" smooth="yes"/>
      <point x="-313" y="-467"/>
      <point x="-286" y="-490"/>
      <point x="-228" y="-490" type="curve" smooth="yes"/>
      <point x="-108.43478260869564" y="-490.0"/>
      <point x="-26.770391987114117" y="-420.6205544845954"/>
      <point x="22" y="-251" type="curve" smooth="yes"/>
    </contour>
    <contour>
      <point x="428" y="1179" type="curve" smooth="yes"/>
      <point x="428" y="1220"/>
      <point x="402" y="1243"/>
      <point x="372" y="1243" type="curve" smooth="yes"/>
      <point x="322" y="1243"/>
      <point x="292" y="1191"/>
      <point x="292" y="1149" type="curve" smooth="yes"/>
      <point x="292" y="1108"/>
      <point x="318" y="1085"/>
      <point x="348" y="1085" type="curve" smooth="yes"/>
      <point x="398" y="1085"/>
      <point x="428" y="1137"/>
    </contour>
  </outline>
</glyph>
<glyph name="k" format="2">
  <advance width="850"/>
  <unicode hex="006B"/>
  <outline>
    <contour>
      <point x="228" y="423" type="curve"/>
      <point x="206" y="439" type="line"/>
      <point x="317" y="700"/>
      <point x="516" y="856"/>
      <point x="675" y="841" type="curve" smooth="yes"/>
      <point x="760" y="833"/>
      <point x="817" y="778"/>
      <point x="805" y="675" type="curve" smooth="yes"/>
      <point x="787" y="526"/>
      <point x="583" y="374"/>
      <point x="177" y="285" type="curve"/>
      <point x="182" y="334" type="line"/>
      <point x="572" y="431"/>
      <point x="718" y="549"/>
      <point x="736" y="676" type="curve" smooth="yes"/>
      <point x="746" y="741"/>
      <point x="716" y="787"/>
      <point x="652" y="794" type="curve" smooth="yes"/>
      <point x="514" y="811"/>
      <point x="268" y="577"/>
      <point x="209" y="337" type="curve" smooth="yes"/>
      <point x="161" y="148"/>
      <point x="160" y="125"/>
      <point x="160" y="95" type="curve" smooth="yes"/>
      <point x="160" y="66"/>
      <point x="165" y="55"/>
      <point x="165" y="37" type="curve" smooth="yes"/>
      <point x="165" y="9"/>
      <point x="136" y="-10"/>
      <point x="104" y="-10" type="curve" smooth="yes"/>
      <point x="73" y="-10"/>
      <point x="65" y="20"/>
      <point x="79" y="75" type="curve" smooth="yes"/>
      <point x="306" y="965" type="line" smooth="yes"/>
      <point x="389" y="1289"/>
      <point x="585" y="1398"/>
      <point x="819" y="1398" type="curve" smooth="yes"/>
      <point x="882" y="1398"/>
      <point x="911" y="1373"/>
      <point x="911" y="1346" type="curve" smooth="yes"/>
      <point x="911" y="1315"/>
      <point x="891" y="1299"/>
      <point x="856" y="1299" type="curve" smooth="yes"/>
      <point x="815" y="1299"/>
      <point x="757" y="1330"/>
      <point x="697" y="1330" type="curve" smooth="yes"/>
      <point x="558" y="1330"/>
      <point x="431" y="1217"/>
      <point x="365" y="950" type="curve" smooth="yes"/>
      <point x="283" y="610"/>
      <point x="240.93440888191972" y="514.7167175263398"/>
    </contour>
    <contour>
      <point x="416" y="366" type="line"/>
      <point x="476" y="393" type="line"/>
      <point x="555" y="153" type="line" smooth="yes"/>
      <point x="577" y="86"/>
      <point x="600" y="64"/>
      <point x="631" y="58" type="curve" smooth="yes"/>
      <point x="654" y="53"/>
      <point x="674" y="70"/>
      <point x="687" y="98" type="curve" smooth="yes"/>
      <point x="692" y="108"/>
      <point x="702" y="114"/>
      <point x="713" y="112" type="curve" smooth="yes"/>
      <point x="725" y="109"/>
      <point x="729" y="98"/>
      <point x="725" y="76" type="curve" smooth="yes"/>
      <point x="714" y="19"/>
      <point x="674" y="-22"/>
      <point x="613" y="-14" type="curve" smooth="yes"/>
      <point x="560" y="-6"/>
      <point x="530" y="29"/>
      <point x="501" y="115" type="curve" smooth="yes"/>
    </contour>
  </outline>
</glyph>
<glyph name="l" format="2">
  <advance width="440"/>
  <unicode hex="006C"/>
  <outline>
    <contour>
      <point x="618" y="1398" type="curve" smooth="yes"/>
      <point x="496" y="1398"/>
      <point x="413" y="1314"/>
      <point x="354" y="1109" type="curve" smooth="yes"/>
      <point x="98" y="224" type="line" smooth="yes"/>
      <point x="46" y="43"/>
      <point x="56" y="-14"/>
      <point x="147" y="-14" type="curve" smooth="yes"/>
      <point x="247" y="-14"/>
      <point x="368" y="75"/>
      <point x="370" y="140" type="curve" smooth="yes"/>
      <point x="370" y="152"/>
      <point x="363" y="162"/>
      <point x="352" y="162" type="curve" smooth="yes"/>
      <point x="344" y="162"/>
      <point x="339" y="158"/>
      <point x="330" y="147" type="curve" smooth="yes"/>
      <point x="300" y="102"/>
      <point x="232" y="53"/>
      <point x="186" y="53" type="curve" smooth="yes"/>
      <point x="125" y="53"/>
      <point x="124" y="86"/>
      <point x="164" y="226" type="curve" smooth="yes"/>
      <point x="395" y="1036" type="line" smooth="yes"/>
      <point x="412" y="1097"/>
      <point x="418" y="1124"/>
      <point x="426" y="1172" type="curve" smooth="yes"/>
      <point x="441" y="1264"/>
      <point x="494" y="1325"/>
      <point x="550" y="1325" type="curve" smooth="yes"/>
      <point x="602" y="1325"/>
      <point x="620" y="1295"/>
      <point x="662" y="1295" type="curve" smooth="yes"/>
      <point x="698" y="1295"/>
      <point x="713" y="1318"/>
      <point x="713" y="1343" type="curve" smooth="yes"/>
      <point x="713" y="1373"/>
      <point x="681" y="1398"/>
    </contour>
  </outline>
</glyph>
<glyph name="n" format="2">
  <advance width="830"/>
  <unicode hex="006E"/>
  <anchor x="557" y="946" name="center"/>
  <outline>
    <contour>
      <point x="139" y="772" type="curve" smooth="yes"/>
      <point x="148" y="764"/>
      <point x="160" y="768"/>
      <point x="184" y="788" type="curve" smooth="yes"/>
      <point x="216" y="814"/>
      <point x="239" y="822"/>
      <point x="258" y="822.0" type="curve" smooth="yes"/>
      <point x="302" y="822"/>
      <point x="305" y="777"/>
      <point x="271" y="680" type="curve" smooth="yes"/>
      <point x="75" y="121" type="line" smooth="yes"/>
      <point x="38" y="15"/>
      <point x="45" y="-15"/>
      <point x="82" y="-15" type="curve" smooth="yes"/>
      <point x="114.12307692307692" y="-15.0"/>
      <point x="142.0" y="1.0"/>
      <point x="142.0" y="29" type="curve" smooth="yes"/>
      <point x="142.0" y="55"/>
      <point x="134.0" y="74"/>
      <point x="134" y="106" type="curve" smooth="yes"/>
      <point x="134" y="127"/>
      <point x="140" y="156"/>
      <point x="177" y="270" type="curve" smooth="yes"/>
      <point x="289.36830223441666" y="615.1312140057082"/>
      <point x="504.0" y="822.0"/>
      <point x="631" y="822" type="curve" smooth="yes"/>
      <point x="700.0" y="822.0"/>
      <point x="726.6798579837248" y="777.3185355650984"/>
      <point x="679" y="630" type="curve" smooth="yes"/>
      <point x="523" y="148" type="line" smooth="yes"/>
      <point x="488" y="40"/>
      <point x="511.0" y="-15"/>
      <point x="579" y="-15" type="curve" smooth="yes"/>
      <point x="629" y="-15"/>
      <point x="675" y="13"/>
      <point x="701" y="41" type="curve" smooth="yes"/>
      <point x="713" y="54"/>
      <point x="720" y="70"/>
      <point x="711" y="78" type="curve" smooth="yes"/>
      <point x="702" y="86"/>
      <point x="690" y="82"/>
      <point x="666" y="62" type="curve" smooth="yes"/>
      <point x="634" y="36"/>
      <point x="611.0" y="28.0"/>
      <point x="592.0" y="28.0" type="curve" smooth="yes"/>
      <point x="548.0" y="28.0"/>
      <point x="547" y="73"/>
      <point x="579" y="170" type="curve" smooth="yes"/>
      <point x="726" y="617" type="line" smooth="yes"/>
      <point x="780" y="780"/>
      <point x="760.0" y="865.0"/>
      <point x="646" y="865" type="curve" smooth="yes"/>
      <point x="517" y="865"/>
      <point x="295.93837699621326" y="712.8234347976605"/>
      <point x="155" y="309" type="curve"/>
      <point x="176" y="307" type="line"/>
      <point x="325" y="684"/>
      <point x="346" y="736"/>
      <point x="346" y="788" type="curve" smooth="yes"/>
      <point x="346" y="840"/>
      <point x="320" y="865"/>
      <point x="271" y="865" type="curve" smooth="yes"/>
      <point x="221" y="865"/>
      <point x="175" y="837"/>
      <point x="149" y="809" type="curve" smooth="yes"/>
      <point x="137" y="796"/>
      <point x="130" y="780"/>
    </contour>
  </outline>
</glyph>
<glyph name="r" format="2">
  <advance width="606"/>
  <unicode hex="0072"/>
  <outline>
    <contour>
      <point x="125" y="772" type="curve" smooth="yes"/>
      <point x="134" y="764"/>
      <point x="146" y="768"/>
      <point x="170" y="788" type="curve" smooth="yes"/>
      <point x="202" y="814"/>
      <point x="225" y="822"/>
      <point x="244" y="822" type="curve" smooth="yes"/>
      <point x="288" y="822"/>
      <point x="290" y="777"/>
      <point x="257" y="680" type="curve" smooth="yes"/>
      <point x="66" y="121" type="line" smooth="yes"/>
      <point x="30" y="15"/>
      <point x="36" y="-15"/>
      <point x="76" y="-15" type="curve" smooth="yes"/>
      <point x="112" y="-15"/>
      <point x="147" y="1"/>
      <point x="147" y="29" type="curve" smooth="yes"/>
      <point x="147" y="55"/>
      <point x="125" y="56"/>
      <point x="125" y="106" type="curve" smooth="yes"/>
      <point x="125" y="127"/>
      <point x="131" y="156"/>
      <point x="168" y="270" type="curve" smooth="yes"/>
      <point x="279.3648228839663" y="611.1174755004372"/>
      <point x="457.0" y="822.0"/>
      <point x="565" y="822" type="curve" smooth="yes"/>
      <point x="598.0" y="822.0"/>
      <point x="613.0" y="801.344262295082"/>
      <point x="613" y="759" type="curve" smooth="yes"/>
      <point x="613.0" y="726.0"/>
      <point x="600.0" y="711.0"/>
      <point x="600" y="689" type="curve" smooth="yes"/>
      <point x="600.0" y="670.0"/>
      <point x="613.0" y="658.0"/>
      <point x="633" y="658" type="curve" smooth="yes"/>
      <point x="666" y="658.0"/>
      <point x="682.0" y="688.0"/>
      <point x="682" y="749" type="curve" smooth="yes"/>
      <point x="682.0" y="818.0"/>
      <point x="650.0" y="865.0"/>
      <point x="580" y="865" type="curve" smooth="yes"/>
      <point x="470.0" y="865.0"/>
      <point x="280.0" y="719.0"/>
      <point x="145" y="299" type="curve"/>
      <point x="167" y="307" type="line"/>
      <point x="316" y="683"/>
      <point x="332" y="736"/>
      <point x="332" y="788" type="curve" smooth="yes"/>
      <point x="332" y="840"/>
      <point x="306" y="865"/>
      <point x="257" y="865" type="curve" smooth="yes"/>
      <point x="207" y="865"/>
      <point x="161" y="837"/>
      <point x="135" y="809" type="curve" smooth="yes"/>
      <point x="123" y="796"/>
      <point x="116" y="780"/>
    </contour>
  </outline>
</glyph>
<glyph name="u" format="2">
  <advance width="830"/>
  <unicode hex="0075"/>
  <anchor x="560" y="1016.0" name="center"/>
  <outline>
    <contour>
      <point x="706" y="78" type="curve" smooth="yes"/>
      <point x="697" y="86"/>
      <point x="685" y="82"/>
      <point x="661" y="62" type="curve" smooth="yes"/>
      <point x="629" y="36"/>
      <point x="606" y="28"/>
      <point x="587" y="28" type="curve" smooth="yes"/>
      <point x="543" y="28"/>
      <point x="540" y="73"/>
      <point x="574" y="170" type="curve" smooth="yes"/>
      <point x="770" y="729" type="line" smooth="yes"/>
      <point x="807" y="835"/>
      <point x="800" y="865"/>
      <point x="763" y="865" type="curve" smooth="yes"/>
      <point x="731" y="865"/>
      <point x="703" y="849"/>
      <point x="703" y="821" type="curve" smooth="yes"/>
      <point x="703" y="795"/>
      <point x="711" y="776"/>
      <point x="711" y="744" type="curve" smooth="yes"/>
      <point x="711" y="723"/>
      <point x="705" y="694"/>
      <point x="668" y="580" type="curve" smooth="yes"/>
      <point x="556" y="235"/>
      <point x="341" y="28"/>
      <point x="214" y="28" type="curve" smooth="yes"/>
      <point x="145" y="28"/>
      <point x="118" y="73"/>
      <point x="166" y="220" type="curve" smooth="yes"/>
      <point x="322" y="702" type="line" smooth="yes"/>
      <point x="357" y="810"/>
      <point x="334" y="865"/>
      <point x="266" y="865" type="curve" smooth="yes"/>
      <point x="216" y="865"/>
      <point x="170" y="837"/>
      <point x="144" y="809" type="curve" smooth="yes"/>
      <point x="132" y="796"/>
      <point x="125" y="780"/>
      <point x="134" y="772" type="curve" smooth="yes"/>
      <point x="143" y="764"/>
      <point x="155" y="768"/>
      <point x="179" y="788" type="curve" smooth="yes"/>
      <point x="211" y="814"/>
      <point x="234" y="822"/>
      <point x="253" y="822" type="curve" smooth="yes"/>
      <point x="297" y="822"/>
      <point x="298" y="777"/>
      <point x="266" y="680" type="curve" smooth="yes"/>
      <point x="119" y="233" type="line" smooth="yes"/>
      <point x="65" y="70"/>
      <point x="85" y="-15"/>
      <point x="199" y="-15" type="curve" smooth="yes"/>
      <point x="328" y="-15"/>
      <point x="549" y="137"/>
      <point x="690" y="541" type="curve"/>
      <point x="669" y="543" type="line"/>
      <point x="520" y="166"/>
      <point x="499" y="114"/>
      <point x="499" y="62" type="curve" smooth="yes"/>
      <point x="499" y="10"/>
      <point x="525" y="-15"/>
      <point x="574" y="-15" type="curve" smooth="yes"/>
      <point x="624" y="-15"/>
      <point x="670" y="13"/>
      <point x="696" y="41" type="curve" smooth="yes"/>
      <point x="708" y="54"/>
      <point x="715" y="70"/>
    </contour>
  </outline>
</glyph>
<glyph name="w" format="2">
  <advance width="1238"/>
  <unicode hex="0077"/>
  <outline>
    <contour>
      <point x="785" y="844" type="curve" smooth="yes"/>
      <point x="757" y="849"/>
      <point x="744" y="815"/>
      <point x="717" y="712" type="curve" smooth="yes"/>
      <point x="583" y="181"/>
      <point x="645" y="-14"/>
      <point x="821" y="-14" type="curve" smooth="yes"/>
      <point x="972" y="-14"/>
      <point x="1149" y="199"/>
      <point x="1191" y="561" type="curve" smooth="yes"/>
      <point x="1211" y="730"/>
      <point x="1185" y="840"/>
      <point x="1132" y="840" type="curve" smooth="yes"/>
      <point x="1100" y="840"/>
      <point x="1078" y="816"/>
      <point x="1078" y="789" type="curve" smooth="yes"/>
      <point x="1078" y="771"/>
      <point x="1087" y="746"/>
      <point x="1105" y="716" type="curve" smooth="yes"/>
      <point x="1133" y="672"/>
      <point x="1138" y="545"/>
      <point x="1116" y="434" type="curve" smooth="yes"/>
      <point x="1070" y="192"/>
      <point x="936" y="47"/>
      <point x="835" y="47" type="curve" smooth="yes"/>
      <point x="706" y="47"/>
      <point x="656" y="165"/>
      <point x="758" y="623" type="curve"/>
      <point x="656" y="176"/>
      <point x="488" y="45"/>
      <point x="357" y="45" type="curve" smooth="yes"/>
      <point x="286" y="45"/>
      <point x="249" y="91"/>
      <point x="249" y="185" type="curve" smooth="yes"/>
      <point x="249" y="366"/>
      <point x="398" y="545"/>
      <point x="468" y="771" type="curve" smooth="yes"/>
      <point x="481" y="812"/>
      <point x="482" y="837"/>
      <point x="467" y="840" type="curve" smooth="yes"/>
      <point x="442" y="845"/>
      <point x="430" y="807"/>
      <point x="402" y="807" type="curve" smooth="yes"/>
      <point x="351" y="807"/>
      <point x="252" y="841"/>
      <point x="216" y="841" type="curve" smooth="yes"/>
      <point x="122" y="841"/>
      <point x="67" y="768"/>
      <point x="67" y="678" type="curve" smooth="yes"/>
      <point x="67" y="631"/>
      <point x="84" y="608"/>
      <point x="113" y="608" type="curve" smooth="yes"/>
      <point x="133" y="608"/>
      <point x="152" y="625"/>
      <point x="152" y="650" type="curve" smooth="yes"/>
      <point x="152" y="664"/>
      <point x="146" y="676"/>
      <point x="136" y="686" type="curve" smooth="yes"/>
      <point x="129" y="694"/>
      <point x="126" y="703"/>
      <point x="126" y="718" type="curve" smooth="yes"/>
      <point x="126" y="760"/>
      <point x="157" y="785"/>
      <point x="186" y="785" type="curve" smooth="yes"/>
      <point x="240" y="785"/>
      <point x="352" y="744"/>
      <point x="419" y="744" type="curve"/>
      <point x="420" y="772" type="line"/>
      <point x="395" y="639"/>
      <point x="177" y="354"/>
      <point x="177" y="179" type="curve" smooth="yes"/>
      <point x="177" y="63"/>
      <point x="230" y="-14"/>
      <point x="325" y="-14" type="curve" smooth="yes"/>
      <point x="513" y="-14"/>
      <point x="703" y="163"/>
      <point x="790" y="683" type="curve" smooth="yes"/>
      <point x="808" y="792"/>
      <point x="810" y="839"/>
    </contour>
  </outline>
</glyph>
<glyph name="x" format="2">
  <advance width="758"/>
  <unicode hex="0078"/>
  <outline>
    <contour>
      <point x="390" y="484" type="line"/>
      <point x="261" y="123"/>
      <point x="171" y="30"/>
      <point x="103" y="30" type="curve" smooth="yes"/>
      <point x="65" y="30"/>
      <point x="50" y="51"/>
      <point x="50" y="83" type="curve" smooth="yes"/>
      <point x="50" y="110"/>
      <point x="56" y="134"/>
      <point x="56" y="154" type="curve" smooth="yes"/>
      <point x="56" y="181"/>
      <point x="42" y="198"/>
      <point x="24" y="198" type="curve" smooth="yes"/>
      <point x="-4" y="198"/>
      <point x="-23" y="167"/>
      <point x="-23" y="110" type="curve" smooth="yes"/>
      <point x="-22" y="38"/>
      <point x="15" y="-14"/>
      <point x="92" y="-14" type="curve"/>
      <point x="193" y="-14"/>
      <point x="283" y="88"/>
      <point x="401" y="398" type="curve"/>
    </contour>
    <contour>
      <point x="414" y="690" type="line" smooth="yes"/>
      <point x="408" y="807"/>
      <point x="367" y="865"/>
      <point x="284" y="865" type="curve" smooth="yes"/>
      <point x="212" y="865"/>
      <point x="159" y="818"/>
      <point x="130" y="751" type="curve" smooth="yes"/>
      <point x="120" y="728"/>
      <point x="119" y="713"/>
      <point x="131" y="708" type="curve" smooth="yes"/>
      <point x="143" y="703"/>
      <point x="155" y="714"/>
      <point x="165" y="733" type="curve" smooth="yes"/>
      <point x="196" y="791"/>
      <point x="228" y="822"/>
      <point x="278" y="822" type="curve" smooth="yes"/>
      <point x="338" y="822"/>
      <point x="361" y="775"/>
      <point x="366" y="690" type="curve" smooth="yes"/>
      <point x="395" y="160" type="line" smooth="yes"/>
      <point x="401" y="43"/>
      <point x="442" y="-15"/>
      <point x="525" y="-15" type="curve" smooth="yes"/>
      <point x="597" y="-15"/>
      <point x="650" y="32"/>
      <point x="679" y="99" type="curve" smooth="yes"/>
      <point x="689" y="122"/>
      <point x="690" y="137"/>
      <point x="678" y="142" type="curve" smooth="yes"/>
      <point x="666" y="147"/>
      <point x="654" y="136"/>
      <point x="644" y="117" type="curve" smooth="yes"/>
      <point x="613" y="59"/>
      <point x="581" y="28"/>
      <point x="531" y="28" type="curve" smooth="yes"/>
      <point x="471" y="28"/>
      <point x="448" y="75"/>
      <point x="443" y="160" type="curve" smooth="yes"/>
    </contour>
    <contour>
      <point x="424" y="410" type="line"/>
      <point x="541" y="738"/>
      <point x="631" y="821"/>
      <point x="695" y="821" type="curve" smooth="yes"/>
      <point x="733" y="821"/>
      <point x="748" y="800"/>
      <point x="748" y="768" type="curve" smooth="yes"/>
      <point x="748" y="741"/>
      <point x="742" y="717"/>
      <point x="742" y="697" type="curve" smooth="yes"/>
      <point x="742" y="670"/>
      <point x="756" y="653"/>
      <point x="774" y="653" type="curve" smooth="yes"/>
      <point x="802" y="653"/>
      <point x="821" y="684"/>
      <point x="821" y="741" type="curve" smooth="yes"/>
      <point x="820" y="813"/>
      <point x="783" y="865"/>
      <point x="706" y="865" type="curve"/>
      <point x="610" y="865"/>
      <point x="519" y="776"/>
      <point x="413" y="496" type="curve"/>
    </contour>
  </outline>
</glyph>
<glyph name="braceleft" format="2">
  <advance width="592"/>
  <unicode hex="007B"/>
  <outline>
    <contour>
      <point x="292" y="563" type="curve" smooth="yes"/>
      <point x="294" y="573"/>
      <point x="302" y="581"/>
      <point x="316" y="581" type="curve" smooth="yes"/>
      <point x="430" y="581"/>
      <point x="492" y="632"/>
      <point x="511" y="707" type="curve" smooth="yes"/>
      <point x="548" y="856"/>
      <point x="372" y="994"/>
      <point x="410" y="1148" type="curve" smooth="yes"/>
      <point x="436" y="1254"/>
      <point x="521" y="1305"/>
      <point x="646" y="1305" type="curve" smooth="yes"/>
      <point x="748" y="1305" type="line" smooth="yes"/>
      <point x="765" y="1305"/>
      <point x="780" y="1314"/>
      <point x="784" y="1332" type="curve" smooth="yes"/>
      <point x="789" y="1352"/>
      <point x="781" y="1362"/>
      <point x="764" y="1362" type="curve" smooth="yes"/>
      <point x="657" y="1362" type="line" smooth="yes"/>
      <point x="477" y="1362"/>
      <point x="371" y="1273"/>
      <point x="340" y="1150" type="curve" smooth="yes"/>
      <point x="298" y="981"/>
      <point x="471" y="822"/>
      <point x="443" y="707" type="curve" smooth="yes"/>
      <point x="430" y="651"/>
      <point x="393" y="617"/>
      <point x="331" y="617" type="curve" smooth="yes"/>
      <point x="291" y="617"/>
      <point x="275" y="633"/>
      <point x="227" y="633" type="curve" smooth="yes"/>
      <point x="183" y="633"/>
      <point x="150" y="596"/>
      <point x="141" y="563" type="curve" smooth="yes"/>
      <point x="133" y="530"/>
      <point x="148" y="492"/>
      <point x="192" y="492" type="curve" smooth="yes"/>
      <point x="239" y="492"/>
      <point x="264" y="508"/>
      <point x="303" y="508" type="curve" smooth="yes"/>
      <point x="366" y="508"/>
      <point x="385" y="475"/>
      <point x="373" y="420" type="curve" smooth="yes"/>
      <point x="344" y="304"/>
      <point x="91" y="144"/>
      <point x="50" y="-25" type="curve" smooth="yes"/>
      <point x="19" y="-148"/>
      <point x="81" y="-236"/>
      <point x="260" y="-236" type="curve" smooth="yes"/>
      <point x="368" y="-236" type="line" smooth="yes"/>
      <point x="385" y="-236"/>
      <point x="398" y="-227"/>
      <point x="402" y="-208" type="curve" smooth="yes"/>
      <point x="408" y="-190"/>
      <point x="399" y="-179"/>
      <point x="382" y="-179" type="curve" smooth="yes"/>
      <point x="281" y="-179" type="line" smooth="yes"/>
      <point x="154" y="-179"/>
      <point x="96" y="-129"/>
      <point x="121" y="-23" type="curve" smooth="yes"/>
      <point x="158" y="132"/>
      <point x="402" y="269"/>
      <point x="439" y="419" type="curve" smooth="yes"/>
      <point x="458" y="493"/>
      <point x="422" y="546"/>
      <point x="307" y="546" type="curve" smooth="yes"/>
      <point x="294" y="546"/>
      <point x="289" y="553"/>
    </contour>
  </outline>
</glyph>
<glyph name="asciitilde" format="2">
  <advance width="1147"/>
  <unicode hex="007E"/>
  <outline>
    <contour>
      <point x="854" y="556" type="curve" smooth="yes"/>
      <point x="974" y="556"/>
      <point x="1083" y="668"/>
      <point x="1112" y="790" type="curve" smooth="yes"/>
      <point x="1118" y="821"/>
      <point x="1108" y="840"/>
      <point x="1089" y="840" type="curve" smooth="yes"/>
      <point x="1069" y="840"/>
      <point x="1053" y="827"/>
      <point x="1043" y="796" type="curve" smooth="yes"/>
      <point x="1006" y="681"/>
      <point x="944" y="636"/>
      <point x="877" y="636" type="curve" smooth="yes"/>
      <point x="727" y="636"/>
      <point x="629" y="860"/>
      <point x="452" y="860" type="curve" smooth="yes"/>
      <point x="317" y="860"/>
      <point x="201" y="733"/>
      <point x="155" y="585" type="curve" smooth="yes"/>
      <point x="147" y="561"/>
      <point x="155" y="545"/>
      <point x="173" y="545" type="curve" smooth="yes"/>
      <point x="192" y="545"/>
      <point x="209" y="556"/>
      <point x="219" y="584" type="curve" smooth="yes"/>
      <point x="263" y="710"/>
      <point x="337" y="790"/>
      <point x="430" y="790" type="curve" smooth="yes"/>
      <point x="568" y="790"/>
      <point x="683" y="556"/>
    </contour>
  </outline>
</glyph>
<glyph name="brokenbar" format="2">
  <advance width="556"/>
  <unicode hex="00A6"/>
  <outline>
    <contour>
      <point x="363" y="691" type="curve" smooth="yes"/>
      <point x="420" y="924"/>
      <point x="491" y="1163"/>
      <point x="531" y="1328" type="curve" smooth="yes"/>
      <point x="544" y="1382"/>
      <point x="539" y="1413"/>
      <point x="513" y="1413" type="curve" smooth="yes"/>
      <point x="486" y="1413"/>
      <point x="463" y="1382"/>
      <point x="450" y="1328" type="curve" smooth="yes"/>
      <point x="409" y="1163"/>
      <point x="361" y="925"/>
      <point x="303" y="691" type="curve" smooth="yes"/>
      <point x="296" y="661"/>
      <point x="303" y="648"/>
      <point x="321" y="648" type="curve" smooth="yes"/>
      <point x="343" y="648"/>
      <point x="355" y="660"/>
    </contour>
    <contour>
      <point x="242" y="448" type="curve" smooth="yes"/>
      <point x="186" y="215"/>
      <point x="115" y="-24"/>
      <point x="75" y="-189" type="curve" smooth="yes"/>
      <point x="61" y="-243"/>
      <point x="67" y="-274"/>
      <point x="93" y="-274" type="curve" smooth="yes"/>
      <point x="120" y="-274"/>
      <point x="142" y="-243"/>
      <point x="156" y="-189" type="curve" smooth="yes"/>
      <point x="197" y="-24"/>
      <point x="244" y="214"/>
      <point x="302" y="448" type="curve" smooth="yes"/>
      <point x="310" y="477"/>
      <point x="303" y="491"/>
      <point x="285" y="491" type="curve" smooth="yes"/>
      <point x="263" y="491"/>
      <point x="251" y="479"/>
    </contour>
  </outline>
</glyph>
<glyph name="section" format="2">
  <advance width="901"/>
  <unicode hex="00A7"/>
  <outline>
    <contour>
      <point x="320" y="-362" type="curve" smooth="yes"/>
      <point x="491" y="-362"/>
      <point x="620" y="-257"/>
      <point x="654" y="-130" type="curve" smooth="yes"/>
      <point x="695" y="27"/>
      <point x="652" y="158"/>
      <point x="423" y="272" type="curve" smooth="yes"/>
      <point x="241" y="362"/>
      <point x="203" y="463"/>
      <point x="236" y="605" type="curve" smooth="yes"/>
      <point x="261" y="711"/>
      <point x="358" y="804"/>
      <point x="476" y="821" type="curve"/>
      <point x="438" y="862" type="line"/>
      <point x="309" y="826"/>
      <point x="205" y="728"/>
      <point x="177" y="618" type="curve" smooth="yes"/>
      <point x="136" y="450"/>
      <point x="191" y="311"/>
      <point x="383" y="222" type="curve" smooth="yes"/>
      <point x="578" y="135"/>
      <point x="632" y="14"/>
      <point x="598" y="-112" type="curve" smooth="yes"/>
      <point x="566" y="-229"/>
      <point x="464" y="-307"/>
      <point x="337" y="-307" type="curve" smooth="yes"/>
      <point x="204" y="-307"/>
      <point x="89" y="-240"/>
      <point x="63" y="-90" type="curve" smooth="yes"/>
      <point x="59" y="-65"/>
      <point x="50" y="-60"/>
      <point x="37" y="-62" type="curve" smooth="yes"/>
      <point x="20" y="-66"/>
      <point x="12" y="-82"/>
      <point x="12" y="-105" type="curve" smooth="yes"/>
      <point x="17" y="-334" type="line" smooth="yes"/>
      <point x="18" y="-351"/>
      <point x="25" y="-358"/>
      <point x="37" y="-358" type="curve" smooth="yes"/>
      <point x="64" y="-358"/>
      <point x="71" y="-282"/>
      <point x="86" y="-282" type="curve" smooth="yes"/>
      <point x="103" y="-282"/>
      <point x="176" y="-362"/>
    </contour>
    <contour>
      <point x="676" y="1376" type="curve" smooth="yes"/>
      <point x="787" y="1376"/>
      <point x="855" y="1316"/>
      <point x="881" y="1203" type="curve" smooth="yes"/>
      <point x="889" y="1164" type="line" smooth="yes"/>
      <point x="894" y="1145"/>
      <point x="907" y="1123"/>
      <point x="935" y="1123" type="curve" smooth="yes"/>
      <point x="954" y="1123"/>
      <point x="972" y="1148"/>
      <point x="972" y="1175" type="curve" smooth="yes"/>
      <point x="971" y="1302"/>
      <point x="869" y="1427"/>
      <point x="686" y="1427" type="curve" smooth="yes"/>
      <point x="523" y="1427"/>
      <point x="368" y="1312"/>
      <point x="329" y="1151" type="curve" smooth="yes"/>
      <point x="286" y="979"/>
      <point x="361" y="855"/>
      <point x="536" y="769" type="curve" smooth="yes"/>
      <point x="739" y="672"/>
      <point x="786" y="555"/>
      <point x="755" y="443" type="curve" smooth="yes"/>
      <point x="724" y="333"/>
      <point x="626" y="232"/>
      <point x="487" y="232" type="curve"/>
      <point x="482" y="183" type="line"/>
      <point x="640" y="183"/>
      <point x="777" y="288"/>
      <point x="811" y="425" type="curve" smooth="yes"/>
      <point x="850" y="583"/>
      <point x="783" y="715"/>
      <point x="569" y="822" type="curve" smooth="yes"/>
      <point x="413" y="899"/>
      <point x="353" y="1016"/>
      <point x="386" y="1142" type="curve" smooth="yes"/>
      <point x="423" y="1285"/>
      <point x="535" y="1376"/>
    </contour>
  </outline>
</glyph>
<glyph name="copyright" format="2">
  <advance width="1464"/>
  <unicode hex="00A9"/>
  <outline>
    <contour>
      <point x="604" y="-60" type="curve" smooth="yes"/>
      <point x="214" y="-60"/>
      <point x="9" y="269"/>
      <point x="128" y="704" type="curve" smooth="yes"/>
      <point x="238" y="1100"/>
      <point x="588" y="1366"/>
      <point x="995" y="1366" type="curve" smooth="yes"/>
      <point x="1372" y="1366"/>
      <point x="1579" y="1047"/>
      <point x="1458" y="604" type="curve" smooth="yes"/>
      <point x="1345" y="191"/>
      <point x="999" y="-60"/>
    </contour>
    <contour>
      <point x="619" y="-9" type="curve" smooth="yes"/>
      <point x="969" y="-9"/>
      <point x="1301" y="249"/>
      <point x="1399" y="605" type="curve" smooth="yes"/>
      <point x="1510" y="1013"/>
      <point x="1323" y="1315"/>
      <point x="981" y="1315" type="curve" smooth="yes"/>
      <point x="612" y="1315"/>
      <point x="283" y="1053"/>
      <point x="189" y="705" type="curve" smooth="yes"/>
      <point x="78" y="294"/>
      <point x="258" y="-9"/>
    </contour>
    <contour>
      <point x="1088" y="411" type="curve" smooth="yes"/>
      <point x="1091" y="423"/>
      <point x="1087" y="430"/>
      <point x="1078" y="429" type="curve" smooth="yes"/>
      <point x="1049" y="428"/>
      <point x="1040" y="376"/>
      <point x="951" y="310" type="curve" smooth="yes"/>
      <point x="891" y="266"/>
      <point x="807" y="231"/>
      <point x="707" y="231" type="curve" smooth="yes"/>
      <point x="523" y="231"/>
      <point x="409" y="416"/>
      <point x="490" y="714" type="curve" smooth="yes"/>
      <point x="549" y="935"/>
      <point x="749" y="1089"/>
      <point x="915" y="1089" type="curve" smooth="yes"/>
      <point x="1058" y="1089"/>
      <point x="1139" y="1022"/>
      <point x="1172" y="859" type="curve" smooth="yes"/>
      <point x="1174" y="846"/>
      <point x="1183" y="834"/>
      <point x="1195" y="834" type="curve" smooth="yes"/>
      <point x="1210" y="833"/>
      <point x="1222" y="850"/>
      <point x="1222" y="868" type="curve" smooth="yes"/>
      <point x="1210" y="1091" type="line" smooth="yes"/>
      <point x="1208" y="1106"/>
      <point x="1202" y="1110"/>
      <point x="1194" y="1110" type="curve" smooth="yes"/>
      <point x="1166" y="1110"/>
      <point x="1157" y="1054"/>
      <point x="1142" y="1054" type="curve" smooth="yes"/>
      <point x="1125" y="1054"/>
      <point x="1082" y="1136"/>
      <point x="937" y="1136" type="curve" smooth="yes"/>
      <point x="711" y="1136"/>
      <point x="490" y="952"/>
      <point x="420" y="695" type="curve" smooth="yes"/>
      <point x="339" y="393"/>
      <point x="445" y="178"/>
      <point x="684" y="178" type="curve" smooth="yes"/>
      <point x="892" y="178"/>
      <point x="1064" y="330"/>
    </contour>
  </outline>
</glyph>
<glyph name="ordfeminine" format="2">
  <advance width="789"/>
  <unicode hex="00AA"/>
  <outline>
    <contour>
      <point x="677" y="753" type="curve" smooth="yes"/>
      <point x="811" y="1286" type="line" smooth="yes"/>
      <point x="816" y="1311"/>
      <point x="842" y="1333"/>
      <point x="842" y="1359" type="curve" smooth="yes"/>
      <point x="841" y="1398"/>
      <point x="786" y="1420"/>
      <point x="712" y="1420" type="curve" smooth="yes"/>
      <point x="449" y="1420"/>
      <point x="158" y="1117"/>
      <point x="160" y="799" type="curve" smooth="yes"/>
      <point x="161" y="677"/>
      <point x="217" y="634"/>
      <point x="298" y="634" type="curve" smooth="yes"/>
      <point x="443" y="634"/>
      <point x="616" y="787"/>
      <point x="738" y="1091" type="curve"/>
      <point x="729" y="1090" type="line"/>
      <point x="634" y="790"/>
      <point x="618" y="742"/>
      <point x="618" y="696" type="curve" smooth="yes"/>
      <point x="618" y="649"/>
      <point x="643" y="634"/>
      <point x="686" y="634" type="curve" smooth="yes"/>
      <point x="744" y="634"/>
      <point x="800" y="674"/>
      <point x="818" y="703" type="curve" smooth="yes"/>
      <point x="828" y="717"/>
      <point x="826" y="730"/>
      <point x="816" y="736" type="curve" smooth="yes"/>
      <point x="807" y="741"/>
      <point x="796" y="732"/>
      <point x="775" y="716" type="curve" smooth="yes"/>
      <point x="750" y="697"/>
      <point x="729" y="684"/>
      <point x="706" y="684" type="curve" smooth="yes"/>
      <point x="668" y="684"/>
      <point x="666" y="710"/>
    </contour>
    <contour>
      <point x="213" y="822" type="curve" smooth="yes"/>
      <point x="211" y="1095"/>
      <point x="473" y="1372"/>
      <point x="691" y="1372" type="curve" smooth="yes"/>
      <point x="741" y="1372"/>
      <point x="769" y="1357"/>
      <point x="769" y="1318" type="curve" smooth="yes"/>
      <point x="770" y="1123"/>
      <point x="496" y="682"/>
      <point x="317" y="682" type="curve" smooth="yes"/>
      <point x="248" y="682"/>
      <point x="213" y="714"/>
    </contour>
  </outline>
</glyph>
<glyph name="logicalnot" format="2">
  <advance width="950"/>
  <unicode hex="00AC"/>
  <outline>
    <contour>
      <point x="184" y="786" type="curve" smooth="yes"/>
      <point x="179" y="764"/>
      <point x="193" y="752"/>
      <point x="214" y="752" type="curve" smooth="yes"/>
      <point x="839" y="752" type="line"/>
      <point x="828" y="782" type="line"/>
      <point x="750" y="470" type="line" smooth="yes"/>
      <point x="746" y="450"/>
      <point x="751" y="432"/>
      <point x="768" y="432" type="curve" smooth="yes"/>
      <point x="788" y="432"/>
      <point x="804" y="448"/>
      <point x="809" y="469" type="curve" smooth="yes"/>
      <point x="886" y="777" type="line" smooth="yes"/>
      <point x="892" y="803"/>
      <point x="880" y="818"/>
      <point x="857" y="818" type="curve" smooth="yes"/>
      <point x="232" y="818" type="line" smooth="yes"/>
      <point x="211" y="818"/>
      <point x="190" y="806"/>
    </contour>
  </outline>
</glyph>
<glyph name="registered" format="2">
  <advance width="1238"/>
  <unicode hex="00AE"/>
  <outline>
    <contour>
      <point x="563" y="281" type="curve" smooth="yes"/>
      <point x="225" y="281"/>
      <point x="53" y="543"/>
      <point x="141" y="896" type="curve" smooth="yes"/>
      <point x="228" y="1245"/>
      <point x="530" y="1494"/>
      <point x="864" y="1494" type="curve" smooth="yes"/>
      <point x="1197" y="1494"/>
      <point x="1378" y="1246"/>
      <point x="1293" y="900" type="curve" smooth="yes"/>
      <point x="1204" y="544"/>
      <point x="899" y="281"/>
    </contour>
    <contour>
      <point x="576" y="336" type="curve" smooth="yes"/>
      <point x="876" y="336"/>
      <point x="1152" y="578"/>
      <point x="1232" y="901" type="curve" smooth="yes"/>
      <point x="1309" y="1212"/>
      <point x="1146" y="1438"/>
      <point x="850" y="1438" type="curve" smooth="yes"/>
      <point x="552" y="1438"/>
      <point x="281" y="1214"/>
      <point x="203" y="897" type="curve" smooth="yes"/>
      <point x="123" y="577"/>
      <point x="274" y="336"/>
    </contour>
    <contour>
      <point x="995" y="1007" type="curve" smooth="yes"/>
      <point x="1031" y="1149"/>
      <point x="949" y="1268"/>
      <point x="794" y="1268" type="curve" smooth="yes"/>
      <point x="575" y="1268" type="line" smooth="yes"/>
      <point x="561" y="1268"/>
      <point x="551" y="1259"/>
      <point x="548" y="1246" type="curve" smooth="yes"/>
      <point x="544" y="1231"/>
      <point x="552" y="1224"/>
      <point x="567" y="1220" type="curve" smooth="yes"/>
      <point x="593" y="1213" type="line" smooth="yes"/>
      <point x="613" y="1208"/>
      <point x="618" y="1187"/>
      <point x="608" y="1148" type="curve" smooth="yes"/>
      <point x="610" y="1153"/>
      <point x="482" y="641"/>
      <point x="483" y="646" type="curve" smooth="yes"/>
      <point x="474" y="607"/>
      <point x="457" y="587"/>
      <point x="436" y="581" type="curve" smooth="yes"/>
      <point x="406" y="574" type="line" smooth="yes"/>
      <point x="390" y="569"/>
      <point x="378" y="566"/>
      <point x="376" y="554" type="curve" smooth="yes"/>
      <point x="373" y="544"/>
      <point x="379" y="538"/>
      <point x="393" y="538" type="curve" smooth="yes"/>
      <point x="587" y="538" type="line" smooth="yes"/>
      <point x="601" y="538"/>
      <point x="609" y="544"/>
      <point x="612" y="554" type="curve" smooth="yes"/>
      <point x="615" y="566"/>
      <point x="606" y="571"/>
      <point x="590" y="574" type="curve" smooth="yes"/>
      <point x="562" y="581" type="line" smooth="yes"/>
      <point x="536" y="587"/>
      <point x="528" y="607"/>
      <point x="537" y="646" type="curve" smooth="yes"/>
      <point x="536" y="642"/>
      <point x="661" y="1143"/>
      <point x="660" y="1141" type="curve" smooth="yes"/>
      <point x="674" y="1197"/>
      <point x="701" y="1221"/>
      <point x="782" y="1221" type="curve" smooth="yes"/>
      <point x="908" y="1221"/>
      <point x="969" y="1128"/>
      <point x="937" y="998" type="curve" smooth="yes"/>
      <point x="917" y="912"/>
      <point x="827" y="848"/>
      <point x="722" y="848" type="curve" smooth="yes"/>
      <point x="685" y="848"/>
      <point x="613" y="861"/>
      <point x="566" y="899" type="curve"/>
      <point x="546" y="855" type="line"/>
      <point x="591" y="823"/>
      <point x="656" y="801"/>
      <point x="714" y="801" type="curve" smooth="yes"/>
      <point x="730" y="801"/>
      <point x="748" y="801"/>
      <point x="764" y="805" type="curve" smooth="yes"/>
      <point x="862" y="824"/>
      <point x="967" y="896"/>
    </contour>
    <contour>
      <point x="712" y="826" type="line"/>
      <point x="751" y="617" type="line" smooth="yes"/>
      <point x="763" y="553"/>
      <point x="796" y="523"/>
      <point x="844" y="523" type="curve" smooth="yes"/>
      <point x="886" y="523"/>
      <point x="910" y="545"/>
      <point x="925" y="576" type="curve" smooth="yes"/>
      <point x="934" y="593"/>
      <point x="931" y="609"/>
      <point x="921" y="614" type="curve" smooth="yes"/>
      <point x="912" y="617"/>
      <point x="905" y="612"/>
      <point x="896" y="602" type="curve" smooth="yes"/>
      <point x="886" y="591"/>
      <point x="872" y="578"/>
      <point x="855" y="578" type="curve" smooth="yes"/>
      <point x="833" y="578"/>
      <point x="815" y="592"/>
      <point x="808" y="625" type="curve" smooth="yes"/>
      <point x="766" y="842" type="line"/>
    </contour>
  </outline>
</glyph>
<glyph name="twosuperior" format="2">
  <advance width="589"/>
  <unicode hex="00B2"/>
  <outline>
    <contour>
      <point x="223" y="818" type="line"/>
      <point x="438" y="969" type="line" smooth="yes"/>
      <point x="599" y="1082"/>
      <point x="661" y="1149"/>
      <point x="680" y="1226" type="curve" smooth="yes"/>
      <point x="708" y="1339"/>
      <point x="665" y="1421"/>
      <point x="539" y="1421" type="curve" smooth="yes"/>
      <point x="404" y="1421"/>
      <point x="308" y="1335"/>
      <point x="284" y="1241" type="curve" smooth="yes"/>
      <point x="277" y="1209"/>
      <point x="285" y="1192"/>
      <point x="306" y="1192" type="curve" smooth="yes"/>
      <point x="325" y="1192"/>
      <point x="343" y="1205"/>
      <point x="350" y="1234" type="curve" smooth="yes"/>
      <point x="359" y="1265" type="line" smooth="yes"/>
      <point x="373" y="1326"/>
      <point x="431" y="1380"/>
      <point x="524" y="1380" type="curve" smooth="yes"/>
      <point x="609" y="1380"/>
      <point x="646" y="1329"/>
      <point x="623" y="1237" type="curve" smooth="yes"/>
      <point x="601" y="1154"/>
      <point x="542" y="1095"/>
      <point x="404" y="994" type="curve" smooth="yes"/>
      <point x="201" y="845" type="line"/>
    </contour>
    <contour>
      <point x="156" y="776" type="curve" smooth="yes"/>
      <point x="149" y="748"/>
      <point x="159" y="733"/>
      <point x="178" y="733" type="curve" smooth="yes"/>
      <point x="200" y="733"/>
      <point x="217" y="746"/>
      <point x="227" y="773" type="curve" smooth="yes"/>
      <point x="239" y="807"/>
      <point x="255" y="829"/>
      <point x="284" y="829" type="curve" smooth="yes"/>
      <point x="311" y="829"/>
      <point x="327" y="818"/>
      <point x="355" y="790" type="curve" smooth="yes"/>
      <point x="393" y="753"/>
      <point x="423" y="733"/>
      <point x="473" y="733" type="curve" smooth="yes"/>
      <point x="536" y="733"/>
      <point x="581" y="769"/>
      <point x="616" y="853" type="curve" smooth="yes"/>
      <point x="622" y="868"/>
      <point x="620" y="875"/>
      <point x="606" y="876" type="curve" smooth="yes"/>
      <point x="597" y="879"/>
      <point x="585" y="874"/>
      <point x="576" y="861" type="curve" smooth="yes"/>
      <point x="549" y="812"/>
      <point x="526" y="786"/>
      <point x="484" y="786" type="curve" smooth="yes"/>
      <point x="414" y="786"/>
      <point x="368" y="876"/>
      <point x="291" y="876" type="curve" smooth="yes"/>
      <point x="219" y="876"/>
      <point x="169" y="828"/>
    </contour>
  </outline>
</glyph>
<glyph name="threesuperior" format="2">
  <advance width="508"/>
  <unicode hex="00B3"/>
  <outline>
    <contour>
      <point x="362" y="1082" type="line"/>
      <point x="658" y="1351" type="line" smooth="yes"/>
      <point x="673" y="1365"/>
      <point x="684" y="1374"/>
      <point x="688" y="1385" type="curve" smooth="yes"/>
      <point x="690" y="1394"/>
      <point x="683" y="1401"/>
      <point x="672" y="1401" type="curve" smooth="yes"/>
      <point x="350" y="1401" type="line" smooth="yes"/>
      <point x="326" y="1401"/>
      <point x="315" y="1390"/>
      <point x="308" y="1371" type="curve" smooth="yes"/>
      <point x="275" y="1280" type="line" smooth="yes"/>
      <point x="267" y="1259"/>
      <point x="270" y="1248"/>
      <point x="284" y="1248" type="curve" smooth="yes"/>
      <point x="297" y="1248"/>
      <point x="308" y="1257"/>
      <point x="318" y="1277" type="curve" smooth="yes"/>
      <point x="340" y="1320" type="line" smooth="yes"/>
      <point x="351" y="1342"/>
      <point x="361" y="1352"/>
      <point x="382" y="1352" type="curve" smooth="yes"/>
      <point x="637" y="1352" type="line"/>
      <point x="642" y="1383" type="line"/>
      <point x="358" y="1125" type="line" smooth="yes"/>
      <point x="342" y="1111"/>
      <point x="331" y="1101"/>
      <point x="327" y="1086" type="curve" smooth="yes"/>
      <point x="323" y="1072"/>
      <point x="332" y="1065"/>
      <point x="345" y="1065" type="curve" smooth="yes"/>
      <point x="376" y="1065" type="line" smooth="yes"/>
      <point x="502" y="1065"/>
      <point x="538" y="1010"/>
      <point x="512" y="907" type="curve" smooth="yes"/>
      <point x="489" y="816"/>
      <point x="409" y="766"/>
      <point x="325" y="766" type="curve" smooth="yes"/>
      <point x="238" y="766"/>
      <point x="204" y="801"/>
      <point x="216" y="852" type="curve" smooth="yes"/>
      <point x="225" y="886" type="line" smooth="yes"/>
      <point x="230" y="914"/>
      <point x="227" y="928"/>
      <point x="208" y="928" type="curve" smooth="yes"/>
      <point x="187" y="928"/>
      <point x="169" y="911"/>
      <point x="162" y="880" type="curve" smooth="yes"/>
      <point x="140" y="797"/>
      <point x="190" y="722"/>
      <point x="309" y="722" type="curve" smooth="yes"/>
      <point x="429" y="722"/>
      <point x="536" y="792"/>
      <point x="563" y="904" type="curve" smooth="yes"/>
      <point x="590" y="1019"/>
      <point x="542" y="1104"/>
      <point x="403" y="1104" type="curve" smooth="yes"/>
      <point x="398" y="1104"/>
      <point x="375" y="1104"/>
      <point x="371" y="1103" type="curve"/>
    </contour>
  </outline>
</glyph>
<glyph name="onesuperior" format="2">
  <advance width="424"/>
  <unicode hex="00B9"/>
  <outline>
    <contour>
      <point x="297" y="1327" type="line" smooth="yes"/>
      <point x="282" y="1327"/>
      <point x="276" y="1336"/>
      <point x="281" y="1354" type="curve" smooth="yes"/>
      <point x="284" y="1367"/>
      <point x="295" y="1377"/>
      <point x="309" y="1377" type="curve" smooth="yes"/>
      <point x="391" y="1377" type="line" smooth="yes"/>
      <point x="408" y="1377"/>
      <point x="416" y="1384"/>
      <point x="431" y="1407" type="curve" smooth="yes"/>
      <point x="440" y="1419"/>
      <point x="451" y="1425"/>
      <point x="463" y="1425" type="curve" smooth="yes"/>
      <point x="478" y="1425"/>
      <point x="485" y="1418"/>
      <point x="480" y="1396" type="curve" smooth="yes"/>
      <point x="337" y="828" type="line" smooth="yes"/>
      <point x="333" y="804"/>
      <point x="337" y="788"/>
      <point x="365" y="786" type="curve" smooth="yes"/>
      <point x="434" y="782" type="line" smooth="yes"/>
      <point x="445" y="781"/>
      <point x="449" y="770"/>
      <point x="446" y="758" type="curve" smooth="yes"/>
      <point x="443" y="746"/>
      <point x="436" y="739"/>
      <point x="422" y="739" type="curve" smooth="yes"/>
      <point x="146" y="739" type="line" smooth="yes"/>
      <point x="134" y="739"/>
      <point x="128" y="746"/>
      <point x="132" y="758" type="curve" smooth="yes"/>
      <point x="135" y="770"/>
      <point x="145" y="781"/>
      <point x="158" y="782" type="curve" smooth="yes"/>
      <point x="237" y="786" type="line" smooth="yes"/>
      <point x="261" y="788"/>
      <point x="279" y="804"/>
      <point x="284" y="829" type="curve" smooth="yes"/>
      <point x="400" y="1287" type="line" smooth="yes"/>
      <point x="408" y="1320"/>
      <point x="402" y="1327"/>
      <point x="377" y="1327" type="curve" smooth="yes"/>
    </contour>
  </outline>
</glyph>
<glyph name="AE" format="2">
  <advance width="1623"/>
  <unicode hex="00C6"/>
  <outline>
    <contour>
      <point x="1153" y="1400" type="line"/>
      <point x="907" y="1400" type="line" smooth="yes"/>
      <point x="889" y="1400"/>
      <point x="877" y="1393"/>
      <point x="874" y="1379" type="curve" smooth="yes"/>
      <point x="869" y="1364"/>
      <point x="889" y="1361"/>
      <point x="923" y="1354" type="curve" smooth="yes"/>
      <point x="961" y="1346"/>
      <point x="975" y="1341"/>
      <point x="949" y="1307" type="curve" smooth="yes"/>
      <point x="41" y="134" type="line" smooth="yes"/>
      <point x="0" y="80"/>
      <point x="-19" y="61"/>
      <point x="-57" y="55" type="curve" smooth="yes"/>
      <point x="-103" y="46" type="line" smooth="yes"/>
      <point x="-126" y="42"/>
      <point x="-141" y="36"/>
      <point x="-145" y="21" type="curve" smooth="yes"/>
      <point x="-148" y="7"/>
      <point x="-140" y="0"/>
      <point x="-121" y="0" type="curve" smooth="yes"/>
      <point x="189" y="0" type="line" smooth="yes"/>
      <point x="207" y="0"/>
      <point x="218" y="7"/>
      <point x="222" y="21" type="curve" smooth="yes"/>
      <point x="226" y="36"/>
      <point x="215" y="45"/>
      <point x="194" y="46" type="curve" smooth="yes"/>
      <point x="103" y="56" type="line" smooth="yes"/>
      <point x="58" y="60"/>
      <point x="66" y="82"/>
      <point x="107" y="134" type="curve" smooth="yes"/>
      <point x="1048" y="1361" type="line"/>
      <point x="1152" y="1358" type="line"/>
    </contour>
    <contour>
      <point x="431" y="586" type="line"/>
      <point x="392" y="534" type="line"/>
      <point x="916" y="534" type="line"/>
      <point x="916" y="586" type="line"/>
    </contour>
    <contour>
      <point x="949" y="708" type="line"/>
      <point x="937" y="663" type="line"/>
      <point x="1339" y="663" type="line" smooth="yes"/>
      <point x="1390" y="663"/>
      <point x="1413" y="647"/>
      <point x="1436" y="556" type="curve" smooth="yes"/>
      <point x="1443" y="532"/>
      <point x="1453" y="523"/>
      <point x="1469" y="523" type="curve" smooth="yes"/>
      <point x="1480" y="523"/>
      <point x="1493" y="536"/>
      <point x="1487" y="562" type="curve" smooth="yes"/>
      <point x="1426" y="844" type="line" smooth="yes"/>
      <point x="1424" y="854"/>
      <point x="1417" y="865"/>
      <point x="1400" y="865" type="curve" smooth="yes"/>
      <point x="1388" y="865"/>
      <point x="1380" y="855"/>
      <point x="1383" y="836" type="curve" smooth="yes"/>
      <point x="1398" y="735"/>
      <point x="1378" y="708"/>
      <point x="1321" y="708" type="curve" smooth="yes"/>
    </contour>
    <contour>
      <point x="1262" y="0" type="line" smooth="yes"/>
      <point x="1293" y="0"/>
      <point x="1307" y="-30"/>
      <point x="1330" y="-30" type="curve" smooth="yes"/>
      <point x="1427" y="-30"/>
      <point x="1537" y="134"/>
      <point x="1537" y="272" type="curve" smooth="yes"/>
      <point x="1537" y="285"/>
      <point x="1531" y="294"/>
      <point x="1521" y="294" type="curve" smooth="yes"/>
      <point x="1516" y="294"/>
      <point x="1506" y="287"/>
      <point x="1504" y="278" type="curve" smooth="yes"/>
      <point x="1453" y="106"/>
      <point x="1365" y="45"/>
      <point x="1237" y="45" type="curve" smooth="yes"/>
      <point x="884" y="45" type="line" smooth="yes"/>
      <point x="843" y="45"/>
      <point x="819" y="78"/>
      <point x="834" y="134" type="curve" smooth="yes"/>
      <point x="853" y="208"/>
      <point x="1065" y="1073"/>
      <point x="1140" y="1360" type="curve"/>
      <point x="1503" y="1360" type="line" smooth="yes"/>
      <point x="1563" y="1360"/>
      <point x="1611" y="1330"/>
      <point x="1667" y="1193" type="curve" smooth="yes"/>
      <point x="1678" y="1168"/>
      <point x="1688" y="1152"/>
      <point x="1705" y="1152" type="curve" smooth="yes"/>
      <point x="1719" y="1152"/>
      <point x="1732" y="1167"/>
      <point x="1724" y="1197" type="curve" smooth="yes"/>
      <point x="1672" y="1407" type="line" smooth="yes"/>
      <point x="1665" y="1433"/>
      <point x="1660" y="1442"/>
      <point x="1643" y="1442" type="curve" smooth="yes"/>
      <point x="1617" y="1442"/>
      <point x="1590" y="1400"/>
      <point x="1552" y="1400" type="curve" smooth="yes"/>
      <point x="1096" y="1400" type="line"/>
      <point x="1031" y="1099"/>
      <point x="800" y="213"/>
      <point x="777" y="137" type="curve" smooth="yes"/>
      <point x="762" y="87"/>
      <point x="734" y="70"/>
      <point x="688" y="62" type="curve" smooth="yes"/>
      <point x="617" y="48" type="line" smooth="yes"/>
      <point x="598" y="44"/>
      <point x="586" y="38"/>
      <point x="586" y="23" type="curve" smooth="yes"/>
      <point x="586" y="11"/>
      <point x="594" y="0"/>
      <point x="611" y="0" type="curve" smooth="yes"/>
    </contour>
  </outline>
</glyph>
<glyph name="Eth" format="2">
  <advance width="1305"/>
  <unicode hex="00D0"/>
  <outline>
    <contour>
      <point x="66" y="721" type="curve" smooth="yes"/>
      <point x="62" y="704"/>
      <point x="67" y="693"/>
      <point x="84" y="693" type="curve" smooth="yes"/>
      <point x="633" y="693" type="line" smooth="yes"/>
      <point x="652" y="693"/>
      <point x="660" y="704"/>
      <point x="665" y="721" type="curve" smooth="yes"/>
      <point x="669" y="738"/>
      <point x="665" y="748"/>
      <point x="647" y="748" type="curve" smooth="yes"/>
      <point x="98" y="748" type="line" smooth="yes"/>
      <point x="81" y="748"/>
      <point x="71" y="738"/>
    </contour>
    <component base="D" xOffset="-42"/>
  </outline>
</glyph>
<glyph name="multiply" format="2">
  <advance width="822"/>
  <unicode hex="00D7"/>
  <outline>
    <contour>
      <point x="99" y="322" type="curve" smooth="yes"/>
      <point x="114" y="307"/>
      <point x="135" y="311"/>
      <point x="159" y="334" type="curve" smooth="yes"/>
      <point x="826" y="982" type="line" smooth="yes"/>
      <point x="848" y="1002"/>
      <point x="853" y="1025"/>
      <point x="838" y="1039" type="curve" smooth="yes"/>
      <point x="826" y="1050"/>
      <point x="807" y="1045"/>
      <point x="785" y="1026" type="curve" smooth="yes"/>
      <point x="118" y="378" type="line" smooth="yes"/>
      <point x="96" y="358"/>
      <point x="88" y="335"/>
    </contour>
    <contour>
      <point x="655" y="326" type="curve" smooth="yes"/>
      <point x="671" y="335"/>
      <point x="669" y="358"/>
      <point x="659" y="376" type="curve" smooth="yes"/>
      <point x="319" y="1007" type="line" smooth="yes"/>
      <point x="306" y="1031"/>
      <point x="290" y="1036"/>
      <point x="277" y="1029" type="curve" smooth="yes"/>
      <point x="262" y="1020"/>
      <point x="256" y="999"/>
      <point x="266" y="983" type="curve" smooth="yes"/>
      <point x="605" y="349" type="line" smooth="yes"/>
      <point x="618" y="325"/>
      <point x="638" y="314"/>
    </contour>
  </outline>
</glyph>
<glyph name="Oslash" format="2">
  <advance width="1328"/>
  <unicode hex="00D8"/>
  <outline>
    <contour>
      <point x="75" y="-67" type="curve" smooth="yes"/>
      <point x="87" y="-76"/>
      <point x="99" y="-74"/>
      <point x="111" y="-60" type="curve" smooth="yes"/>
      <point x="1341" y="1461" type="line" smooth="yes"/>
      <point x="1354" y="1477"/>
      <point x="1353" y="1488"/>
      <point x="1341" y="1497" type="curve" smooth="yes"/>
      <point x="1330" y="1507"/>
      <point x="1318" y="1505"/>
      <point x="1305" y="1490" type="curve" smooth="yes"/>
      <point x="74" y="-31" type="line" smooth="yes"/>
      <point x="62" y="-47"/>
      <point x="64" y="-59"/>
    </contour>
    <component base="O" xOffset="-42"/>
  </outline>
</glyph>
<glyph name="Thorn" format="2">
  <advance width="977"/>
  <unicode hex="00DE"/>
  <outline>
    <contour>
      <point x="225" y="155" type="curve" smooth="yes"/>
      <point x="239" y="232"/>
      <point x="459" y="1106"/>
      <point x="506" y="1269" type="curve" smooth="yes"/>
      <point x="517" y="1310"/>
      <point x="544" y="1333"/>
      <point x="595" y="1343" type="curve" smooth="yes"/>
      <point x="654" y="1354" type="line" smooth="yes"/>
      <point x="689" y="1362"/>
      <point x="699" y="1369"/>
      <point x="699" y="1385" type="curve" smooth="yes"/>
      <point x="699" y="1398"/>
      <point x="693" y="1400"/>
      <point x="670" y="1400" type="curve" smooth="yes"/>
      <point x="366" y="1400" type="line" smooth="yes"/>
      <point x="329" y="1400"/>
      <point x="310" y="1398"/>
      <point x="310" y="1384" type="curve" smooth="yes"/>
      <point x="310" y="1365"/>
      <point x="319" y="1357"/>
      <point x="348" y="1352" type="curve" smooth="yes"/>
      <point x="397" y="1342" type="line" smooth="yes"/>
      <point x="445" y="1333"/>
      <point x="451" y="1304"/>
      <point x="439" y="1245" type="curve" smooth="yes"/>
      <point x="414" y="1105"/>
      <point x="191" y="237"/>
      <point x="164" y="154" type="curve" smooth="yes"/>
      <point x="148" y="100"/>
      <point x="115" y="61"/>
      <point x="62" y="53" type="curve" smooth="yes"/>
      <point x="6" y="46" type="line" smooth="yes"/>
      <point x="-22" y="42"/>
      <point x="-33" y="31"/>
      <point x="-31" y="19" type="curve" smooth="yes"/>
      <point x="-31" y="5"/>
      <point x="-24" y="0"/>
      <point x="0" y="0" type="curve" smooth="yes"/>
      <point x="311" y="0" type="line" smooth="yes"/>
      <point x="329" y="0"/>
      <point x="349" y="4"/>
      <point x="349" y="16" type="curve" smooth="yes"/>
      <point x="349" y="33"/>
      <point x="340" y="43"/>
      <point x="312" y="48" type="curve" smooth="yes"/>
      <point x="269" y="56" type="line" smooth="yes"/>
      <point x="221" y="63"/>
      <point x="214" y="92"/>
    </contour>
    <contour>
      <point x="1031" y="657" type="curve" smooth="yes"/>
      <point x="1096" y="921"/>
      <point x="954" y="1122"/>
      <point x="619" y="1122" type="curve" smooth="yes"/>
      <point x="448" y="1122" type="line"/>
      <point x="435" y="1069" type="line"/>
      <point x="614" y="1069" type="line" smooth="yes"/>
      <point x="919" y="1069"/>
      <point x="1034" y="894"/>
      <point x="980" y="677" type="curve" smooth="yes"/>
      <point x="931" y="475"/>
      <point x="759" y="350"/>
      <point x="538" y="355" type="curve" smooth="yes"/>
      <point x="480" y="356"/>
      <point x="352" y="366"/>
      <point x="281" y="424" type="curve"/>
      <point x="255" y="370" type="line"/>
      <point x="320" y="322"/>
      <point x="434" y="300"/>
      <point x="526" y="299" type="curve" smooth="yes"/>
      <point x="768" y="295"/>
      <point x="980" y="455"/>
    </contour>
  </outline>
</glyph>
<glyph name="ae" format="2">
  <advance width="1204"/>
  <unicode hex="00E6"/>
  <outline>
    <contour>
      <point x="609" y="383" type="curve"/>
      <point x="618" y="350" type="line"/>
      <point x="618" y="350"/>
      <point x="988" y="526"/>
      <point x="1181" y="612" type="curve" smooth="yes"/>
      <point x="1195" y="620"/>
      <point x="1206" y="627"/>
      <point x="1206" y="642" type="curve" smooth="yes"/>
      <point x="1206" y="663"/>
      <point x="1194" y="669"/>
      <point x="1178" y="663" type="curve" smooth="yes"/>
      <point x="1165" y="659"/>
      <point x="1156" y="664"/>
      <point x="1156" y="672" type="curve" smooth="yes"/>
      <point x="1157" y="769"/>
      <point x="1099" y="846"/>
      <point x="993" y="846" type="curve" smooth="yes"/>
      <point x="887" y="846"/>
      <point x="781" y="771"/>
      <point x="705" y="632" type="curve"/>
      <point x="713" y="630" type="line"/>
      <point x="765" y="754"/>
      <point x="741" y="845"/>
      <point x="619" y="845" type="curve" smooth="yes"/>
      <point x="334" y="845"/>
      <point x="26" y="514"/>
      <point x="27" y="166" type="curve" smooth="yes"/>
      <point x="28" y="33"/>
      <point x="88" y="-13"/>
      <point x="175" y="-13" type="curve" smooth="yes"/>
      <point x="306" y="-13"/>
      <point x="453" y="108"/>
      <point x="589" y="370" type="curve"/>
      <point x="582" y="374" type="line"/>
      <point x="539" y="104"/>
      <point x="629" y="-13"/>
      <point x="783" y="-13" type="curve" smooth="yes"/>
      <point x="996" y="-13"/>
      <point x="1137" y="139"/>
      <point x="1137" y="250" type="curve" smooth="yes"/>
      <point x="1137" y="267"/>
      <point x="1132" y="275"/>
      <point x="1122" y="275" type="curve" smooth="yes"/>
      <point x="1114" y="275"/>
      <point x="1110" y="270"/>
      <point x="1105" y="257" type="curve" smooth="yes"/>
      <point x="1054" y="110"/>
      <point x="937" y="33"/>
      <point x="817" y="33" type="curve" smooth="yes"/>
      <point x="707" y="33"/>
      <point x="631" y="113"/>
      <point x="631" y="290" type="curve" smooth="yes"/>
      <point x="630" y="535"/>
      <point x="830" y="806"/>
      <point x="967" y="806" type="curve" smooth="yes"/>
      <point x="1042" y="806"/>
      <point x="1091" y="748"/>
      <point x="1091" y="660" type="curve" smooth="yes"/>
      <point x="1091" y="640"/>
      <point x="1089" y="617"/>
      <point x="1086" y="601" type="curve"/>
      <point x="1094" y="613" type="line"/>
      <point x="921" y="534"/>
      <point x="609" y="383"/>
    </contour>
    <contour>
      <point x="85" y="191" type="curve" smooth="yes"/>
      <point x="84" y="492"/>
      <point x="361" y="799"/>
      <point x="592" y="799" type="curve" smooth="yes"/>
      <point x="648" y="799"/>
      <point x="680" y="781"/>
      <point x="680" y="736" type="curve" smooth="yes"/>
      <point x="681" y="520"/>
      <point x="389" y="32"/>
      <point x="199" y="32" type="curve" smooth="yes"/>
      <point x="124" y="32"/>
      <point x="85" y="68"/>
    </contour>
  </outline>
</glyph>
<glyph name="eth" format="2">
  <advance width="728"/>
  <unicode hex="00F0"/>
  <outline>
    <contour>
      <point x="679" y="358" type="curve" smooth="yes"/>
      <point x="793" y="774"/>
      <point x="658" y="1216"/>
      <point x="376" y="1330" type="curve" smooth="yes"/>
      <point x="366" y="1334"/>
      <point x="359" y="1335"/>
      <point x="350" y="1325" type="curve" smooth="yes"/>
      <point x="343" y="1317"/>
      <point x="342" y="1308"/>
      <point x="352" y="1303" type="curve" smooth="yes"/>
      <point x="542" y="1199"/>
      <point x="671" y="893"/>
      <point x="676" y="552" type="curve"/>
      <point x="684" y="554" type="line"/>
      <point x="674" y="741"/>
      <point x="590" y="841"/>
      <point x="449" y="847" type="curve" smooth="yes"/>
      <point x="262" y="856"/>
      <point x="99" y="703"/>
      <point x="41" y="493" type="curve" smooth="yes"/>
      <point x="-44" y="187"/>
      <point x="62" y="-5"/>
      <point x="248" y="-14" type="curve" smooth="yes"/>
      <point x="445" y="-24"/>
      <point x="611" y="112"/>
    </contour>
    <contour>
      <point x="261" y="33" type="curve" smooth="yes"/>
      <point x="102" y="45"/>
      <point x="21" y="222"/>
      <point x="94" y="488" type="curve" smooth="yes"/>
      <point x="150" y="690"/>
      <point x="288" y="811"/>
      <point x="451" y="802" type="curve" smooth="yes"/>
      <point x="590" y="794"/>
      <point x="691" y="629"/>
      <point x="623" y="377" type="curve" smooth="yes"/>
      <point x="560" y="142"/>
      <point x="409" y="24"/>
    </contour>
    <contour>
      <point x="822" y="1222" type="line" smooth="yes"/>
      <point x="838" y="1229"/>
      <point x="846" y="1242"/>
      <point x="842" y="1255" type="curve" smooth="yes"/>
      <point x="841" y="1268"/>
      <point x="830" y="1272"/>
      <point x="814" y="1266" type="curve" smooth="yes"/>
      <point x="344" y="1053" type="line" smooth="yes"/>
      <point x="328" y="1047"/>
      <point x="321" y="1034"/>
      <point x="323" y="1019" type="curve" smooth="yes"/>
      <point x="325" y="1007"/>
      <point x="335" y="1002"/>
      <point x="352" y="1011" type="curve" smooth="yes"/>
    </contour>
  </outline>
</glyph>
<glyph name="oslash" format="2">
  <advance width="789"/>
  <unicode hex="00F8"/>
  <outline>
    <contour>
      <point x="17" y="-88" type="curve" smooth="yes"/>
      <point x="30" y="-95"/>
      <point x="44" y="-91"/>
      <point x="56" y="-75" type="curve" smooth="yes"/>
      <point x="169" y="74" type="line"/>
      <point x="179" y="86" type="line"/>
      <point x="651" y="717" type="line"/>
      <point x="662" y="732" type="line"/>
      <point x="772" y="876" type="line" smooth="yes"/>
      <point x="786" y="893"/>
      <point x="788" y="911"/>
      <point x="777" y="919" type="curve" smooth="yes"/>
      <point x="767" y="925"/>
      <point x="750" y="919"/>
      <point x="736" y="900" type="curve" smooth="yes"/>
      <point x="633" y="765" type="line"/>
      <point x="617" y="744" type="line"/>
      <point x="147" y="117" type="line"/>
      <point x="136" y="103" type="line"/>
      <point x="20" y="-48" type="line" smooth="yes"/>
      <point x="8" y="-63"/>
      <point x="8" y="-81"/>
    </contour>
    <component base="o" xOffset="-15"/>
  </outline>
</glyph>
<glyph name="thorn" format="2">
  <advance width="764"/>
  <unicode hex="00FE"/>
  <outline>
    <contour>
      <point x="359" y="1331" type="curve" smooth="yes"/>
      <point x="292" y="1331"/>
      <point x="231" y="1285"/>
      <point x="212" y="1256" type="curve" smooth="yes"/>
      <point x="199" y="1236"/>
      <point x="207" y="1223"/>
      <point x="215" y="1220" type="curve" smooth="yes"/>
      <point x="229" y="1214"/>
      <point x="245" y="1232"/>
      <point x="257" y="1242" type="curve" smooth="yes"/>
      <point x="288" y="1266"/>
      <point x="311" y="1278"/>
      <point x="333" y="1278" type="curve" smooth="yes"/>
      <point x="378" y="1278"/>
      <point x="392" y="1252"/>
      <point x="347" y="1097" type="curve" smooth="yes"/>
      <point x="-50" y="-304" type="line" smooth="yes"/>
      <point x="-67" y="-363"/>
      <point x="-90" y="-386"/>
      <point x="-156" y="-400" type="curve" smooth="yes"/>
      <point x="-162" y="-400"/>
      <point x="-171" y="-406"/>
      <point x="-171" y="-419" type="curve" smooth="yes"/>
      <point x="-171" y="-427"/>
      <point x="-160" y="-433"/>
      <point x="-147" y="-432" type="curve" smooth="yes"/>
      <point x="106" y="-423" type="line" smooth="yes"/>
      <point x="123" y="-422"/>
      <point x="133" y="-414"/>
      <point x="133" y="-403" type="curve" smooth="yes"/>
      <point x="133" y="-392"/>
      <point x="124" y="-384"/>
      <point x="102" y="-383" type="curve" smooth="yes"/>
      <point x="45" y="-375" type="line" smooth="yes"/>
      <point x="-12" y="-366"/>
      <point x="5" y="-324"/>
      <point x="16" y="-284" type="curve" smooth="yes"/>
      <point x="405" y="1114" type="line" smooth="yes"/>
      <point x="453" y="1282"/>
      <point x="432" y="1331"/>
    </contour>
    <contour>
      <point x="123" y="642" type="curve" smooth="yes"/>
      <point x="235" y="760"/>
      <point x="336" y="810"/>
      <point x="460" y="798" type="curve" smooth="yes"/>
      <point x="601" y="784"/>
      <point x="693" y="659"/>
      <point x="660" y="426" type="curve" smooth="yes"/>
      <point x="619" y="150"/>
      <point x="460" y="18"/>
      <point x="300" y="34" type="curve" smooth="yes"/>
      <point x="212" y="43"/>
      <point x="157" y="84"/>
      <point x="126" y="159" type="curve"/>
      <point x="91" y="143" type="line"/>
      <point x="127" y="39"/>
      <point x="191" y="-5"/>
      <point x="286" y="-13" type="curve" smooth="yes"/>
      <point x="487" y="-32"/>
      <point x="682" y="134"/>
      <point x="721" y="418" type="curve" smooth="yes"/>
      <point x="758" y="685"/>
      <point x="658" y="831"/>
      <point x="473" y="846" type="curve" smooth="yes"/>
      <point x="333" y="857"/>
      <point x="217" y="810"/>
      <point x="80" y="665" type="curve" smooth="yes"/>
      <point x="66" y="651"/>
      <point x="65" y="631"/>
      <point x="82" y="625" type="curve" smooth="yes"/>
      <point x="96" y="619"/>
      <point x="109" y="627"/>
    </contour>
  </outline>
</glyph>
<glyph name="Hbar" format="2">
  <advance width="1360"/>
  <unicode hex="0126"/>
  <outline>
    <contour>
      <point x="184" y="1024" type="curve" smooth="yes"/>
      <point x="179" y="1007"/>
      <point x="185" y="997"/>
      <point x="202" y="997" type="curve" smooth="yes"/>
      <point x="1373" y="997" type="line" smooth="yes"/>
      <point x="1390" y="997"/>
      <point x="1400" y="1007"/>
      <point x="1404" y="1024" type="curve" smooth="yes"/>
      <point x="1409" y="1042"/>
      <point x="1404" y="1052"/>
      <point x="1386" y="1052" type="curve" smooth="yes"/>
      <point x="216" y="1052" type="line" smooth="yes"/>
      <point x="199" y="1052"/>
      <point x="189" y="1042"/>
    </contour>
    <component base="H" xOffset="-42"/>
  </outline>
</glyph>
<glyph name="hbar" format="2">
  <advance width="860"/>
  <unicode hex="0127"/>
  <outline>
    <contour>
      <point x="463" y="1326" type="line" smooth="yes"/>
      <point x="466" y="1336"/>
      <point x="461" y="1344"/>
      <point x="452" y="1344" type="curve" smooth="yes"/>
      <point x="438" y="1344"/>
      <point x="410" y="1325"/>
      <point x="406" y="1312" type="curve" smooth="yes"/>
      <point x="77" y="138" type="line"/>
      <point x="38" y="2"/>
      <point x="43" y="-13"/>
      <point x="79" y="-13" type="curve" smooth="yes"/>
      <point x="112" y="-13"/>
      <point x="144" y="5"/>
      <point x="144" y="35" type="curve" smooth="yes"/>
      <point x="144" y="64"/>
      <point x="132" y="86"/>
      <point x="132" y="112" type="curve" smooth="yes"/>
      <point x="132" y="153"/>
      <point x="136" y="167"/>
      <point x="173" y="268" type="curve" smooth="yes"/>
      <point x="301" y="642"/>
      <point x="530" y="794"/>
      <point x="644" y="794" type="curve" smooth="yes"/>
      <point x="720" y="794"/>
      <point x="746" y="752"/>
      <point x="691" y="586" type="curve" smooth="yes"/>
      <point x="551" y="164" type="line" smooth="yes"/>
      <point x="504" y="26"/>
      <point x="528" y="-13"/>
      <point x="598" y="-13" type="curve" smooth="yes"/>
      <point x="660" y="-13"/>
      <point x="723" y="26"/>
      <point x="741" y="64" type="curve" smooth="yes"/>
      <point x="747" y="75"/>
      <point x="748" y="91"/>
      <point x="737" y="97" type="curve" smooth="yes"/>
      <point x="723" y="103"/>
      <point x="714" y="89"/>
      <point x="697" y="74" type="curve" smooth="yes"/>
      <point x="668" y="50"/>
      <point x="645" y="42"/>
      <point x="623" y="42" type="curve" smooth="yes"/>
      <point x="582" y="42"/>
      <point x="575" y="77"/>
      <point x="605" y="168" type="curve" smooth="yes"/>
      <point x="742" y="578" type="line" smooth="yes"/>
      <point x="803" y="758"/>
      <point x="803" y="845"/>
      <point x="686" y="845" type="curve" smooth="yes"/>
      <point x="510" y="845"/>
      <point x="304" y="674"/>
      <point x="182" y="377" type="curve"/>
      <point x="198" y="376" type="line"/>
    </contour>
    <contour>
      <point x="170" y="1060" type="curve" smooth="yes"/>
      <point x="166" y="1046"/>
      <point x="172" y="1037"/>
      <point x="189" y="1037" type="curve" smooth="yes"/>
      <point x="633" y="1037" type="line" smooth="yes"/>
      <point x="647" y="1037"/>
      <point x="660" y="1046"/>
      <point x="665" y="1061" type="curve" smooth="yes"/>
      <point x="668" y="1075"/>
      <point x="663" y="1084"/>
      <point x="646" y="1084" type="curve" smooth="yes"/>
      <point x="202" y="1084" type="line" smooth="yes"/>
      <point x="188" y="1084"/>
      <point x="174" y="1075"/>
    </contour>
  </outline>
</glyph>
<glyph name="dotlessi" format="2">
  <advance width="463"/>
  <unicode hex="0131"/>
  <outline>
    <contour>
      <point x="207" y="48" type="curve" smooth="yes"/>
      <point x="226" y="48"/>
      <point x="246" y="60"/>
      <point x="276" y="84" type="curve" smooth="yes"/>
      <point x="293" y="97"/>
      <point x="305" y="111"/>
      <point x="319" y="104" type="curve" smooth="yes"/>
      <point x="329" y="98"/>
      <point x="331" y="81"/>
      <point x="322" y="65" type="curve" smooth="yes"/>
      <point x="300" y="29"/>
      <point x="237" y="-13"/>
      <point x="178" y="-13" type="curve" smooth="yes"/>
      <point x="116" y="-13"/>
      <point x="73" y="28"/>
      <point x="125" y="175" type="curve" smooth="yes"/>
      <point x="285" y="636" type="line" smooth="yes"/>
      <point x="322" y="742"/>
      <point x="317" y="778"/>
      <point x="275" y="778" type="curve" smooth="yes"/>
      <point x="255" y="778"/>
      <point x="231" y="765"/>
      <point x="204" y="742" type="curve" smooth="yes"/>
      <point x="189" y="730"/>
      <point x="175" y="715"/>
      <point x="162" y="722" type="curve" smooth="yes"/>
      <point x="152" y="728"/>
      <point x="150" y="745"/>
      <point x="160" y="761" type="curve" smooth="yes"/>
      <point x="187" y="805"/>
      <point x="254" y="841"/>
      <point x="304" y="841" type="curve" smooth="yes"/>
      <point x="365" y="841"/>
      <point x="405" y="797"/>
      <point x="353" y="651" type="curve" smooth="yes"/>
      <point x="193" y="190" type="line" smooth="yes"/>
      <point x="155" y="79"/>
      <point x="164" y="48"/>
    </contour>
  </outline>
</glyph>
<glyph name="Lslash" format="2">
  <advance width="822"/>
  <unicode hex="0141"/>
  <outline>
    <contour>
      <point x="65" y="583" type="curve" smooth="yes"/>
      <point x="69" y="568"/>
      <point x="78" y="561"/>
      <point x="96" y="569" type="curve" smooth="yes"/>
      <point x="800" y="857" type="line" smooth="yes"/>
      <point x="818" y="864"/>
      <point x="824" y="878"/>
      <point x="823" y="893" type="curve" smooth="yes"/>
      <point x="819" y="908"/>
      <point x="812" y="915"/>
      <point x="793" y="907" type="curve" smooth="yes"/>
      <point x="88" y="621" type="line" smooth="yes"/>
      <point x="70" y="613"/>
      <point x="63" y="599"/>
    </contour>
    <component base="L" xOffset="-42"/>
  </outline>
</glyph>
<glyph name="lslash" format="2">
  <advance width="421"/>
  <unicode hex="0142"/>
  <outline>
    <contour>
      <point x="10" y="506" type="curve" smooth="yes"/>
      <point x="15" y="492"/>
      <point x="29" y="490"/>
      <point x="45" y="499" type="curve" smooth="yes"/>
      <point x="207" y="596" type="line"/>
      <point x="245" y="621" type="line"/>
      <point x="513" y="784" type="line" smooth="yes"/>
      <point x="527" y="793"/>
      <point x="536" y="807"/>
      <point x="530" y="820" type="curve" smooth="yes"/>
      <point x="522" y="838"/>
      <point x="510" y="839"/>
      <point x="497" y="831" type="curve" smooth="yes"/>
      <point x="262" y="688" type="line"/>
      <point x="224" y="663" type="line"/>
      <point x="26" y="544" type="line" smooth="yes"/>
      <point x="12" y="535"/>
      <point x="4" y="520"/>
    </contour>
    <component base="l" xOffset="-40"/>
  </outline>
</glyph>
<glyph name="Eng" format="2">
  <advance width="1244"/>
  <unicode hex="014A"/>
  <outline>
    <contour>
      <point x="1155" y="1123" type="line" smooth="yes"/>
      <point x="1203" y="1319"/>
      <point x="1288" y="1418"/>
      <point x="1375" y="1418" type="curve" smooth="yes"/>
      <point x="1403" y="1418"/>
      <point x="1417" y="1400"/>
      <point x="1417" y="1380" type="curve" smooth="yes"/>
      <point x="1417" y="1347"/>
      <point x="1395" y="1332"/>
      <point x="1354" y="1320" type="curve" smooth="yes"/>
      <point x="1284" y="1297"/>
      <point x="1232" y="1227"/>
      <point x="1201" y="1110" type="curve" smooth="yes"/>
      <point x="857" y="-236" type="line" smooth="yes"/>
      <point x="808" y="-418"/>
      <point x="716" y="-494"/>
      <point x="586" y="-494" type="curve" smooth="yes"/>
      <point x="527" y="-494"/>
      <point x="496" y="-470"/>
      <point x="496" y="-442" type="curve" smooth="yes"/>
      <point x="495" y="-417"/>
      <point x="512" y="-392"/>
      <point x="551" y="-392" type="curve" smooth="yes"/>
      <point x="589" y="-392"/>
      <point x="606" y="-416"/>
      <point x="654" y="-416" type="curve" smooth="yes"/>
      <point x="723" y="-416"/>
      <point x="792" y="-358"/>
      <point x="806" y="-227" type="curve" smooth="yes"/>
      <point x="812" y="-160"/>
      <point x="836" y="-105"/>
      <point x="861" y="-13" type="curve" smooth="yes"/>
      <point x="871" y="26"/>
      <point x="874" y="69"/>
      <point x="859" y="111" type="curve" smooth="yes"/>
      <point x="797" y="290"/>
      <point x="575" y="880"/>
      <point x="468" y="1137" type="curve"/>
      <point x="507" y="1148" type="line"/>
      <point x="253" y="174" type="line" smooth="yes"/>
      <point x="239" y="116"/>
      <point x="263" y="73"/>
      <point x="325" y="60" type="curve" smooth="yes"/>
      <point x="362" y="52" type="line" smooth="yes"/>
      <point x="383" y="49"/>
      <point x="392" y="35"/>
      <point x="392" y="21" type="curve" smooth="yes"/>
      <point x="392" y="5"/>
      <point x="380" y="0"/>
      <point x="360" y="0" type="curve" smooth="yes"/>
      <point x="23" y="0" type="line" smooth="yes"/>
      <point x="3" y="0"/>
      <point x="-9" y="9"/>
      <point x="-10" y="25" type="curve" smooth="yes"/>
      <point x="-10" y="35"/>
      <point x="3" y="49"/>
      <point x="27" y="52" type="curve" smooth="yes"/>
      <point x="69" y="60" type="line" smooth="yes"/>
      <point x="132" y="71"/>
      <point x="180" y="114"/>
      <point x="195" y="172" type="curve" smooth="yes"/>
      <point x="433" y="1085" type="line" smooth="yes"/>
      <point x="444" y="1127"/>
      <point x="438" y="1182"/>
      <point x="420" y="1216" type="curve" smooth="yes"/>
      <point x="350" y="1346" type="line" smooth="yes"/>
      <point x="334" y="1373"/>
      <point x="343" y="1400"/>
      <point x="368" y="1400" type="curve" smooth="yes"/>
      <point x="398" y="1400" type="line" smooth="yes"/>
      <point x="424" y="1400"/>
      <point x="430" y="1377"/>
      <point x="451" y="1332" type="curve" smooth="yes"/>
      <point x="515" y="1187"/>
      <point x="837" y="338"/>
      <point x="928" y="107" type="curve"/>
      <point x="896" y="92" type="line"/>
    </contour>
  </outline>
</glyph>
<glyph name="eng" format="2">
  <advance width="839"/>
  <unicode hex="014B"/>
  <outline>
    <contour>
      <point x="522" y="-232" type="curve" smooth="yes"/>
      <point x="771" y="576" type="line" smooth="yes"/>
      <point x="827" y="758"/>
      <point x="833" y="845"/>
      <point x="711" y="845" type="curve" smooth="yes"/>
      <point x="566" y="845"/>
      <point x="321" y="708"/>
      <point x="174" y="289" type="curve"/>
      <point x="202" y="285" type="line"/>
      <point x="333" y="650"/>
      <point x="357" y="721"/>
      <point x="357" y="777" type="curve" smooth="yes"/>
      <point x="357" y="820"/>
      <point x="338" y="845"/>
      <point x="284" y="845" type="curve" smooth="yes"/>
      <point x="234" y="845"/>
      <point x="169" y="814"/>
      <point x="141" y="770" type="curve" smooth="yes"/>
      <point x="132" y="756"/>
      <point x="134" y="741"/>
      <point x="143" y="736" type="curve" smooth="yes"/>
      <point x="158" y="728"/>
      <point x="169" y="743"/>
      <point x="186" y="757" type="curve" smooth="yes"/>
      <point x="218" y="783"/>
      <point x="241" y="793"/>
      <point x="260" y="793" type="curve" smooth="yes"/>
      <point x="304" y="793"/>
      <point x="309" y="758"/>
      <point x="272" y="649" type="curve" smooth="yes"/>
      <point x="100" y="123" type="line" smooth="yes"/>
      <point x="64" y="17"/>
      <point x="70" y="-13"/>
      <point x="107" y="-13" type="curve" smooth="yes"/>
      <point x="140" y="-13"/>
      <point x="172" y="5"/>
      <point x="172" y="34" type="curve" smooth="yes"/>
      <point x="172" y="63"/>
      <point x="159" y="92"/>
      <point x="159" y="108" type="curve" smooth="yes"/>
      <point x="159" y="127"/>
      <point x="165" y="148"/>
      <point x="200" y="268" type="curve" smooth="yes"/>
      <point x="297" y="590"/>
      <point x="539" y="794"/>
      <point x="673" y="794" type="curve" smooth="yes"/>
      <point x="752" y="794"/>
      <point x="768" y="747"/>
      <point x="718" y="586" type="curve" smooth="yes"/>
      <point x="502" y="-121" type="line" smooth="yes"/>
      <point x="487" y="-166"/>
      <point x="479" y="-190"/>
      <point x="474" y="-235" type="curve" smooth="yes"/>
      <point x="463" y="-342"/>
      <point x="394" y="-402"/>
      <point x="329" y="-402" type="curve" smooth="yes"/>
      <point x="282" y="-402"/>
      <point x="267" y="-380"/>
      <point x="231" y="-380" type="curve" smooth="yes"/>
      <point x="194" y="-380"/>
      <point x="179" y="-401"/>
      <point x="179" y="-422" type="curve" smooth="yes"/>
      <point x="179" y="-448"/>
      <point x="207" y="-471"/>
      <point x="264" y="-471" type="curve" smooth="yes"/>
      <point x="387" y="-471"/>
      <point x="470" y="-400"/>
    </contour>
  </outline>
</glyph>
<glyph name="OE" format="2">
  <advance width="1635"/>
  <unicode hex="0152"/>
  <outline>
    <contour>
      <point x="1274" y="0" type="line" smooth="yes"/>
      <point x="1306" y="0"/>
      <point x="1319" y="-30"/>
      <point x="1341" y="-30" type="curve" smooth="yes"/>
      <point x="1439" y="-30"/>
      <point x="1549" y="134"/>
      <point x="1549" y="272" type="curve" smooth="yes"/>
      <point x="1549" y="285"/>
      <point x="1543" y="294"/>
      <point x="1533" y="294" type="curve" smooth="yes"/>
      <point x="1528" y="294"/>
      <point x="1518" y="287"/>
      <point x="1516" y="278" type="curve" smooth="yes"/>
      <point x="1464" y="106"/>
      <point x="1376" y="45"/>
      <point x="1248" y="45" type="curve" smooth="yes"/>
      <point x="896" y="45" type="line" smooth="yes"/>
      <point x="855" y="45"/>
      <point x="830" y="78"/>
      <point x="845" y="134" type="curve" smooth="yes"/>
      <point x="864" y="208"/>
      <point x="1076" y="1073"/>
      <point x="1152" y="1360" type="curve"/>
      <point x="1515" y="1360" type="line" smooth="yes"/>
      <point x="1574" y="1360"/>
      <point x="1623" y="1330"/>
      <point x="1679" y="1193" type="curve" smooth="yes"/>
      <point x="1690" y="1168"/>
      <point x="1699" y="1152"/>
      <point x="1716" y="1152" type="curve" smooth="yes"/>
      <point x="1731" y="1152"/>
      <point x="1744" y="1167"/>
      <point x="1736" y="1197" type="curve" smooth="yes"/>
      <point x="1683" y="1407" type="line" smooth="yes"/>
      <point x="1677" y="1433"/>
      <point x="1672" y="1442"/>
      <point x="1655" y="1442" type="curve" smooth="yes"/>
      <point x="1628" y="1442"/>
      <point x="1602" y="1400"/>
      <point x="1563" y="1400" type="curve" smooth="yes"/>
      <point x="917" y="1400" type="line" smooth="yes"/>
      <point x="572" y="1400"/>
      <point x="240" y="1157"/>
      <point x="146" y="780" type="curve" smooth="yes"/>
      <point x="30" y="318"/>
      <point x="222" y="0"/>
      <point x="557" y="0" type="curve" smooth="yes"/>
    </contour>
    <contour>
      <point x="207" y="792" type="curve" smooth="yes"/>
      <point x="289" y="1120"/>
      <point x="579" y="1338"/>
      <point x="897" y="1338" type="curve" smooth="yes"/>
      <point x="1082" y="1338" type="line"/>
      <point x="761" y="54" type="line"/>
      <point x="574" y="54" type="line" smooth="yes"/>
      <point x="280" y="54"/>
      <point x="99" y="363"/>
    </contour>
    <contour>
      <point x="961" y="708" type="line"/>
      <point x="949" y="663" type="line"/>
      <point x="1350" y="663" type="line" smooth="yes"/>
      <point x="1401" y="663"/>
      <point x="1424" y="647"/>
      <point x="1448" y="556" type="curve" smooth="yes"/>
      <point x="1454" y="532"/>
      <point x="1466" y="523"/>
      <point x="1480" y="523" type="curve" smooth="yes"/>
      <point x="1492" y="523"/>
      <point x="1504" y="536"/>
      <point x="1498" y="562" type="curve" smooth="yes"/>
      <point x="1438" y="844" type="line" smooth="yes"/>
      <point x="1436" y="854"/>
      <point x="1429" y="865"/>
      <point x="1413" y="865" type="curve" smooth="yes"/>
      <point x="1400" y="865"/>
      <point x="1391" y="855"/>
      <point x="1395" y="836" type="curve" smooth="yes"/>
      <point x="1410" y="735"/>
      <point x="1389" y="708"/>
      <point x="1333" y="708" type="curve" smooth="yes"/>
    </contour>
  </outline>
</glyph>
<glyph name="oe" format="2">
  <advance width="1238"/>
  <unicode hex="0153"/>
  <outline>
    <contour>
      <point x="483" y="845" type="curve" smooth="yes"/>
      <point x="276" y="865"/>
      <point x="88" y="648"/>
      <point x="45" y="400" type="curve" smooth="yes"/>
      <point x="2" y="157"/>
      <point x="104" y="-1"/>
      <point x="245" y="-13" type="curve" smooth="yes"/>
      <point x="409" y="-29"/>
      <point x="574" y="85"/>
      <point x="635" y="299" type="curve"/>
      <point x="619" y="303" type="line"/>
      <point x="603" y="88"/>
      <point x="700" y="-13"/>
      <point x="835" y="-13" type="curve" smooth="yes"/>
      <point x="1042" y="-13"/>
      <point x="1180" y="139"/>
      <point x="1180" y="250" type="curve" smooth="yes"/>
      <point x="1180" y="267"/>
      <point x="1175" y="276"/>
      <point x="1165" y="276" type="curve" smooth="yes"/>
      <point x="1157" y="276"/>
      <point x="1153" y="270"/>
      <point x="1148" y="257" type="curve" smooth="yes"/>
      <point x="1097" y="111"/>
      <point x="985" y="33"/>
      <point x="869" y="33" type="curve" smooth="yes"/>
      <point x="753" y="33"/>
      <point x="674" y="113"/>
      <point x="674" y="290" type="curve" smooth="yes"/>
      <point x="673" y="535"/>
      <point x="872" y="806"/>
      <point x="1009" y="806" type="curve" smooth="yes"/>
      <point x="1085" y="806"/>
      <point x="1134" y="748"/>
      <point x="1134" y="660" type="curve" smooth="yes"/>
      <point x="1134" y="640"/>
      <point x="1131" y="616"/>
      <point x="1129" y="602" type="curve"/>
      <point x="1141" y="616" type="line"/>
      <point x="961" y="533"/>
      <point x="660" y="395"/>
      <point x="660" y="395" type="curve"/>
      <point x="668" y="361" type="line"/>
      <point x="668" y="361"/>
      <point x="1034" y="528"/>
      <point x="1224" y="613" type="curve" smooth="yes"/>
      <point x="1238" y="620"/>
      <point x="1249" y="627"/>
      <point x="1249" y="642" type="curve" smooth="yes"/>
      <point x="1249" y="663"/>
      <point x="1236" y="669"/>
      <point x="1220" y="663" type="curve" smooth="yes"/>
      <point x="1208" y="659"/>
      <point x="1199" y="664"/>
      <point x="1199" y="672" type="curve" smooth="yes"/>
      <point x="1200" y="769"/>
      <point x="1143" y="846"/>
      <point x="1037" y="846" type="curve" smooth="yes"/>
      <point x="894" y="846"/>
      <point x="748" y="721"/>
      <point x="669" y="516" type="curve"/>
      <point x="683" y="512" type="line"/>
      <point x="695" y="687"/>
      <point x="615" y="834"/>
    </contour>
    <contour>
      <point x="265" y="32" type="curve" smooth="yes"/>
      <point x="142" y="41"/>
      <point x="65" y="173"/>
      <point x="102" y="389" type="curve" smooth="yes"/>
      <point x="146" y="644"/>
      <point x="294" y="814"/>
      <point x="461" y="801" type="curve" smooth="yes"/>
      <point x="580" y="793"/>
      <point x="660" y="650"/>
      <point x="628" y="447" type="curve" smooth="yes"/>
      <point x="579" y="148"/>
      <point x="417" y="22"/>
    </contour>
  </outline>
</glyph>
<glyph name="Tbar" format="2">
  <advance width="853"/>
  <unicode hex="0166"/>
  <outline>
    <contour>
      <point x="169" y="722" type="curve" smooth="yes"/>
      <point x="164" y="705"/>
      <point x="170" y="695"/>
      <point x="187" y="695" type="curve" smooth="yes"/>
      <point x="842" y="695" type="line" smooth="yes"/>
      <point x="859" y="695"/>
      <point x="868" y="705"/>
      <point x="873" y="722" type="curve" smooth="yes"/>
      <point x="877" y="739"/>
      <point x="873" y="749"/>
      <point x="855" y="749" type="curve" smooth="yes"/>
      <point x="201" y="749" type="line" smooth="yes"/>
      <point x="183" y="749"/>
      <point x="174" y="739"/>
    </contour>
    <component base="T" xOffset="-42"/>
  </outline>
</glyph>
<glyph name="Uogonek" format="2">
  <advance width="1198"/>
  <unicode hex="0172"/>
  <outline>
    <contour>
      <point x="589" y="27" type="line"/>
      <point x="446" y="-50"/>
      <point x="345" y="-163"/>
      <point x="318" y="-270" type="curve" smooth="yes"/>
      <point x="294" y="-366"/>
      <point x="337" y="-431"/>
      <point x="427" y="-431" type="curve" smooth="yes"/>
      <point x="503" y="-431"/>
      <point x="567" y="-373"/>
      <point x="580" y="-323" type="curve" smooth="yes"/>
      <point x="584" y="-309"/>
      <point x="577" y="-304"/>
      <point x="571" y="-304" type="curve" smooth="yes"/>
      <point x="562" y="-305"/>
      <point x="557" y="-308"/>
      <point x="549" y="-321" type="curve" smooth="yes"/>
      <point x="518" y="-365"/>
      <point x="476" y="-384"/>
      <point x="438" y="-384" type="curve" smooth="yes"/>
      <point x="386" y="-384"/>
      <point x="354" y="-345"/>
      <point x="373" y="-268" type="curve" smooth="yes"/>
      <point x="399" y="-162"/>
      <point x="482" y="-81"/>
      <point x="600" y="-11" type="curve"/>
    </contour>
    <component base="U" xOffset="-42"/>
  </outline>
</glyph>
<glyph name="uogonek" format="2">
  <advance width="912"/>
  <unicode hex="0173"/>
  <outline>
    <contour>
      <point x="687" y="37" type="line"/>
      <point x="516" y="-38"/>
      <point x="413" y="-158"/>
      <point x="413" y="-267" type="curve" smooth="yes"/>
      <point x="413" y="-339"/>
      <point x="458" y="-385"/>
      <point x="534" y="-385" type="curve" smooth="yes"/>
      <point x="610" y="-385"/>
      <point x="673" y="-331"/>
      <point x="687" y="-284" type="curve" smooth="yes"/>
      <point x="692" y="-270"/>
      <point x="685" y="-264"/>
      <point x="678" y="-264" type="curve" smooth="yes"/>
      <point x="669" y="-264"/>
      <point x="664" y="-268"/>
      <point x="655" y="-280" type="curve" smooth="yes"/>
      <point x="628" y="-320"/>
      <point x="585" y="-337"/>
      <point x="548" y="-337" type="curve" smooth="yes"/>
      <point x="509" y="-337"/>
      <point x="479" y="-310"/>
      <point x="479" y="-256" type="curve" smooth="yes"/>
      <point x="479" y="-167"/>
      <point x="560" y="-68"/>
      <point x="696" y="6" type="curve"/>
    </contour>
    <component base="u" xOffset="-15"/>
  </outline>
</glyph>
<glyph name="Schwa" format="2">
  <advance width="1201"/>
  <unicode hex="018F"/>
  <outline>
    <contour>
      <point x="106" y="507" type="curve" smooth="yes"/>
      <point x="30" y="205"/>
      <point x="180" y="-14"/>
      <point x="448" y="-14" type="curve" smooth="yes"/>
      <point x="784" y="-14"/>
      <point x="1110" y="303"/>
      <point x="1197" y="649" type="curve" smooth="yes"/>
      <point x="1312" y="1111"/>
      <point x="1165" y="1416"/>
      <point x="829" y="1416" type="curve" smooth="yes"/>
      <point x="549" y="1416"/>
      <point x="297" y="1216"/>
      <point x="231" y="1008" type="curve" smooth="yes"/>
      <point x="227" y="988"/>
      <point x="226" y="967"/>
      <point x="246" y="967" type="curve" smooth="yes"/>
      <point x="265" y="967"/>
      <point x="275" y="982"/>
      <point x="284" y="1005" type="curve" smooth="yes"/>
      <point x="371" y="1181"/>
      <point x="560" y="1358"/>
      <point x="810" y="1358" type="curve" smooth="yes"/>
      <point x="1098" y="1358"/>
      <point x="1243" y="1101"/>
      <point x="1135" y="667" type="curve" smooth="yes"/>
      <point x="1048" y="316"/>
      <point x="774" y="38"/>
      <point x="469" y="38" type="curve" smooth="yes"/>
      <point x="217" y="38"/>
      <point x="107" y="239"/>
      <point x="170" y="491" type="curve" smooth="yes"/>
      <point x="181" y="541"/>
      <point x="211" y="565"/>
      <point x="256" y="565" type="curve" smooth="yes"/>
      <point x="1159" y="565" type="line"/>
      <point x="1171" y="617" type="line"/>
      <point x="230" y="617" type="line" smooth="yes"/>
      <point x="166" y="617"/>
      <point x="124" y="583"/>
    </contour>
  </outline>
</glyph>
<glyph name="Ohorn" format="2">
  <advance width="1328"/>
  <unicode hex="01A0"/>
  <outline>
    <contour>
      <point x="1546" y="1609" type="curve" smooth="yes"/>
      <point x="1554" y="1643"/>
      <point x="1540" y="1662"/>
      <point x="1515" y="1662" type="curve" smooth="yes"/>
      <point x="1487" y="1661"/>
      <point x="1463" y="1642"/>
      <point x="1454" y="1610" type="curve" smooth="yes"/>
      <point x="1445" y="1573" type="line" smooth="yes"/>
      <point x="1408" y="1428"/>
      <point x="1297" y="1363"/>
      <point x="997" y="1408" type="curve" smooth="yes"/>
      <point x="990" y="1409"/>
      <point x="985" y="1403"/>
      <point x="985" y="1393" type="curve" smooth="yes"/>
      <point x="980" y="1372"/>
      <point x="980" y="1377"/>
      <point x="990" y="1375" type="curve" smooth="yes"/>
      <point x="1297" y="1297"/>
      <point x="1498" y="1421"/>
    </contour>
    <component base="O" xOffset="-42"/>
  </outline>
</glyph>
<glyph name="ohorn" format="2">
  <advance width="765"/>
  <unicode hex="01A1"/>
  <outline>
    <contour>
      <point x="903" y="1016" type="curve" smooth="yes"/>
      <point x="915" y="1055"/>
      <point x="900" y="1081"/>
      <point x="873" y="1081" type="curve" smooth="yes"/>
      <point x="851" y="1080"/>
      <point x="827" y="1063"/>
      <point x="816" y="1026" type="curve" smooth="yes"/>
      <point x="805" y="980" type="line" smooth="yes"/>
      <point x="774" y="870"/>
      <point x="647" y="809"/>
      <point x="515" y="846" type="curve" smooth="yes"/>
      <point x="509" y="848"/>
      <point x="502" y="841"/>
      <point x="501" y="831" type="curve" smooth="yes"/>
      <point x="496" y="812"/>
      <point x="498" y="817"/>
      <point x="509" y="814" type="curve" smooth="yes"/>
      <point x="676" y="772"/>
      <point x="861" y="851"/>
    </contour>
    <component base="o" xOffset="-40"/>
  </outline>
</glyph>
<glyph name="Uhorn" format="2">
  <advance width="1246"/>
  <unicode hex="01AF"/>
  <outline>
    <contour>
      <point x="1755" y="1606" type="curve" smooth="yes"/>
      <point x="1766" y="1641"/>
      <point x="1752" y="1660"/>
      <point x="1725" y="1660" type="curve" smooth="yes"/>
      <point x="1695" y="1659"/>
      <point x="1670" y="1640"/>
      <point x="1661" y="1608" type="curve" smooth="yes"/>
      <point x="1652" y="1571" type="line" smooth="yes"/>
      <point x="1623" y="1459"/>
      <point x="1549" y="1400"/>
      <point x="1366" y="1400" type="curve"/>
      <point x="1356" y="1360" type="line"/>
      <point x="1578" y="1349"/>
      <point x="1718" y="1459"/>
    </contour>
    <contour>
      <point x="946" y="391" type="line" smooth="yes"/>
      <point x="880" y="142"/>
      <point x="746" y="25"/>
      <point x="555" y="25" type="curve" smooth="yes"/>
      <point x="380" y="25"/>
      <point x="276" y="124"/>
      <point x="276" y="315" type="curve" smooth="yes"/>
      <point x="276" y="391"/>
      <point x="292" y="487"/>
      <point x="318" y="584" type="curve" smooth="yes"/>
      <point x="505" y="1284" type="line" smooth="yes"/>
      <point x="515" y="1318"/>
      <point x="539" y="1331"/>
      <point x="574" y="1338" type="curve" smooth="yes"/>
      <point x="638" y="1352" type="line" smooth="yes"/>
      <point x="679" y="1362"/>
      <point x="692" y="1368"/>
      <point x="692" y="1383" type="curve" smooth="yes"/>
      <point x="692" y="1393"/>
      <point x="683" y="1400"/>
      <point x="662" y="1400" type="curve" smooth="yes"/>
      <point x="364" y="1400" type="line" smooth="yes"/>
      <point x="330" y="1400"/>
      <point x="313" y="1391"/>
      <point x="313" y="1379" type="curve" smooth="yes"/>
      <point x="313" y="1362"/>
      <point x="322" y="1352"/>
      <point x="354" y="1348" type="curve" smooth="yes"/>
      <point x="405" y="1338" type="line" smooth="yes"/>
      <point x="444" y="1330"/>
      <point x="452" y="1306"/>
      <point x="442" y="1276" type="curve" smooth="yes"/>
      <point x="254" y="584" type="line" smooth="yes"/>
      <point x="227" y="485"/>
      <point x="209" y="385"/>
      <point x="209" y="309" type="curve" smooth="yes"/>
      <point x="209" y="114"/>
      <point x="308" y="-30"/>
      <point x="526" y="-30" type="curve" smooth="yes"/>
      <point x="776" y="-30"/>
      <point x="923" y="115"/>
      <point x="996" y="377" type="curve" smooth="yes"/>
      <point x="1236" y="1267" type="line" smooth="yes"/>
      <point x="1254" y="1329"/>
      <point x="1276" y="1357"/>
      <point x="1319" y="1358" type="curve" smooth="yes"/>
      <point x="1383" y="1358" type="line" smooth="yes"/>
      <point x="1416" y="1359"/>
      <point x="1428" y="1369"/>
      <point x="1428" y="1379" type="curve" smooth="yes"/>
      <point x="1428" y="1391"/>
      <point x="1416" y="1400"/>
      <point x="1395" y="1400" type="curve" smooth="yes"/>
      <point x="1097" y="1400" type="line" smooth="yes"/>
      <point x="1070" y="1400"/>
      <point x="1055" y="1391"/>
      <point x="1055" y="1375" type="curve" smooth="yes"/>
      <point x="1055" y="1360"/>
      <point x="1072" y="1355"/>
      <point x="1100" y="1346" type="curve" smooth="yes"/>
      <point x="1143" y="1332" type="line" smooth="yes"/>
      <point x="1183" y="1319"/>
      <point x="1191" y="1302"/>
      <point x="1181" y="1266" type="curve" smooth="yes"/>
    </contour>
  </outline>
</glyph>
<glyph name="Oogonek" format="2">
  <advance width="1328"/>
  <unicode hex="01EA"/>
  <outline>
    <contour>
      <point x="669" y="28" type="line"/>
      <point x="524" y="-51"/>
      <point x="425" y="-159"/>
      <point x="397" y="-269" type="curve" smooth="yes"/>
      <point x="374" y="-366"/>
      <point x="417" y="-431"/>
      <point x="507" y="-431" type="curve" smooth="yes"/>
      <point x="582" y="-431"/>
      <point x="647" y="-372"/>
      <point x="660" y="-323" type="curve" smooth="yes"/>
      <point x="664" y="-308"/>
      <point x="656" y="-304"/>
      <point x="650" y="-304" type="curve" smooth="yes"/>
      <point x="642" y="-304"/>
      <point x="636" y="-308"/>
      <point x="628" y="-321" type="curve" smooth="yes"/>
      <point x="597" y="-364"/>
      <point x="555" y="-384"/>
      <point x="518" y="-384" type="curve" smooth="yes"/>
      <point x="465" y="-384"/>
      <point x="433" y="-344"/>
      <point x="452" y="-268" type="curve" smooth="yes"/>
      <point x="480" y="-158"/>
      <point x="560" y="-82"/>
      <point x="679" y="-11" type="curve"/>
    </contour>
    <component base="O" xOffset="-42"/>
  </outline>
</glyph>
<glyph name="primemod" format="2">
  <advance width="364"/>
  <unicode hex="02B9"/>
  <outline>
    <contour>
      <point x="181" y="777" type="curve" smooth="yes"/>
      <point x="196" y="777"/>
      <point x="213" y="787"/>
      <point x="225" y="810" type="curve" smooth="yes"/>
      <point x="580" y="1445" type="line" smooth="yes"/>
      <point x="600" y="1483"/>
      <point x="597" y="1507"/>
      <point x="574" y="1507" type="curve" smooth="yes"/>
      <point x="554" y="1507"/>
      <point x="542" y="1495"/>
      <point x="523" y="1459" type="curve" smooth="yes"/>
      <point x="174" y="821" type="line" smooth="yes"/>
      <point x="159" y="794"/>
      <point x="165" y="777"/>
    </contour>
  </outline>
</glyph>
<glyph name="Germandbls" format="2">
  <advance width="1137"/>
  <unicode hex="1E9E"/>
  <outline>
    <contour>
      <point x="1281" y="1400" type="curve" smooth="yes"/>
      <point x="344" y="1400" type="line" smooth="yes"/>
      <point x="325" y="1400"/>
      <point x="311" y="1393"/>
      <point x="309" y="1380" type="curve" smooth="yes"/>
      <point x="306" y="1369"/>
      <point x="311" y="1361"/>
      <point x="333" y="1355" type="curve" smooth="yes"/>
      <point x="393" y="1340" type="line" smooth="yes"/>
      <point x="438" y="1330"/>
      <point x="451" y="1306"/>
      <point x="436" y="1245" type="curve" smooth="yes"/>
      <point x="163" y="145" type="line" smooth="yes"/>
      <point x="151" y="100"/>
      <point x="123" y="68"/>
      <point x="82" y="61" type="curve" smooth="yes"/>
      <point x="14" y="46" type="line" smooth="yes"/>
      <point x="-18" y="40"/>
      <point x="-28" y="32"/>
      <point x="-31" y="18" type="curve" smooth="yes"/>
      <point x="-34" y="6"/>
      <point x="-24" y="0"/>
      <point x="-9" y="0" type="curve" smooth="yes"/>
      <point x="137" y="0" type="line" smooth="yes"/>
      <point x="164" y="0"/>
      <point x="190" y="21"/>
      <point x="197" y="53" type="curve" smooth="yes"/>
      <point x="503" y="1284" type="line" smooth="yes"/>
      <point x="513" y="1322"/>
      <point x="533" y="1343"/>
      <point x="564" y="1343" type="curve" smooth="yes"/>
      <point x="1166" y="1343" type="line" smooth="yes"/>
      <point x="1181" y="1343"/>
      <point x="1187" y="1337"/>
      <point x="1185" y="1323" type="curve" smooth="yes"/>
      <point x="1182" y="1313"/>
      <point x="1176" y="1301"/>
      <point x="1160" y="1286" type="curve" smooth="yes"/>
      <point x="621" y="792" type="line" smooth="yes"/>
      <point x="609" y="780"/>
      <point x="604" y="773"/>
      <point x="602" y="760" type="curve" smooth="yes"/>
      <point x="599" y="746"/>
      <point x="605" y="736"/>
      <point x="627" y="736" type="curve" smooth="yes"/>
      <point x="717" y="736" type="line" smooth="yes"/>
      <point x="976" y="736"/>
      <point x="1097" y="593"/>
      <point x="1037" y="349" type="curve" smooth="yes"/>
      <point x="981" y="127"/>
      <point x="834" y="31"/>
      <point x="662" y="31" type="curve" smooth="yes"/>
      <point x="526" y="31"/>
      <point x="443" y="77"/>
      <point x="445" y="203" type="curve" smooth="yes"/>
      <point x="446" y="266" type="line" smooth="yes"/>
      <point x="447" y="288"/>
      <point x="443" y="295"/>
      <point x="425" y="295" type="curve" smooth="yes"/>
      <point x="411" y="295"/>
      <point x="403" y="285"/>
      <point x="398" y="265" type="curve" smooth="yes"/>
      <point x="337" y="18" type="line" smooth="yes"/>
      <point x="332" y="-3"/>
      <point x="339" y="-20"/>
      <point x="358" y="-20" type="curve" smooth="yes"/>
      <point x="380" y="-20"/>
      <point x="408" y="38"/>
      <point x="426" y="38" type="curve" smooth="yes"/>
      <point x="447" y="38"/>
      <point x="499" y="-20"/>
      <point x="650" y="-20" type="curve" smooth="yes"/>
      <point x="863" y="-20"/>
      <point x="1041" y="113"/>
      <point x="1095" y="330" type="curve" smooth="yes"/>
      <point x="1163" y="603"/>
      <point x="1036" y="787"/>
      <point x="753" y="787" type="curve" smooth="yes"/>
      <point x="724" y="787"/>
      <point x="682" y="788"/>
      <point x="660" y="788" type="curve"/>
      <point x="657" y="758" type="line"/>
      <point x="1265" y="1318" type="line" smooth="yes"/>
      <point x="1290" y="1341"/>
      <point x="1299" y="1353"/>
      <point x="1303" y="1370" type="curve" smooth="yes"/>
      <point x="1308" y="1389"/>
      <point x="1299" y="1400"/>
    </contour>
  </outline>
</glyph>
<glyph name="endash" format="2">
  <advance width="805"/>
  <unicode hex="2013"/>
  <outline>
    <contour>
      <point x="86" y="471" type="curve" smooth="yes"/>
      <point x="84" y="453"/>
      <point x="89" y="442"/>
      <point x="104" y="442" type="curve" smooth="yes"/>
      <point x="742" y="442" type="line" smooth="yes"/>
      <point x="758" y="442"/>
      <point x="766" y="453"/>
      <point x="769" y="471" type="curve" smooth="yes"/>
      <point x="773" y="489"/>
      <point x="769" y="501"/>
      <point x="753" y="501" type="curve" smooth="yes"/>
      <point x="114" y="501" type="line" smooth="yes"/>
      <point x="99" y="501"/>
      <point x="90" y="489"/>
    </contour>
  </outline>
</glyph>
<glyph name="dagger" format="2">
  <advance width="848"/>
  <unicode hex="2020"/>
  <outline>
    <contour>
      <point x="533" y="961" type="curve" smooth="yes"/>
      <point x="499" y="833"/>
      <point x="456" y="721"/>
      <point x="422" y="592" type="curve" smooth="yes"/>
      <point x="375" y="406"/>
      <point x="335" y="197"/>
      <point x="223" y="-239" type="curve" smooth="yes"/>
      <point x="214" y="-275"/>
      <point x="217" y="-292"/>
      <point x="233" y="-292" type="curve" smooth="yes"/>
      <point x="251" y="-292"/>
      <point x="263" y="-277"/>
      <point x="273" y="-241" type="curve" smooth="yes"/>
      <point x="385" y="198"/>
      <point x="451" y="405"/>
      <point x="500" y="594" type="curve" smooth="yes"/>
      <point x="536" y="730"/>
      <point x="545" y="838"/>
      <point x="577" y="961" type="curve" smooth="yes"/>
      <point x="617" y="1119"/>
      <point x="665" y="1235"/>
      <point x="700" y="1372" type="curve" smooth="yes"/>
      <point x="708" y="1401"/>
      <point x="701" y="1419"/>
      <point x="673" y="1419" type="curve" smooth="yes"/>
      <point x="646" y="1419"/>
      <point x="630" y="1402"/>
      <point x="621" y="1372" type="curve" smooth="yes"/>
      <point x="587" y="1236"/>
      <point x="573" y="1119"/>
    </contour>
    <contour>
      <point x="562" y="987" type="curve" smooth="yes"/>
      <point x="423" y="987"/>
      <point x="324" y="999"/>
      <point x="203" y="999" type="curve" smooth="yes"/>
      <point x="168" y="999"/>
      <point x="143" y="987"/>
      <point x="135" y="960" type="curve" smooth="yes"/>
      <point x="128" y="934"/>
      <point x="144" y="923"/>
      <point x="181" y="923" type="curve" smooth="yes"/>
      <point x="301" y="923"/>
      <point x="410" y="941"/>
      <point x="550" y="941" type="curve" smooth="yes"/>
      <point x="692" y="941"/>
      <point x="794" y="923"/>
      <point x="917" y="923" type="curve" smooth="yes"/>
      <point x="948" y="923"/>
      <point x="967" y="934"/>
      <point x="975" y="960" type="curve" smooth="yes"/>
      <point x="983" y="987"/>
      <point x="968" y="999"/>
      <point x="939" y="999" type="curve" smooth="yes"/>
      <point x="815" y="999"/>
      <point x="705" y="987"/>
    </contour>
  </outline>
</glyph>
<glyph name="daggerdbl" format="2">
  <advance width="848"/>
  <unicode hex="2021"/>
  <outline>
    <contour>
      <point x="562" y="987" type="curve" smooth="yes"/>
      <point x="423" y="987"/>
      <point x="324" y="999"/>
      <point x="203" y="999" type="curve" smooth="yes"/>
      <point x="168" y="999"/>
      <point x="143" y="987"/>
      <point x="135" y="960" type="curve" smooth="yes"/>
      <point x="128" y="934"/>
      <point x="144" y="923"/>
      <point x="181" y="923" type="curve" smooth="yes"/>
      <point x="301" y="923"/>
      <point x="410" y="941"/>
      <point x="550" y="941" type="curve" smooth="yes"/>
      <point x="692" y="941"/>
      <point x="794" y="923"/>
      <point x="917" y="923" type="curve" smooth="yes"/>
      <point x="948" y="923"/>
      <point x="967" y="934"/>
      <point x="975" y="960" type="curve" smooth="yes"/>
      <point x="983" y="987"/>
      <point x="968" y="999"/>
      <point x="939" y="999" type="curve" smooth="yes"/>
      <point x="815" y="999"/>
      <point x="705" y="987"/>
    </contour>
    <contour>
      <point x="500" y="594" type="curve" smooth="yes"/>
      <point x="536" y="730"/>
      <point x="545" y="838"/>
      <point x="577" y="961" type="curve" smooth="yes"/>
      <point x="617" y="1119"/>
      <point x="665" y="1235"/>
      <point x="700" y="1372" type="curve" smooth="yes"/>
      <point x="708" y="1401"/>
      <point x="701" y="1419"/>
      <point x="673" y="1419" type="curve" smooth="yes"/>
      <point x="646" y="1419"/>
      <point x="630" y="1402"/>
      <point x="621" y="1372" type="curve" smooth="yes"/>
      <point x="587" y="1236"/>
      <point x="573" y="1119"/>
      <point x="533" y="961" type="curve" smooth="yes"/>
      <point x="499" y="833"/>
      <point x="456" y="721"/>
      <point x="422" y="592" type="curve" smooth="yes"/>
      <point x="389" y="462"/>
      <point x="376" y="350"/>
      <point x="343" y="224" type="curve" smooth="yes"/>
      <point x="302" y="64"/>
      <point x="255" y="-53"/>
      <point x="222" y="-187" type="curve" smooth="yes"/>
      <point x="213" y="-220"/>
      <point x="221" y="-236"/>
      <point x="247" y="-234" type="curve" smooth="yes"/>
      <point x="275" y="-236"/>
      <point x="291" y="-218"/>
      <point x="300" y="-187" type="curve" smooth="yes"/>
      <point x="334" y="-52"/>
      <point x="345" y="64"/>
      <point x="386" y="224" type="curve" smooth="yes"/>
      <point x="417" y="345"/>
      <point x="464" y="453"/>
    </contour>
    <contour>
      <point x="358" y="198" type="curve" smooth="yes"/>
      <point x="501" y="196"/>
      <point x="603" y="184"/>
      <point x="727" y="186" type="curve" smooth="yes"/>
      <point x="757" y="184"/>
      <point x="778" y="195"/>
      <point x="786" y="225" type="curve" smooth="yes"/>
      <point x="792" y="248"/>
      <point x="780" y="260"/>
      <point x="749" y="262" type="curve" smooth="yes"/>
      <point x="626" y="260"/>
      <point x="513" y="242"/>
      <point x="370" y="244" type="curve" smooth="yes"/>
      <point x="231" y="242"/>
      <point x="133" y="260"/>
      <point x="13" y="262" type="curve" smooth="yes"/>
      <point x="-24" y="260"/>
      <point x="-47" y="248"/>
      <point x="-53" y="225" type="curve" smooth="yes"/>
      <point x="-62" y="195"/>
      <point x="-44" y="184"/>
      <point x="-9" y="186" type="curve" smooth="yes"/>
      <point x="112" y="184"/>
      <point x="219" y="196"/>
    </contour>
  </outline>
</glyph>
<glyph name="minute" format="2">
  <advance width="393"/>
  <unicode hex="2032"/>
  <outline>
    <contour>
      <point x="177" y="776" type="curve" smooth="yes"/>
      <point x="190" y="776"/>
      <point x="204" y="776"/>
      <point x="220" y="803" type="curve" smooth="yes"/>
      <point x="600" y="1420" type="line" smooth="yes"/>
      <point x="627" y="1465"/>
      <point x="620" y="1507"/>
      <point x="579" y="1507" type="curve" smooth="yes"/>
      <point x="548" y="1507"/>
      <point x="525" y="1489"/>
      <point x="498" y="1436" type="curve" smooth="yes"/>
      <point x="175" y="815" type="line" smooth="yes"/>
      <point x="161" y="790"/>
      <point x="164" y="776"/>
    </contour>
  </outline>
</glyph>
<glyph name="guilsinglleft" format="2">
  <advance width="505"/>
  <unicode hex="2039"/>
  <outline>
    <contour>
      <point x="101" y="464" type="curve" smooth="yes"/>
      <point x="96" y="442"/>
      <point x="99" y="435"/>
      <point x="139" y="386" type="curve" smooth="yes"/>
      <point x="226" y="276"/>
      <point x="253" y="235"/>
      <point x="301" y="158" type="curve" smooth="yes"/>
      <point x="310" y="147"/>
      <point x="318" y="138"/>
      <point x="334" y="148" type="curve" smooth="yes"/>
      <point x="346" y="156"/>
      <point x="346" y="171"/>
      <point x="341" y="183" type="curve" smooth="yes"/>
      <point x="310" y="257"/>
      <point x="269" y="332"/>
      <point x="167" y="467" type="curve"/>
      <point x="156" y="423" type="line"/>
      <point x="325" y="558"/>
      <point x="406" y="627"/>
      <point x="472" y="700" type="curve" smooth="yes"/>
      <point x="487" y="714"/>
      <point x="493" y="731"/>
      <point x="482" y="741" type="curve" smooth="yes"/>
      <point x="473" y="750"/>
      <point x="455" y="746"/>
      <point x="444" y="736" type="curve" smooth="yes"/>
      <point x="362" y="663"/>
      <point x="314" y="627"/>
      <point x="179" y="523" type="curve" smooth="yes"/>
      <point x="119" y="477"/>
      <point x="106" y="481"/>
    </contour>
  </outline>
</glyph>
<glyph name="fraction" format="2">
  <advance width="879"/>
  <unicode hex="2044"/>
  <outline>
    <contour>
      <point x="613" y="803" type="curve" smooth="yes"/>
      <point x="847" y="1103"/>
      <point x="994" y="1260"/>
      <point x="1063" y="1351" type="curve" smooth="yes"/>
      <point x="1089" y="1380"/>
      <point x="1098" y="1412"/>
      <point x="1080" y="1426" type="curve" smooth="yes"/>
      <point x="1059" y="1440"/>
      <point x="1032" y="1429"/>
      <point x="1001" y="1395" type="curve" smooth="yes"/>
      <point x="924" y="1303"/>
      <point x="811" y="1130"/>
      <point x="577" y="829" type="curve" smooth="yes"/>
      <point x="558" y="807"/>
      <point x="555" y="788"/>
      <point x="566" y="781" type="curve" smooth="yes"/>
      <point x="577" y="772"/>
      <point x="595" y="778"/>
    </contour>
    <contour>
      <point x="390" y="591" type="curve" smooth="yes"/>
      <point x="168" y="305"/>
      <point x="11" y="135"/>
      <point x="-61" y="44" type="curve" smooth="yes"/>
      <point x="-85" y="14"/>
      <point x="-94" y="-18"/>
      <point x="-76" y="-31" type="curve" smooth="yes"/>
      <point x="-55" y="-46"/>
      <point x="-27" y="-35"/>
      <point x="2" y="0" type="curve" smooth="yes"/>
      <point x="79" y="91"/>
      <point x="206" y="276"/>
      <point x="430" y="563" type="curve" smooth="yes"/>
      <point x="449" y="586"/>
      <point x="451" y="604"/>
      <point x="438" y="613" type="curve" smooth="yes"/>
      <point x="426" y="621"/>
      <point x="409" y="616"/>
    </contour>
  </outline>
</glyph>
<glyph name="commercialminussign" format="2">
  <advance width="897"/>
  <unicode hex="2052"/>
  <outline>
    <contour>
      <point x="568" y="685" type="curve" smooth="yes"/>
      <point x="678" y="848"/>
      <point x="930" y="1196"/>
      <point x="1025" y="1336" type="curve" smooth="yes"/>
      <point x="1050" y="1370"/>
      <point x="1050" y="1395"/>
      <point x="1034" y="1403" type="curve" smooth="yes"/>
      <point x="1016" y="1414"/>
      <point x="994" y="1405"/>
      <point x="968" y="1366" type="curve" smooth="yes"/>
      <point x="874" y="1225"/>
      <point x="637" y="873"/>
      <point x="524" y="707" type="curve" smooth="yes"/>
      <point x="411" y="541"/>
      <point x="169" y="206"/>
      <point x="71" y="70" type="curve" smooth="yes"/>
      <point x="42" y="28"/>
      <point x="37" y="1"/>
      <point x="54" y="-9" type="curve" smooth="yes"/>
      <point x="71" y="-19"/>
      <point x="96" y="-6"/>
      <point x="127" y="36" type="curve" smooth="yes"/>
      <point x="225" y="174"/>
      <point x="457" y="520"/>
    </contour>
    <component base="period" xScale="0.8926200000000001" yScale="0.8942400000000001" xOffset="469" yOffset="35"/>
    <component base="period" xScale="0.8926200000000001" yScale="0.8942400000000001" xOffset="262" yOffset="1226"/>
  </outline>
</glyph>
<glyph name="four.superior" format="2">
  <advance width="534"/>
  <unicode hex="2074"/>
  <outline>
    <contour>
      <point x="489" y="1110" type="curve" smooth="yes"/>
      <point x="418" y="829" type="line" smooth="yes"/>
      <point x="412" y="804"/>
      <point x="394" y="789"/>
      <point x="370" y="786" type="curve" smooth="yes"/>
      <point x="330" y="781" type="line" smooth="yes"/>
      <point x="317" y="779"/>
      <point x="309" y="771"/>
      <point x="306" y="759" type="curve" smooth="yes"/>
      <point x="302" y="747"/>
      <point x="308" y="739"/>
      <point x="320" y="739" type="curve" smooth="yes"/>
      <point x="524" y="739" type="line" smooth="yes"/>
      <point x="536" y="739"/>
      <point x="545" y="747"/>
      <point x="549" y="759" type="curve" smooth="yes"/>
      <point x="551" y="771"/>
      <point x="546" y="780"/>
      <point x="534" y="781" type="curve" smooth="yes"/>
      <point x="497" y="786" type="line" smooth="yes"/>
      <point x="474" y="788"/>
      <point x="464" y="804"/>
      <point x="470" y="829" type="curve" smooth="yes"/>
      <point x="551" y="1153" type="line" smooth="yes"/>
      <point x="553" y="1161"/>
      <point x="550" y="1166"/>
      <point x="545" y="1166" type="curve" smooth="yes"/>
      <point x="538" y="1166"/>
      <point x="534" y="1164"/>
      <point x="527" y="1157" type="curve" smooth="yes"/>
      <point x="507" y="1140" type="line" smooth="yes"/>
      <point x="500" y="1134"/>
      <point x="493" y="1126"/>
    </contour>
    <contour>
      <point x="492" y="1258" type="curve" smooth="yes"/>
      <point x="174" y="963" type="line" smooth="yes"/>
      <point x="160" y="950"/>
      <point x="153" y="941"/>
      <point x="151" y="933" type="curve" smooth="yes"/>
      <point x="148" y="920"/>
      <point x="155" y="912"/>
      <point x="170" y="912" type="curve" smooth="yes"/>
      <point x="576" y="912" type="line" smooth="yes"/>
      <point x="590" y="912"/>
      <point x="599" y="920"/>
      <point x="602" y="934" type="curve" smooth="yes"/>
      <point x="605" y="949"/>
      <point x="600" y="955"/>
      <point x="589" y="955" type="curve" smooth="yes"/>
      <point x="184" y="955" type="line"/>
      <point x="188" y="923" type="line"/>
      <point x="535" y="1243" type="line" smooth="yes"/>
      <point x="578" y="1285"/>
      <point x="599" y="1314"/>
      <point x="609" y="1352" type="curve" smooth="yes"/>
      <point x="619" y="1390"/>
      <point x="602" y="1418"/>
      <point x="580" y="1418" type="curve" smooth="yes"/>
      <point x="550" y="1418"/>
      <point x="530" y="1398"/>
      <point x="523" y="1373" type="curve" smooth="yes"/>
      <point x="516" y="1345"/>
      <point x="535" y="1334"/>
      <point x="528" y="1306" type="curve" smooth="yes"/>
      <point x="523" y="1287"/>
      <point x="508" y="1273"/>
    </contour>
  </outline>
</glyph>
